<?xml version="1.0" encoding="utf-8"?>
<!-- Generator: Adobe Illustrator 21.0.0, SVG Export Plug-In . SVG Version: 6.00 Build 0)  -->
<svg version="1.1" id="Layer_1" xmlns="http://www.w3.org/2000/svg" xmlns:xlink="http://www.w3.org/1999/xlink" x="0px" y="0px"
	 viewBox="0 0 254 254" style="enable-background:new 0 0 254 254;" xml:space="preserve">
<style type="text/css">
	.st0{fill:none;stroke:#EEEEEE;}
</style>
<path class="st0" d="M38,120.3c-3.1,2.8-6.9,4.2-11.4,4.2c-3.2,0-6.3-0.3-9.4-0.9c-3.2-0.6-6.4-0.8-9.6-0.6c-2.9,0-5.3,0.3-7.4,1
	c-0.2-1.4,0.2-2.4,1.1-3c1-0.7,2.2-1.2,3.4-1.5c-0.9-1.3-1-2.3-0.5-2.8s1.3-0.7,2.3-0.5c1.1,0.4,2.1,0.9,3,1.5
	c0-0.8-0.2-1.5-0.5-1.9c-0.3-0.3-0.5-0.7-0.5-1.1c0.2-0.7,1.2-0.8,3-0.3c1.5,0.8,2.8,1.8,3.9,3c1.3,1.4,2.2,2.5,2.9,3.3
	c0.7,0.7,1.6,1.2,2.5,1.5c0.8,0.3,1.7,0.5,2.5,0.5c0.2,0,0.5-0.1,0.5-0.4c0,0,0-0.1,0-0.1c0-0.5-0.1-0.8-0.3-1
	c-1.9-1.2-3-2.5-3.3-4.1c-0.3-1-0.5-2.4-0.5-4.1c0-1.7-0.4-2.5-1.3-2.5c-0.3,0-0.6,0.3-0.6,0.8c-0.1,0.5-0.6,0.7-1.4,0.5
	c-0.8-0.5-1.2-1.2-1-2c0-0.8,0.3-1.5,0.9-2c0.6-0.5,1.4-0.7,2.2-0.5c1.2,0.3,2,0.9,2.5,1.7c0.5,0.7,0.9,1.6,1.1,2.4
	c0.2,0.8,0.4,1.7,0.5,2.5c0.1,0.8,0.3,1.4,0.6,1.5c0.2,0.2,0.5,0.2,1.1,0.1c0.6-0.1,1.3-0.1,1.9-0.1c0.6,0,1.2,0.1,1.8,0.3
	c0.5,0.2,0.8,0.7,1,1.5c0.3,1.2,0,2-1,2.4c-0.9,0.4-1.8,0.9-2.5,1.7c-0.2,0.3-0.3,0.6-0.4,0.9c-0.1,0.4,0,0.6,0.4,0.6
	c4.1,0.3,7.6-0.7,10.7-3c3-2.4,4.7-5.5,5.1-9.4h-1c-0.3,1.5-1.4,2.3-3,2.3c-0.8,0-1.7-0.3-2.3-0.9c-0.6-0.5-1-1.3-1-2.2
	c0-2.2,1.1-3.3,3.3-3.3c1.4,0,2.4,0.7,3,2h1c-0.2-3.4-1.4-6.1-3.6-8.3c-2.2-2.1-4.5-3.1-6.9-2.9c-1.3,0-2.5,0.3-3.6,1
	c-1,0.7-1.4,1.7-1.3,3c0,1.9,0.7,2.8,2,2.8c0.3,0,0.6-0.2,0.6-0.5c0.1-0.3,0.2-0.7,0.4-1c0.3-0.8,0.9-1.1,1.8-0.8c0.7,0,1,0.6,1,1.8
	c0,0.9-0.3,1.7-0.8,2.4c-0.5,0.8-1.3,1.1-2.3,1.1c-1.4,0-2.6-0.5-3.8-1.7c-1.2-1.1-1.7-2.6-1.5-4.4c0.3-3.2,1.7-5.3,4.2-6.3
	c2.5-1,4.9-1.3,7.2-0.8c0.5-0.7,1.2-1,2-1c0.8,0,1.6,0.7,2.3,2c1.4,2.1,2.3,4.5,2.7,7c0.4,2.6,0.5,5.2,0.4,7.7
	C42.6,113.9,41.1,117.5,38,120.3z M42.2,151.5c-0.4,2.5-1.3,4.9-2.7,7c-0.7,1.4-1.4,2-2.3,2c-0.8,0-1.6-0.4-2-1
	c-2.4,0.5-4.8,0.3-7.2-0.8c-2.5-1-3.8-3.1-4.2-6.3c-0.2-1.9,0.3-3.3,1.5-4.4c1.2-1.1,2.5-1.6,3.8-1.7c1,0,1.8,0.4,2.3,1.1
	c0.5,0.7,0.8,1.6,0.8,2.4c0,1.2-0.3,1.8-1,1.8c-0.8,0.3-1.4,0.1-1.8-0.8c-0.2-0.3-0.3-0.7-0.4-1c0-0.3-0.3-0.5-0.6-0.5
	c-0.6,0-1.2,0.3-1.5,0.9c-0.3,0.6-0.5,1.2-0.5,1.9c-0.2,1.4,0.3,2.4,1.3,3c1.1,0.7,2.3,1,3.6,1c2.4,0.2,4.7-0.8,6.9-2.9
	s3.4-4.9,3.6-8.3h-1c-0.4,0.5-0.8,1.1-1.3,1.5c-0.5,0.5-1.1,0.7-1.8,0.5c-0.8,0-1.7-0.3-2.3-0.9c-0.6-0.5-1-1.3-1-2.1
	c0-0.9,0.3-1.8,1-2.4c0.6-0.6,1.4-0.9,2.3-0.9c1.7,0,2.7,0.8,3,2.3h1c-0.3-3.9-2-7-5.1-9.4c-3-2.4-6.6-3.4-10.7-3
	c-0.3,0-0.5,0.2-0.4,0.6c0,0.3,0.2,0.6,0.4,0.9c0.7,0.7,1.6,1.3,2.5,1.6c1,0.4,1.4,1.2,1,2.4c-0.2,0.8-0.5,1.4-1,1.5
	c-0.6,0.2-1.2,0.3-1.8,0.3c-0.6,0-1.3,0-1.9-0.1c-0.6-0.1-1,0-1.1,0.1c-0.3,0.3-0.6,0.9-0.6,1.6c-0.1,0.8-0.3,1.6-0.5,2.4
	c-0.3,0.9-0.6,1.7-1.1,2.4c-0.5,0.8-1.4,1.2-2.5,1.4c-0.8,0.3-1.6,0.3-2.2-0.3c-0.6-0.5-0.9-1.3-0.9-2c-0.2-0.8,0.2-1.5,1-2
	c0.8-0.2,1.3,0,1.4,0.5c0.1,0.5,0.3,0.8,0.6,0.8c0.8,0,1.3-0.8,1.3-2.5s0.2-3,0.5-4.1c0.3-1.5,1.4-2.9,3.3-4.1
	c0.2-0.2,0.3-0.5,0.3-0.8c0-0.5-0.2-0.8-0.5-0.8c-0.9,0-1.7,0.2-2.5,0.5c-1,0.3-1.8,0.8-2.5,1.5c-0.7,0.8-1.7,1.9-2.9,3.3
	c-1.1,1.2-2.5,2.3-3.9,3c-1.7,0.8-2.7,0.8-3-0.3c0-0.3,0.2-0.8,0.5-1.3c0.3-0.5,0.5-1.1,0.5-1.8c-1,0.9-2,1.4-3,1.5
	c-1,0-1.8-0.3-2.3-0.8s-0.3-1.4,0.5-2.5c-1.2-0.3-2.4-0.8-3.4-1.5c-0.9-0.7-1.3-1.7-1.1-3c2,0.7,4.5,1,7.4,1c3.2,0.2,6.5,0,9.6-0.5
	c3.1-0.5,6.2-0.9,9.4-1c4.6,0,8.4,1.4,11.4,4.2c3,2.8,4.6,6.4,4.6,10.8C42.7,146.3,42.6,148.9,42.2,151.5L42.2,151.5z M76.9,88.9
	c0.3,2.4,0,4.9-0.9,7.2c-0.9,2.5-3,3.9-6.2,4.2c-1.9,0.2-3.4-0.3-4.6-1.5c-1.2-1.2-1.7-2.5-1.5-3.8c0-0.8,0.4-1.6,1.1-2.2
	c0.7-0.6,1.6-0.8,2.4-0.6c1,0,1.6,0.3,1.8,1c0,0.8-0.3,1.4-0.8,1.5c-0.3,0.2-0.7,0.3-1,0.4c-0.3,0-0.5,0.3-0.5,0.6
	c0,1.5,0.8,2.3,2.5,2.3c1.4,0,2.4-0.5,3.2-1.5c0.7-0.9,1.1-2.1,1.1-3.3c0.2-2.5-0.8-4.9-2.9-7c-2.1-2.1-4.9-3.3-8.3-3.7l-0.3,1.3
	c1.5,0.3,2.3,1.4,2.3,3c0,0.8-0.4,1.6-1,2.2c-0.6,0.6-1.4,0.9-2.3,0.9c-0.8,0-1.6-0.3-2.2-0.9c-0.6-0.6-1-1.3-1.1-2.2
	c0-1.7,0.8-2.8,2.5-3.3v-0.8c-4.1,0.3-7.2,2-9.5,5c-2.3,3-3.3,6.5-3.2,10.5c0.1,0.3,0.4,0.5,0.8,0.5c0.4,0,0.8-0.2,1-0.5
	c0.7-0.7,1.3-1.5,1.7-2.4c0.4-0.9,1.2-1.2,2.4-0.9c0.7,0.2,1.1,0.5,1.4,1c0.3,0.6,0.4,1.2,0.4,1.8c0,0.6,0,1.1-0.1,1.7
	c-0.1,0.6,0,1,0.1,1.1c0.2,0.3,0.7,0.6,1.5,0.6c0.9,0.1,1.7,0.3,2.5,0.5c0.9,0.3,1.7,0.7,2.4,1.3c0.8,0.6,1.2,1.5,1.4,2.7
	c0.3,1.7-0.4,2.7-2.3,3c-1.4,0-2-0.4-2-1.3c-0.2-0.8,0-1.3,0.5-1.3c0.5,0,0.8-0.2,0.8-0.5c0-0.8-0.8-1.3-2.5-1.3s-3-0.2-4.1-0.5
	c-1.5-0.5-2.9-1.6-4.1-3.3c-0.2-0.3-0.5-0.5-0.9-0.4c-0.4,0.1-0.6,0.2-0.6,0.4c0,0.9,0.2,1.8,0.5,2.7c0.3,1.1,0.8,1.9,1.5,2.4
	c1.2,1,2.3,2,3.3,3c1.4,1.4,2.3,2.7,2.8,4.1c0.8,1.7,0.8,2.6-0.3,2.8c-0.3,0.2-0.7,0.1-1.1-0.3c-0.5-0.4-1.1-0.6-1.7-0.8
	c0.8,1.4,1.3,2.5,1.3,3.3c0.2,0.9,0,1.5-0.5,2s-1.4,0.4-2.5-0.3c-0.3,1.3-0.9,2.4-1.7,3.4c-0.7,0.9-1.8,1.3-2.9,1.1
	c0.7-2.4,1-4.9,1-7.4c0.2-3.3,0-6.6-0.6-9.8c-0.6-3.1-0.9-6.3-0.9-9.5c0-4.6,1.4-8.3,4.1-11.3c2.7-3,6.3-4.5,10.7-4.7
	c2.6,0,5.3,0.2,7.9,0.6c2.5,0.4,4.9,1.2,7.1,2.4c1.4,0.7,2,1.4,2,2.3C77.9,87.9,77.5,88.6,76.9,88.9z M75.8,168.6
	c-2.2,1.2-4.6,2.1-7.1,2.4c-2.6,0.4-5.2,0.6-7.9,0.6c-4.4-0.2-8-1.7-10.7-4.7c-2.7-3-4.1-6.7-4.1-11.3c0-3.2,0.3-6.4,0.9-9.5
	c0.6-3.2,0.8-6.5,0.6-9.8c0-2.9-0.3-5.3-1-7.4c1.1-0.2,2.2,0.2,2.9,1.1c0.8,1,1.4,2.2,1.7,3.4c1.2-0.7,2-0.8,2.5-0.3s0.7,1.2,0.5,2
	c0,0.8-0.4,1.9-1.3,3.3c0.6,0,1.2-0.2,1.7-0.6c0.4-0.4,0.8-0.5,1.1-0.4c1,0.2,1.1,1.1,0.3,2.8c-0.5,1.4-1.4,2.7-2.8,4.1
	c-1,1.1-2.1,2.1-3.3,3c-0.7,0.5-1.2,1.3-1.5,2.4c-0.3,0.9-0.5,1.8-0.5,2.7c0,0.2,0.2,0.3,0.6,0.4c0.3,0.1,0.7,0,0.9-0.4
	c1.2-1.7,2.5-2.8,4.1-3.3c1-0.3,2.4-0.5,4.1-0.5s2.5-0.4,2.5-1.3c0-0.3-0.3-0.5-0.8-0.5c-0.5,0-0.7-0.4-0.5-1.3c0-0.8,0.7-1.3,2-1.3
	c1.9,0.3,2.6,1.4,2.3,3c-0.2,1.2-0.6,2.1-1.4,2.7c-0.7,0.6-1.5,1-2.4,1.3c-0.8,0.3-1.7,0.5-2.5,0.6c-0.8,0.2-1.4,0.3-1.5,0.5
	c-0.2,0.2-0.2,0.6-0.1,1.1c0.1,0.6,0.1,1.3,0.1,1.9c0,0.5-0.1,1.1-0.4,1.5c-0.3,0.5-0.8,0.9-1.4,1c-1.2,0.3-2,0-2.4-0.9
	c-0.4-0.9-1-1.7-1.7-2.4c-0.8-0.8-1.4-0.8-1.8,0c-0.2,4.1,0.9,7.6,3.2,10.7c2.3,3.1,5.5,4.7,9.5,5.1v-1c-1.7-0.5-2.5-1.6-2.5-3.3
	c0.2-0.8,0.6-1.6,1.1-2.2c0.6-0.6,1.3-0.9,2.2-0.9c0.8,0,1.7,0.3,2.3,0.9c0.6,0.5,1,1.3,1,2.2c0,1.7-0.8,2.7-2.3,3l0.3,1.3
	c3.4-0.3,6.1-1.6,8.3-3.7s3.1-4.4,2.9-6.7c0-1.3-0.4-2.5-1.1-3.6c-0.8-1-1.8-1.5-3.2-1.5c-1.7,0-2.5,0.8-2.5,2.3
	c0,0.3,0.2,0.6,0.5,0.6c0.4,0.1,0.7,0.2,1,0.4c0.5,0.3,0.8,0.9,0.8,1.5c-0.3,0.8-0.9,1.3-1.8,1.3c-0.9,0-1.7-0.3-2.4-0.9
	c-0.8-0.6-1.1-1.3-1.1-2.2c-0.2-1.4,0.3-2.6,1.5-3.8c1.2-1.2,2.7-1.7,4.6-1.5c3.2,0.3,5.3,1.7,6.2,4.2c0.9,2.3,1.2,4.8,0.9,7.2
	c0.7,0.3,1,1,1,2C77.9,167.2,77.2,168,75.8,168.6z M122.4,100.2c-2.1,1.8-4.2,2.8-6.2,3.2c-4.7,1-8.9,1.2-12.4,0.5
	c0.3,2.1,0.5,4.1,0.4,6.2c-0.1,2.3-0.4,4.5-0.9,6.7c-0.3,1.9-1.4,3.8-3.3,5.8c-1.9,2-4.4,3-7.6,3c-1.5,0-2.9-0.5-4.2-1.7
	c-1.2-1-1.9-2.6-1.9-4.2c0-1.4,0.7-2.5,2-3.4s2.2-1,2.5-0.1c0.5,0.7,0.4,1.2-0.4,1.7c-0.7,0.4-1.2,1.1-1.1,1.9c0,0.7,0.3,1.4,1,2
	c0.6,0.6,1.4,1,2.3,1c1.2,0,2.1-0.6,2.8-1.9c0.7-1.3,0.9-2.4,0.8-3.4c-0.8,0-1.5-0.3-2-0.9c-0.5-0.5-0.8-1.2-0.8-1.9
	c0.3-2.2,0.9-3.7,1.8-4.6c0.8-0.7,1.8-0.8,2.9-0.5c1.1,0.3,2.1,0.7,2.9,1c0.7-1.2,1-2.5,0.9-3.8c-0.1-1.2-0.3-2.4-0.6-3.6
	c-2.5-0.8-4.9-1.9-7.1-3.4c-2.1-1.5-4-3.1-5.8-5c0.3,1.9,0.1,3.3-0.6,4.2c-0.8,0.9-1.6,1-2.7,0.1c0,0.2,0,0.6-0.1,1.3
	c-0.1,0.7-0.3,1.4-0.5,2c-0.2,0.6-0.5,1.2-0.9,1.8c-0.3,0.5-0.8,0.6-1.5,0.3c-0.5,0.8-0.5,1.7,0,2.4s1.2,1.1,2,0.9
	c1.9,0,2.4-1.1,1.5-3.3c-0.2-0.3,0.2-0.5,1-0.6c0.8-0.1,1.4,0,1.5,0.4c0.5,0.9,0.7,1.8,0.8,2.8c0,0.8-0.4,1.7-1.3,2.4
	c-0.8,0.7-1.8,1.1-2.8,1.1c-1.5,0-2.9-0.6-4.1-1.8c-1.2-1.2-1.7-2.8-1.5-4.8c-0.9-0.3-1.2-0.9-1.1-1.8c0.1-0.9,0.4-1.7,0.8-2.5
	c0.4-0.8,0.9-1.6,1.4-2.3c0.3-0.4,0.6-0.9,1-1.3c-1.2-0.5-1.9-1.1-2.2-1.8c-0.3-0.7-0.1-1.4,0.4-2c0.6-0.7,1.3-1.3,2.2-1.7
	c1-0.4,2.1-0.6,3.2-0.4c-1.5-1.4-2.9-3.3-4.1-5.7c-1.2-2.5-1.7-4.2-1.5-5.2c1-0.2,2.8,0.3,5.2,1.5c2.5,1.2,4.4,2.5,6,3.8
	c-0.3-2.4,0.3-4.1,1.9-5.2c1.6-1.1,2.8-0.5,3.7,1.9c0.4-0.4,0.8-0.7,1.3-1c0.7-0.5,1.5-1,2.3-1.4c0.8-0.4,1.7-0.6,2.5-0.6
	c0.8,0,1.4,0.3,1.8,1c2-0.3,3.6,0.1,4.8,1.3c1.2,1.2,1.8,2.5,1.8,4.1c0,1.1-0.4,2.2-1.1,3c-0.8,0.8-1.6,1.3-2.4,1.3
	c-0.5,0-1-0.1-1.4-0.3c-0.5-0.2-1-0.5-1.4-0.8c-0.3-0.2-0.5-0.6-0.4-1.4s0.3-1.1,0.6-0.9c1,0.3,1.8,0.3,2.4,0
	c0.6-0.3,0.9-0.9,0.9-1.8c0.2-0.8-0.2-1.6-0.9-1.9c-0.8-0.4-1.6-0.4-2.4,0.1c0.2,0.7,0,1.2-0.4,1.5c-0.5,0.4-1.1,0.6-1.7,0.8
	c-0.7,0.2-1.3,0.3-2,0.4c-0.7,0.1-1.1,0.1-1.3,0.1c0.8,1.2,0.8,2.2-0.1,2.9c-0.9,0.8-2.3,1-4.2,0.6c1.8,1.8,3.5,3.8,5,5.8
	c1.5,2.1,2.6,4.4,3.4,6.9c1.2,0.4,2.3,0.6,3.6,0.6c1.3,0.1,2.6-0.1,3.8-0.6c-0.3-0.8-0.7-1.8-1-2.9c-0.4-1-0.2-2.1,0.5-2.9
	c1-1.2,2.5-1.8,4.6-1.8c0.7-0.2,1.3,0,1.9,0.6c0.6,0.6,0.9,1.3,0.9,2.2c1.2,0,2.5-0.3,3.6-0.9c1.2-0.6,1.8-1.5,1.8-2.7
	c0-0.9-0.4-1.7-1-2.3c-0.7-0.7-1.4-1-2-1c-0.8,0-1.6,0.4-1.9,1.1c-0.4,0.8-1,0.9-1.7,0.4c-0.8-0.5-0.8-1.4,0.1-2.7
	c0.9-1.3,2.1-1.9,3.4-1.9c1.6,0,3.2,0.7,4.2,1.9c1.1,1.3,1.6,2.7,1.7,4.2C125.5,95.9,124.5,98.4,122.4,100.2z M124.1,165.8
	c-1,1.2-2.4,1.9-4.1,2c-1.4,0-2.5-0.7-3.4-2s-1-2.3-0.1-2.8c0.7-0.3,1.2-0.1,1.7,0.6c0.4,0.7,1.1,1.2,1.9,1.1c0.7,0,1.3-0.3,1.9-1
	c0.6-0.7,0.9-1.6,0.9-2.5c0-1.2-0.6-2.1-1.8-2.7s-2.3-0.8-3.3-0.6c-0.3,1.9-1.4,2.8-3,2.8c-2.2-0.3-3.6-1-4.3-2
	c-0.7-0.7-0.9-1.6-0.6-2.8c0.2-1.1,0.6-2.1,1.1-3c-1.2-0.5-2.6-0.7-3.9-0.6c-1.4,0.1-2.6,0.3-3.4,0.6c-0.7,2.5-1.9,4.9-3.4,7
	c-1.5,2.1-3.2,4.1-5,6c1.9-0.5,3.2-0.3,4.1,0.5c0.8,0.8,0.8,1.8,0,2.8c0.2,0,0.6,0,1.3,0.1c0.7,0.1,1.4,0.2,2,0.4
	c0.6,0.1,1.2,0.4,1.7,0.9c0.4,0.4,0.5,1,0.4,1.7c0.8,0.3,1.7,0.3,2.4-0.1c0.7-0.4,1.2-1.1,1.1-1.9c0-0.8-0.3-1.4-0.9-1.8
	s-1.4-0.3-2.4,0c-0.3,0.2-0.6-0.1-0.6-0.9c-0.1-0.8,0-1.2,0.4-1.4c0.9-0.5,1.8-0.7,2.8-0.8c0.8,0,1.6,0.4,2.3,1.1
	c0.7,0.8,1.1,1.8,1,2.9c0,1.5-0.6,2.9-1.8,4.1c-1.2,1.2-2.7,1.6-4.6,1.3c-0.5,0.9-1.1,1.2-1.9,1.1c-0.9-0.1-1.7-0.4-2.5-0.8
	c-0.9-0.4-1.7-0.8-2.4-1.4c-0.7-0.5-1.1-0.8-1.3-0.8c-0.5,1.2-1.1,1.9-1.8,2c-0.7,0.2-1.4,0-1.9-0.4c-0.6-0.4-1.1-1.1-1.5-2
	c-0.4-1-0.6-2.1-0.4-3.2c-1.4,1.4-3.3,2.7-5.7,3.9c-2.5,1.3-4.2,1.7-5.2,1.4c-0.3-1,0.1-2.8,1.4-5.2c1.3-2.5,2.6-4.4,3.9-5.7
	c-1.1,0.2-2.2,0.1-3.2-0.4c-0.9-0.4-1.6-0.9-2-1.5c-0.4-0.5-0.6-1.2-0.4-1.9c0.2-0.7,0.8-1.3,2-1.8c-0.4-0.4-0.7-0.9-1-1.4
	c-0.5-0.8-0.9-1.6-1.3-2.4c-0.3-0.8-0.5-1.6-0.6-2.4c-0.1-0.8,0.3-1.4,1.1-1.9c-0.3-1.9,0.1-3.4,1.3-4.7c1.2-1.3,2.5-1.9,4.1-1.9
	c1.1,0,2.1,0.4,2.9,1.1c0.8,0.8,1.1,1.6,1.1,2.4c0,1-0.3,1.9-0.8,2.8c-0.2,0.3-0.6,0.5-1.4,0.4c-0.8-0.1-1.1-0.3-0.9-0.6
	c0.5-2.2-0.1-3.3-1.8-3.3c-0.8,0-1.6,0.4-2,1.1c-0.5,0.8-0.5,1.6,0,2.4c0.7-0.2,1.2,0,1.7,0.4c0.4,0.5,0.7,1,0.9,1.6
	c0.2,0.7,0.3,1.3,0.4,2c0.1,0.7,0.1,1.1,0.1,1.3c1-0.8,1.9-0.8,2.8,0c0.8,0.8,1,2.2,0.5,4.1c1.8-1.8,3.7-3.4,5.8-4.8
	c2.2-1.5,4.6-2.6,7.1-3.6c0.3-0.8,0.5-2,0.6-3.4c0.1-1.4-0.2-2.7-0.9-3.9c-0.9,0.3-1.8,0.7-2.9,1c-1.1,0.3-2,0.2-2.7-0.5
	c-1-0.8-1.7-2.3-2-4.3c0-1.7,0.9-2.7,2.8-3c0.2-1-0.1-2.2-0.8-3.4c-0.7-1.3-1.5-1.9-2.5-1.9c-0.9,0-1.9,0.3-2.5,1
	c-0.7,0.7-1,1.4-1,2c0,0.8,0.4,1.5,1.1,1.9c0.8,0.4,1,1,0.6,1.6c-0.5,0.9-1.4,0.8-2.8-0.1c-1.4-0.9-2-2.1-2-3.4
	c-0.1-1.6,0.7-3.1,1.9-4.1c1.2-1,2.7-1.6,4.2-1.8c3.4,0,6,1,7.7,3c1.8,2,2.8,4.1,3.2,6.1c0.5,2.2,0.8,4.4,0.9,6.6
	c0.1,2,0,4.1-0.4,6.1c4.1-0.8,8.3-0.8,12.7,0.3c2,0.5,4.1,1.6,6.1,3.4s3.1,4.3,3.1,7.5C125.7,163.1,125.1,164.6,124.1,165.8z
	 M116.7,206.5c-3.2-0.2-6.5,0-9.6,0.5c-3.1,0.5-6.2,0.9-9.4,1c-4.6,0-8.4-1.4-11.4-4.2c-3-2.8-4.7-6.4-4.8-10.8
	c0-2.6,0.2-5.2,0.6-7.7c0.4-2.6,1.3-5,2.7-7.2c0.4-0.4,0.7-0.7,1-1.1c0.3-0.4,0.8-0.6,1.3-0.6c0.8,0,1.5,0.2,2,0.8
	c2.4-0.3,4.8,0,7.2,1c2.5,1,3.9,3.1,4.2,6.3c0.2,1.9-0.3,3.3-1.5,4.4c-1.2,1.1-2.5,1.6-3.8,1.6c-0.9,0-1.8-0.4-2.3-1.3
	c-0.5-0.8-0.7-1.6-0.8-2.5c0-1,0.3-1.5,1-1.5c0.8-0.3,1.4-0.1,1.8,0.8c0.1,0.3,0.3,0.6,0.4,0.9c0.1,0.3,0.3,0.5,0.6,0.6
	c0.6,0,1.2-0.3,1.5-0.9c0.3-0.6,0.5-1.2,0.5-1.9c0-1.4-0.5-2.4-1.4-3c-1-0.7-2.2-1.1-3.4-1c-2.5-0.2-4.9,0.8-7,2.9
	c-2.1,2.1-3.3,4.9-3.4,8.3h1c0.4-0.5,0.8-1.1,1.3-1.5c0.4-0.5,1.1-0.7,1.8-0.5c0.8,0,1.7,0.3,2.3,0.9c0.6,0.5,1,1.3,1,2.2
	c0,0.9-0.3,1.8-1,2.4c-0.6,0.6-1.4,0.9-2.3,0.9c-1.7,0-2.7-0.8-3-2.3h-1c0.3,3.9,2,7,5.1,9.4s6.6,3.4,10.7,3c0.3,0,0.5-0.2,0.4-0.6
	c0-0.3-0.2-0.6-0.4-0.9c-0.7-0.7-1.6-1.3-2.5-1.8c-1-0.5-1.4-1.3-1-2.3c0.2-0.8,0.5-1.4,1-1.5c0.6-0.2,1.2-0.3,1.8-0.3
	c0.6,0,1.2,0,1.8,0.1c0.5,0.1,0.9,0,1.3-0.4c0.2-0.2,0.3-0.6,0.5-1.4s0.4-1.6,0.6-2.4c0.3-0.9,0.6-1.7,1.1-2.4
	c0.5-0.8,1.4-1.3,2.5-1.7c0.8-0.2,1.6,0,2.2,0.5c0.6,0.5,0.9,1.3,0.9,2c0.2,0.4,0.1,0.9-0.1,1.3c-0.2,0.3-0.5,0.5-0.9,0.5
	c-0.8,0.3-1.3,0.2-1.4-0.4c-0.1-0.6-0.3-0.9-0.6-0.9c-0.8,0.2-1.3,1.1-1.3,2.8c0,1.7-0.2,3-0.5,3.8c-0.5,1.8-1.7,3.4-3.3,4.3
	c-0.2,0.2-0.3,0.5-0.3,1c0,0.2,0.1,0.5,0.4,0.5c0,0,0.1,0,0.1,0c0.9,0,1.7-0.2,2.5-0.5c1-0.3,1.8-0.8,2.5-1.5c0.7-0.8,1.6-2,2.9-3.4
	c1.3-1.4,2.6-2.4,3.9-2.9c1.7-0.8,2.7-0.8,3,0.3c0,0.4-0.2,0.8-0.5,1.1c-0.3,0.4-0.5,1-0.5,1.9c0.9-0.6,2-1.1,3-1.5
	c2.4-0.3,3,0.8,1.8,3.3c1.2,0.3,2.4,0.8,3.4,1.5c0.9,0.7,1.3,1.7,1.1,3C122.1,206.8,119.6,206.5,116.7,206.5z M123.7,49.6
	c-1,0.7-2.2,1.2-3.4,1.5c1.2,2.5,0.6,3.6-1.8,3.3c-1-0.2-2-0.7-3-1.5c0,0.8,0.2,1.5,0.5,1.9c0.3,0.3,0.5,0.7,0.5,1.1
	c-0.3,1-1.4,1.1-3,0.3c-1.4-0.5-2.7-1.5-3.9-2.9c-1.3-1.4-2.2-2.6-2.9-3.4c-0.7-0.7-1.6-1.2-2.5-1.5c-0.8-0.3-1.7-0.5-2.5-0.5
	c-0.3,0-0.6,0.2-0.6,0.6c-0.1,0.4,0,0.7,0.4,0.9c1.6,0.9,2.8,2.5,3.3,4.3c0.3,0.8,0.5,2.1,0.5,3.8c0,1.7,0.4,2.5,1.3,2.5
	c0.3,0.2,0.5,0,0.6-0.6c0.1-0.6,0.6-0.7,1.4-0.4c0.4,0,0.7,0.2,0.9,0.5c0.3,0.4,0.3,0.9,0.1,1.3c0,0.8-0.3,1.5-0.9,2
	c-0.6,0.5-1.4,0.7-2.2,0.5c-1.2-0.2-2-0.7-2.5-1.5c-0.5-0.8-0.9-1.6-1.1-2.5c-0.3-0.8-0.5-1.7-0.6-2.4c-0.1-0.6-0.3-1.1-0.5-1.7
	c-0.4-0.2-0.8-0.2-1.3-0.1c-0.6,0.1-1.2,0.1-1.8,0.1c-0.6,0-1.2-0.1-1.8-0.3c-0.5-0.2-0.8-0.7-1-1.5c-0.3-1,0-1.8,1-2.3
	c0.9-0.4,1.7-0.9,2.5-1.5c0.2-0.4,0.3-0.7,0.4-1.1c0.1-0.4,0-0.6-0.4-0.6c-4.1-0.3-7.6,0.7-10.7,3c-3,2.4-4.7,5.5-5.1,9.4h1
	c0.3-1.5,1.4-2.3,3-2.3c0.8,0,1.7,0.3,2.3,0.9c0.7,0.6,1.1,1.5,1,2.4c0,0.8-0.4,1.6-1,2.2c-0.6,0.6-1.4,0.9-2.3,0.9
	c-0.6,0.2-1.3,0-1.8-0.5c-0.5-0.5-0.9-1-1.3-1.5h-1c0.2,3.4,1.3,6.1,3.4,8.3s4.4,3.1,7,2.9c1.3,0,2.5-0.3,3.6-1c1-0.7,1.4-1.7,1.3-3
	c0-0.7-0.2-1.3-0.5-1.9c-0.3-0.6-0.9-0.9-1.5-0.9c-0.3,0.2-0.7,0.8-1,1.8c-0.3,0.7-0.9,0.8-1.8,0.5c-0.7,0-1-0.5-1-1.5
	c0-0.9,0.3-1.8,0.8-2.5c0.5-0.8,1.3-1.3,2.3-1.3c1.4,0,2.6,0.6,3.8,1.6c1.2,1.1,1.7,2.6,1.5,4.4c-0.3,3.2-1.7,5.3-4.2,6.3
	c-2.5,1-4.9,1.4-7.2,1c-0.5,0.5-1.3,0.8-2,0.8c-0.5,0.2-1,0-1.4-0.5c-0.4-0.5-0.8-0.9-1.1-1.3c-1.2-2.3-2-4.7-2.4-7.2
	c-0.4-2.6-0.6-5.1-0.6-7.7c0.2-4.4,1.8-8,4.8-10.8c3.1-2.8,6.9-4.2,11.4-4.2c3.1,0.2,6.3,0.5,9.4,1c3.2,0.5,6.4,0.7,9.7,0.5
	c2.9,0,5.3-0.3,7.4-1C125,47.9,124.6,48.9,123.7,49.6z M92.7,89.8c-3.1-3.3-6.5-5.6-10-7c1.4,3.7,3.6,7.2,6.9,10.3
	c3.1,3.1,6.7,5.6,10.7,7.5C98.3,96.6,95.8,93,92.7,89.8C92.7,89.8,92.7,89.8,92.7,89.8z M89.8,161.3c-3.2,3.2-5.5,6.6-6.9,10.2
	c3.7-1.4,7.1-3.7,10.2-7c3-3.2,5.5-6.8,7.4-10.8C96.5,155.6,92.9,158.1,89.8,161.3L89.8,161.3z M123.6,236.8
	c-0.5,3.2-0.8,6.5-0.8,9.8c0,1.3,0.1,2.5,0.3,3.8c0.2,1.2,0.4,2.4,0.8,3.6c-1.1,0.2-2.2-0.2-2.9-1.1c-0.8-1-1.3-2.2-1.4-3.4
	c-1.4,0.7-2.3,0.8-2.8,0.3c-0.5-0.5-0.7-1.2-0.5-2c0-0.6,0.1-1.1,0.4-1.6c0.3-0.4,0.5-1,0.9-1.6c-0.6,0.1-1.2,0.4-1.7,0.8
	c-0.4,0.3-0.8,0.4-1.1,0.3c-1-0.2-1.1-1.1-0.3-2.8c0.5-1.4,1.4-2.7,2.8-3.9c1.4-1.3,2.5-2.3,3.3-3.2c0.7-0.5,1.2-1.3,1.7-2.4
	c0.4-1.1,0.6-2,0.4-2.7c0-0.2-0.2-0.3-0.6-0.4c-0.4-0.1-0.7,0-0.9,0.4c-1.2,1.7-2.5,2.8-4.1,3.3c-1,0.3-2.4,0.5-4.1,0.5
	c-1.7,0-2.5,0.4-2.5,1.3c0,0.3,0.3,0.5,0.8,0.5s0.7,0.4,0.5,1.3c0,1.2-0.6,1.6-1.8,1.3c-0.8-0.1-1.5-0.5-2-1.1
	c-0.5-0.5-0.7-1.2-0.5-1.9c0.2-1.2,0.7-2.1,1.5-2.7c0.8-0.6,1.6-1,2.5-1.3c0.8-0.2,1.6-0.4,2.4-0.5c0.8-0.1,1.2-0.3,1.4-0.6
	c0.2-0.2,0.2-0.5,0.1-1.1c-0.1-0.5-0.1-1.1-0.1-1.7c0-0.6,0.1-1.2,0.3-1.8c0.2-0.5,0.7-0.8,1.5-1c1.2-0.3,2,0,2.5,0.9
	c0.4,0.8,1,1.6,1.5,2.4c0.3,0.3,0.6,0.5,1,0.5c0.5,0,0.8-0.2,0.8-0.5c0.3-4.1-0.7-7.6-3-10.5c-2.4-3-5.5-4.6-9.4-5v0.8
	c1.5,0.7,2.3,1.8,2.3,3.3c0,0.8-0.4,1.6-1,2.2c-1.3,1.2-3.3,1.2-4.6,0c-0.6-0.5-1-1.3-1-2.2c0-1.7,0.8-2.7,2.3-3v-1.3
	c-3.4,0.3-6.2,1.6-8.4,3.7c-2.2,2.1-3.2,4.4-3,7c0.2,1.2,0.6,2.3,1.3,3.3c0.7,1,1.7,1.5,3,1.5c0.7,0,1.3-0.2,1.9-0.5
	c0.6-0.3,0.8-0.9,0.6-1.8c0-0.3-0.2-0.6-0.5-0.6c-0.4-0.1-0.7-0.2-1-0.4c-0.5-0.2-0.8-0.7-0.8-1.5c0.2-0.7,0.8-1,1.8-1
	c2.2-0.3,3.5,0.7,3.8,3c0,1.4-0.6,2.6-1.7,3.7c-1.1,1.1-2.6,1.6-4.4,1.4c-3.4-0.3-5.5-1.7-6.5-4.2c-0.9-2.3-1.2-4.8-0.9-7.2
	c-0.7-0.3-1-1-1-2c0-0.8,0.7-1.6,2-2.3c2.2-1.2,4.6-2.1,7.1-2.4c2.6-0.4,5.2-0.6,7.9-0.6c4.4,0.2,8,1.7,10.8,4.7
	c2.8,3,4.1,6.7,3.9,11.3C124.3,230.5,124.1,233.7,123.6,236.8L123.6,236.8z M121.2,38c-2.8,3-6.4,4.5-10.8,4.7
	c-2.6,0-5.3-0.2-7.9-0.6c-2.5-0.3-4.9-1.2-7.1-2.4c-1.4-0.7-2-1.4-2-2.3c0-1,0.3-1.7,1-2c-0.3-2.4,0-4.9,0.9-7.2
	c0.9-2.5,3.1-3.9,6.5-4.2c1.9-0.3,3.3,0.1,4.4,1.3c1.1,1.2,1.7,2.5,1.7,3.8c-0.1,1-0.6,1.8-1.4,2.4c-0.7,0.6-1.6,0.8-2.4,0.6
	c-1,0-1.6-0.3-1.8-1c0-0.6,0.3-1.2,0.8-1.5c0.3-0.2,0.7-0.3,1-0.4c0.3,0,0.5-0.3,0.5-0.6c0.2-0.8,0-1.4-0.6-1.6
	c-0.6-0.3-1.3-0.5-1.9-0.6c-1.4,0-2.4,0.5-3,1.5c-0.7,1-1.1,2.1-1.3,3.3c-0.2,2.5,0.8,4.9,2.9,7c2.1,2.1,5,3.3,8.5,3.7v-1.3
	c-1.5-0.3-2.3-1.4-2.3-3c0-0.8,0.4-1.6,1-2.2c0.6-0.6,1.4-0.9,2.3-0.9c0.8,0,1.6,0.3,2.2,0.9c0.6,0.6,1,1.3,1.1,2.2
	c0,1.7-0.8,2.8-2.5,3.3l0.3,0.8c3.9-0.3,7-2,9.4-4.9c2.4-3,3.4-6.5,3-10.5c0-0.3-0.3-0.5-0.8-0.5c-0.4,0-0.8,0.2-1,0.5
	c-0.6,0.8-1.1,1.6-1.5,2.4c-0.5,0.9-1.4,1.2-2.5,0.9c-0.8-0.2-1.4-0.5-1.5-1c-0.2-0.5-0.3-1-0.3-1.5c0-0.6,0-1.3,0.1-1.9
	c0.1-0.6,0-1-0.1-1.1c-0.2-0.2-0.6-0.3-1.4-0.5s-1.6-0.4-2.4-0.6c-0.9-0.3-1.8-0.7-2.5-1.3c-0.8-0.6-1.4-1.5-1.5-2.7
	c-0.2-0.7,0-1.4,0.5-1.9c0.5-0.6,1.2-1,2-1.1c1.2-0.3,1.8,0.1,1.8,1.3c0.2,0.9,0,1.3-0.5,1.3c-0.5,0-0.8,0.2-0.8,0.5
	c0,0.8,0.8,1.3,2.5,1.3c1.7,0,3,0.2,4.1,0.5c1.5,0.5,2.9,1.6,4.1,3.3c0.2,0.3,0.5,0.5,0.9,0.4c0.4-0.1,0.6-0.2,0.6-0.4
	c0.2-0.7,0-1.6-0.4-2.7c-0.4-1.1-1-1.9-1.7-2.4c-0.8-0.8-1.9-1.9-3.3-3.2c-1.4-1.3-2.3-2.6-2.8-3.9c-0.9-1.5-0.8-2.5,0.3-2.8
	c0.3-0.2,0.7-0.1,1.1,0.3c0.5,0.4,1.1,0.6,1.7,0.8c-0.3-0.7-0.6-1.2-0.9-1.6C117.1,7.5,117,7,117,6.4c-0.2-0.8,0-1.5,0.5-2
	c0.5-0.5,1.4-0.4,2.8,0.3c0.1-1.3,0.6-2.4,1.4-3.4c0.7-0.9,1.8-1.3,2.9-1.1c-0.3,1.2-0.6,2.4-0.8,3.6c-0.2,1.3-0.3,2.5-0.3,3.8
	c0,3.3,0.2,6.5,0.8,9.8c0.5,3.1,0.8,6.3,0.8,9.5C125.3,31.3,124,35,121.2,38z M123.4,119.4c-0.4,0.7-1,1.2-1.7,1.5
	c1,1,1.4,1.8,1.3,2.3c-0.3,0.3-1.2,0-2.5-1c-1,1.5-2.3,2.2-3.8,2c-0.9-0.3-1.4-1.2-1.7-2.5c-0.2-1.3-0.6-2.6-1.1-3.8
	c0.3,2.2,0.1,3.9-0.6,5.1c-0.8,1.2-1.6,1.1-2.7-0.3c-0.7,0.7-1.8,0.8-3.3,0.5c-1-0.3-1.8-1-2.3-1.9c-0.5-0.9-0.6-1.8-0.3-2.7
	c0-0.3,0.3-0.5,0.8-0.5c0.7,0,1,0.2,1,0.5c0.4,0.4,0.6,0.9,0.8,1.4c0.2,0.6,0.5,0.9,1,0.9c1.9,0,2.8-1.4,2.8-4.1
	c-0.1-1-0.4-2.1-0.8-3c-0.3-0.8-0.7-1.5-1.1-2.2c-0.4-0.4-0.6-1-0.8-1.5c-0.1-0.4,0.1-0.9,0.4-1.1c0.7-0.7,1.5-0.5,2.5,0.5
	s2.7,1.6,5.1,1.8c1.4,0.2,2.4,0,3-0.6c0.6-0.5,1-1.3,1-2.2c0-0.5-0.3-0.8-0.9-1c-0.5-0.1-0.9-0.3-1.4-0.5c-0.3-0.2-0.5-0.5-0.5-1
	s0.2-0.8,0.5-1c0.9-0.3,2-0.2,2.8,0.4c0.8,0.5,1.4,1.3,1.8,2.2c0.3,1.5,0.2,2.7-0.5,3.6c1.4,0.8,1.4,1.7,0.3,2.4
	c-1.2,0.8-2.9,1-5.1,0.6c1.2,0.5,2.5,1,3.8,1.3c1.4,0.3,2.2,0.9,2.5,1.8C124,117.9,123.9,118.7,123.4,119.4L123.4,119.4L123.4,119.4
	z M121.7,138.8c-1.4,0.2-2.7,0.7-3.9,1.4c2.2-0.3,3.9-0.1,5.1,0.6s1.1,1.6-0.3,2.4c0.8,0.8,1.1,1.9,0.8,3.3c-0.3,1-1,1.9-1.9,2.4
	c-0.9,0.6-1.9,0.7-2.9,0.4c-0.3-0.2-0.5-0.5-0.5-1s0.2-0.8,0.5-1c0.5-0.2,1-0.3,1.5-0.5c0.5-0.1,0.8-0.5,0.8-1
	c0-2.2-1.3-3.1-3.8-2.8c-2.4,0.2-4.1,0.8-5.2,1.8c-1.1,1-2,1.2-2.7,0.5c-0.3-0.3-0.4-0.7-0.3-1.1c0.2-0.5,0.5-1,0.8-1.5
	c0.3-0.6,0.7-1.3,1.1-2.2c0.4-1,0.7-2,0.6-3c0-2.5-0.9-3.8-2.8-3.8c-0.7,0-1.1,0.3-1.3,0.8c-0.2,0.5-0.3,1-0.5,1.5
	c-0.2,0.3-0.5,0.5-1,0.5s-0.8-0.2-0.8-0.5c-0.3-1-0.3-2,0.3-2.9c0.5-0.9,1.3-1.6,2.3-1.9c1.5-0.3,2.6-0.1,3.3,0.8
	c1-1.4,1.9-1.4,2.7-0.3c0.8,1.2,1,2.8,0.6,4.8c0.6-1.2,0.9-2.4,1.1-3.7c0.3-1.4,0.8-2.2,1.7-2.4c0.8-0.3,1.6-0.3,2.3,0.1
	c0.6,0.4,1.2,1,1.5,1.6c1.4-1,2.2-1.4,2.5-1c0.5,0.2,0.1,0.9-1.3,2.3c1.7,0.8,2.4,2.1,2,3.8C123.9,138,123.1,138.5,121.7,138.8z
	 M116.5,114.9c-1.4-1.1-2.7-1.8-4.1-2.2c0.4,1.5,1.1,2.8,2.2,3.9c1.1,1.3,2.6,2.1,4.4,2.4C118.7,117.5,117.8,116,116.5,114.9z
	 M114.8,137.5c-1,1.1-1.8,2.5-2.2,3.9c1.6-0.4,3-1.1,4.2-2.2c1.3-1.1,2.1-2.6,2.4-4.2C117.4,135.5,115.9,136.3,114.8,137.5z
	 M173.1,108.6c-1.2,1.3-2.5,1.9-4.1,1.9c-1.1,0-2.1-0.4-2.9-1.1c-0.8-0.8-1.1-1.6-1.1-2.4c0-1,0.3-1.9,0.8-2.8
	c0.2-0.3,0.6-0.5,1.4-0.4c0.8,0.1,1.1,0.3,0.9,0.6c-0.5,2.2,0.1,3.3,1.8,3.3c0.8,0,1.6-0.4,2-1.1c0.5-0.8,0.5-1.6,0-2.4
	c-0.7,0.3-1.2,0.3-1.7-0.3c-0.4-0.5-0.7-1.1-0.9-1.8c-0.2-0.7-0.3-1.3-0.4-2c-0.1-0.7-0.1-1.1-0.1-1.3c-1,0.8-1.9,0.8-2.8,0
	s-1-2.2-0.5-4.1c-1.8,1.8-3.7,3.4-5.8,4.8c-2.2,1.5-4.6,2.6-7.1,3.6c-0.3,0.8-0.6,2-0.6,3.4c-0.1,1.4,0.2,2.7,0.9,3.9
	c0.8-0.3,1.8-0.7,2.9-1c1-0.4,2.1-0.2,2.9,0.5c0.8,0.8,1.4,2.3,1.8,4.3c0,1.7-0.9,2.7-2.8,3c-0.2,1,0.1,2.1,0.8,3.3
	c0.7,1.2,1.5,1.8,2.5,1.8c0.9,0,1.8-0.3,2.5-0.9c0.7-0.6,1-1.2,1-1.9c0-0.8-0.4-1.5-1.1-1.9c-0.8-0.4-1-1-0.6-1.7
	c0.5-0.8,1.4-0.8,2.8,0.1c1.4,0.9,2,2.1,2,3.4c0,1.7-0.6,3-1.9,4.1c-1.2,1-2.7,1.6-4.2,1.8c-3.4,0-6-1-7.7-3c-1.8-2-2.8-4.1-3.2-6.1
	c-0.5-2.2-0.8-4.4-0.9-6.6c-0.1-2,0-4.1,0.4-6.1c-4.1,0.8-8.3,0.8-12.7-0.3c-2-0.5-4.1-1.6-6.1-3.4c-2-1.8-3-4.3-3-7.5
	c0-1.6,0.6-3.2,1.6-4.3c1.1-1.2,2.6-1.9,4.2-2c1.4,0,2.5,0.7,3.4,2c0.9,1.4,1,2.3,0.1,2.8c-0.7,0.3-1.2,0.1-1.7-0.6
	c-0.4-0.7-1.1-1.2-1.9-1.1c-0.7,0-1.3,0.3-1.9,1c-0.6,0.7-0.9,1.6-0.9,2.5c0,1.2,0.6,2.1,1.8,2.7c1.2,0.6,2.3,0.8,3.3,0.6
	c0.3-1.9,1.4-2.8,3-2.8c2.2,0.3,3.6,1,4.3,2c0.7,0.7,0.9,1.6,0.6,2.8c-0.2,1.1-0.6,2.1-1.1,3c1.2,0.5,2.6,0.7,3.9,0.6
	c1.4-0.1,2.6-0.3,3.4-0.6c0.8-2.4,2-4.8,3.4-6.9c1.5-2.1,3.2-4.2,4.9-6.1c-1.9,0.5-3.2,0.3-4.1-0.5c-0.8-0.8-0.8-1.8,0-2.8
	c-0.2,0-0.6,0-1.3-0.1c-0.7-0.1-1.4-0.2-2-0.4c-0.7-0.2-1.3-0.5-1.8-0.9c-0.5-0.4-0.6-1-0.3-1.7c-0.8-0.3-1.7-0.3-2.4,0.1
	c-0.7,0.4-1.2,1.1-1.1,1.9c0,0.8,0.3,1.4,0.9,1.8s1.4,0.3,2.4,0c0.3-0.2,0.5,0.1,0.6,0.9s0,1.2-0.4,1.4c-0.9,0.5-1.8,0.7-2.8,0.8
	c-0.9,0-1.6-0.4-2.3-1.1s-1-1.7-1-2.9c0-1.5,0.6-2.9,1.8-4.1c1.2-1.2,2.7-1.6,4.6-1.3c0.5-0.7,1.1-1,1.8-1c0.9,0,1.8,0.2,2.7,0.6
	c0.9,0.4,1.7,0.8,2.4,1.4c0.7,0.5,1.1,0.8,1.3,0.8c0.5-1.2,1.1-1.9,1.8-2c0.7-0.2,1.4,0,1.9,0.4c0.6,0.4,1.1,1.1,1.5,2
	c0.4,1,0.6,2.1,0.4,3.2c1.4-1.3,3.3-2.7,5.7-3.9c2.5-1.3,4.2-1.7,5.2-1.4c0.3,1-0.1,2.8-1.4,5.2c-1.3,2.5-2.6,4.4-3.9,5.7
	c1.1-0.2,2.2,0,3.2,0.4c0.9,0.4,1.6,0.9,2,1.5c0.4,0.5,0.6,1.2,0.4,1.9c-0.2,0.7-0.8,1.3-2,1.8c0.3,0.5,0.6,1,1,1.5
	c0.5,0.7,0.9,1.5,1.3,2.3c0.3,0.8,0.5,1.7,0.6,2.5c0.1,0.8-0.3,1.4-1.1,1.8C174.7,105.8,174.3,107.3,173.1,108.6z M169.7,173
	c-2.5-1.2-4.4-2.5-6-4.1c0.2,2.4-0.5,4.1-2,5.3c-1.5,1.2-2.7,0.6-3.6-1.8c-0.4,0.4-0.8,0.7-1.3,1c-0.7,0.5-1.5,1-2.3,1.4
	c-0.8,0.4-1.7,0.7-2.5,0.8c-0.9,0.1-1.4-0.3-1.8-1.1c-2,0.3-3.6-0.1-4.8-1.3c-1.2-1.2-1.8-2.5-1.8-4.1c0-1.1,0.4-2.2,1.1-3
	c0.8-0.8,1.6-1.3,2.4-1.3c0.5,0,1,0.1,1.4,0.3c0.5,0.2,1,0.5,1.4,0.8c0.3,0.2,0.5,0.6,0.4,1.4c-0.1,0.8-0.3,1.1-0.6,0.9
	c-2.2-0.7-3.3-0.1-3.3,1.8c-0.2,0.8,0.2,1.6,0.9,1.9c0.8,0.4,1.6,0.4,2.4-0.1c-0.3-0.7-0.3-1.2,0.3-1.5c0.5-0.4,1.1-0.6,1.8-0.8
	c0.7-0.2,1.3-0.3,2-0.4c0.5-0.1,1-0.1,1.5-0.1c-1-1.2-1.1-2.2-0.1-2.9c0.9-0.8,2.3-1,4.2-0.6c-1.8-1.8-3.5-3.8-5-5.8
	c-1.5-2.1-2.6-4.4-3.4-6.9c-1.2-0.4-2.3-0.6-3.6-0.6c-1.3-0.1-2.6,0.1-3.8,0.6c0.3,0.8,0.7,1.8,1,2.9c0.3,1.1,0.2,2.1-0.5,2.9
	c-1,1.2-2.5,1.8-4.6,1.8c-1.5,0.3-2.5-0.6-2.8-2.8c-1.2,0-2.5,0.3-3.6,0.9c-1.2,0.6-1.8,1.5-1.8,2.7c0,0.9,0.4,1.7,1,2.3
	c0.7,0.7,1.4,1,2,1c0.8,0,1.5-0.4,1.9-1c0.4-0.7,1-0.8,1.7-0.5c0.8,0.5,0.8,1.4-0.1,2.8c-0.9,1.4-2.1,2-3.4,1.8
	c-1.6,0-3.2-0.7-4.2-1.9c-1.1-1.1-1.6-2.6-1.7-4.2c-0.2-3.2,0.8-5.7,2.9-7.5c2.1-1.8,4.2-2.8,6.2-3.2c4.7-1,8.9-1.2,12.4-0.5
	c-0.3-2-0.5-4-0.4-6.1c0.1-2.2,0.4-4.4,0.9-6.6c0.3-2,1.4-4.1,3.3-6.2c1.9-2.1,4.4-3.1,7.6-2.9c1.5,0,2.9,0.6,4.2,1.6
	c1.2,1,1.9,2.6,1.9,4.2c0,1.4-0.7,2.5-2,3.4c-1.4,0.9-2.2,1-2.5,0.1c-0.5-0.7-0.4-1.2,0.4-1.7c0.7-0.4,1.2-1.1,1.1-1.9
	c0-0.7-0.3-1.4-1-2c-0.6-0.6-1.4-1-2.3-1c-1.2,0-2.1,0.6-2.8,1.9c-0.7,1.3-0.9,2.4-0.8,3.4c0.8,0,1.5,0.3,2,0.9
	c0.5,0.5,0.7,1.2,0.8,1.9c-0.3,2.2-0.9,3.7-1.8,4.6c-0.8,0.7-1.9,0.9-2.9,0.5c-1.1-0.3-2.1-0.7-2.9-1c-0.7,1.1-1,2.5-0.9,3.8
	c0.1,1.2,0.3,2.4,0.6,3.6c2.5,0.8,4.9,1.9,7.1,3.4c2.1,1.5,4,3.1,5.8,5c-0.3-1.9-0.1-3.3,0.6-4.2c0.8-0.9,1.6-1,2.7-0.1
	c0-0.2,0-0.6,0.1-1.3c0.1-0.7,0.3-1.4,0.5-2c0.2-0.6,0.5-1.1,0.9-1.6c0.3-0.4,0.8-0.5,1.5-0.4c0.5-0.8,0.5-1.6,0-2.4
	c-0.5-0.8-1.2-1.1-2-0.9c-1.9,0-2.4,1.1-1.5,3.3c0.2,0.3-0.2,0.6-1,0.6c-0.8,0.1-1.4,0-1.5-0.4c-0.5-0.9-0.7-1.8-0.8-2.8
	c0-0.8,0.4-1.6,1.3-2.4c0.8-0.7,1.8-1.1,2.8-1.1c1.5,0,2.9,0.6,4.1,1.8c1.2,1.2,1.7,2.8,1.5,4.8c0.7,0.3,1,0.9,1,1.8
	c0,0.9-0.2,1.8-0.6,2.5c-0.7,1.3-1.5,2.5-2.4,3.6c1.2,0.5,1.9,1.1,2.2,1.8c0.3,0.7,0.1,1.4-0.4,2c-0.6,0.7-1.3,1.2-2.2,1.5
	c-1,0.3-2.1,0.4-3.2,0.3c1.5,1.5,2.9,3.5,4.1,6s1.7,4.2,1.5,5.2C173.8,174.6,172.1,174.1,169.7,173z M159.6,218.7
	c0.3,2.4,0,4.9-0.9,7.2c-0.9,2.5-3.1,3.9-6.5,4.2c-1.9,0.2-3.3-0.3-4.4-1.4c-1.1-1.1-1.7-2.3-1.7-3.7c0.1-1,0.6-1.8,1.4-2.4
	c0.7-0.6,1.6-0.8,2.4-0.6c1,0,1.6,0.3,1.8,1c0,0.9-0.3,1.4-0.8,1.5c-0.3,0.2-0.7,0.3-1,0.4c-0.3,0-0.5,0.3-0.5,0.6
	c-0.2,0.8,0,1.4,0.6,1.8c0.6,0.3,1.2,0.5,1.9,0.5c1.4,0,2.4-0.5,3-1.5c0.7-1,1.1-2.1,1.3-3.3c0.2-2.5-0.8-4.9-2.9-7
	s-4.9-3.3-8.5-3.7v1.3c1.5,0.3,2.3,1.4,2.3,3c0,0.8-0.4,1.6-1,2.2c-0.6,0.6-1.4,0.9-2.3,0.9c-0.8,0-1.6-0.3-2.2-0.9
	c-0.6-0.6-1-1.3-1.1-2.2c0-1.7,0.8-2.8,2.5-3.3l-0.3-0.8c-3.9,0.3-7,2-9.4,5c-2.4,3-3.4,6.5-3,10.5c0,0.2,0.1,0.5,0.4,0.5
	c0,0,0.1,0,0.1,0c0.5,0,0.9-0.2,1.3-0.5c0.7-0.7,1.3-1.5,1.6-2.4c0.4-0.9,1.2-1.2,2.4-0.9c0.7,0.2,1.1,0.5,1.4,1
	c0.3,0.6,0.4,1.2,0.4,1.8c0,0.6,0,1.1-0.1,1.7c-0.1,0.6,0,1,0.1,1.1c0.2,0.3,0.6,0.6,1.4,0.6c0.8,0.1,1.6,0.3,2.4,0.5
	c0.9,0.3,1.7,0.7,2.4,1.3c0.8,0.6,1.3,1.5,1.7,2.7c0.2,0.7,0,1.4-0.5,1.9c-0.5,0.6-1.2,1-2,1.1c-1.2,0-1.8-0.4-1.8-1.3
	c-0.2-0.8,0-1.3,0.5-1.3c0.5,0,0.8-0.2,0.8-0.5c0-0.8-0.8-1.3-2.5-1.3c-1.7,0-3-0.2-4.1-0.5c-1.5-0.5-2.9-1.6-4.1-3.3
	c-0.2-0.3-0.5-0.5-0.9-0.4c-0.4,0.1-0.6,0.2-0.6,0.4c-0.2,0.7,0,1.6,0.4,2.7c0.4,1.1,1,1.9,1.7,2.4c0.8,0.9,1.9,1.9,3.3,3.2
	c1.4,1.3,2.3,2.6,2.8,3.9c0.8,1.5,0.8,2.5-0.3,2.8c-0.3,0.2-0.7,0.1-1.1-0.3c-0.5-0.4-1.1-0.6-1.7-0.8c0.3,0.7,0.6,1.2,0.9,1.6
	c0.3,0.5,0.4,1.1,0.4,1.6c0.2,0.9,0,1.5-0.5,2s-1.4,0.4-2.8-0.3c-0.1,1.3-0.6,2.4-1.4,3.4c-0.7,0.9-1.8,1.3-2.9,1.1
	c0.7-2.4,1-4.9,1-7.4c0-3.3-0.2-6.5-0.8-9.8c-0.5-3.1-0.8-6.3-0.8-9.5c-0.2-4.6,1.1-8.3,3.9-11.3c2.8-3,6.4-4.5,10.8-4.7
	c2.6,0,5.3,0.2,7.9,0.6c2.5,0.4,4.9,1.2,7.1,2.4c1.4,0.7,2,1.4,2,2.3C160.6,217.6,160.3,218.3,159.6,218.7z M167,203.8
	c-3,2.8-6.9,4.2-11.4,4.2c-3.1-0.2-6.3-0.5-9.4-1c-3.2-0.5-6.4-0.7-9.7-0.5c-2.9,0-5.3,0.3-7.4,1c-0.2-1.4,0.2-2.4,1.1-3.1
	c1-0.7,2.2-1.2,3.4-1.5c-1.2-2.5-0.6-3.6,1.8-3.3c1.1,0.4,2.1,0.9,3,1.5c0-0.8-0.2-1.5-0.5-1.9c-0.3-0.3-0.5-0.7-0.5-1.1
	c0.3-1,1.4-1.1,3-0.3c1.4,0.5,2.7,1.5,3.9,2.9s2.2,2.6,2.9,3.4c0.7,0.7,1.6,1.2,2.5,1.5c0.8,0.3,1.7,0.5,2.5,0.5
	c0.3,0,0.5-0.2,0.6-0.6c0.1-0.4-0.1-0.7-0.4-0.9c-1.6-0.9-2.8-2.5-3.3-4.3c-0.3-0.8-0.5-2.1-0.5-3.8c0-1.7-0.4-2.6-1.3-2.8
	c-0.3,0-0.6,0.3-0.6,0.9c-0.1,0.6-0.6,0.7-1.4,0.4c-0.4,0-0.7-0.2-0.9-0.5c-0.3-0.4-0.3-0.9-0.1-1.3c0-0.8,0.3-1.5,0.9-2
	c0.6-0.5,1.4-0.7,2.2-0.5c1.2,0.3,2,0.9,2.5,1.7c0.5,0.7,0.9,1.6,1.1,2.4c0.2,0.8,0.4,1.6,0.5,2.4c0.1,0.8,0.3,1.2,0.6,1.4
	c0.2,0.3,0.5,0.5,1.1,0.4c0.6-0.1,1.3-0.1,1.9-0.1c0.6,0,1.2,0.1,1.8,0.3c0.5,0.2,0.8,0.7,1,1.5c0.3,1,0,1.8-1,2.3
	c-0.9,0.5-1.8,1.1-2.5,1.8c-0.2,0.3-0.3,0.6-0.4,0.9c-0.1,0.4,0,0.6,0.4,0.6c4.1,0.3,7.6-0.7,10.7-3c3-2.4,4.7-5.5,5.1-9.4h-1
	c-0.3,1.5-1.4,2.3-3,2.3c-0.8,0-1.7-0.3-2.3-0.9c-0.7-0.6-1.1-1.5-1-2.4c0-0.8,0.4-1.6,1-2.2c0.6-0.6,1.4-0.9,2.3-0.9
	c0.6-0.2,1.3,0,1.8,0.5c0.5,0.5,0.9,1,1.3,1.5h1c-0.2-3.4-1.3-6.1-3.4-8.3s-4.4-3.1-7-2.9c-1.3,0-2.5,0.3-3.6,1
	c-1,0.7-1.4,1.7-1.3,3c0,0.7,0.2,1.3,0.5,1.9c0.3,0.6,0.9,0.9,1.5,0.9c0.3-0.1,0.5-0.3,0.6-0.6c0.1-0.3,0.2-0.6,0.4-0.9
	c0.3-0.8,0.9-1.1,1.8-0.8c0.7,0,1,0.5,1,1.5c0,0.9-0.3,1.8-0.8,2.5c-0.5,0.8-1.3,1.3-2.3,1.3c-1.4,0-2.6-0.5-3.8-1.6
	c-1.2-1.1-1.7-2.6-1.5-4.4c0.3-3.2,1.7-5.3,4.2-6.3s4.9-1.4,7.2-1c0.5-0.5,1.3-0.8,2-0.8c0.5,0,1,0.2,1.4,0.6
	c0.4,0.4,0.8,0.8,1.1,1.1c1.2,2.3,2,4.7,2.4,7.2c0.4,2.6,0.6,5.1,0.6,7.7C171.6,197.4,170,201,167,203.8L167,203.8z M159.4,39.7
	c-2.2,1.2-4.6,2.1-7.1,2.4c-2.6,0.4-5.2,0.6-7.9,0.6c-4.4-0.2-8-1.7-10.8-4.7c-2.8-3-4.1-6.7-3.9-11.3c0-3.2,0.3-6.4,0.8-9.5
	c0.5-3.2,0.8-6.5,0.8-9.8c0-2.5-0.3-5-1-7.4c1.1-0.2,2.2,0.3,2.9,1.1c0.8,1,1.3,2.2,1.4,3.4c1.4-0.7,2.3-0.8,2.8-0.3s0.7,1.2,0.5,2
	c0,0.6-0.1,1.1-0.4,1.6c-0.3,0.4-0.6,1-0.9,1.6c0.6-0.1,1.2-0.4,1.7-0.8c0.4-0.3,0.8-0.4,1.1-0.3c1,0.2,1.1,1.1,0.3,2.8
	c-0.5,1.4-1.4,2.7-2.8,3.9c-1.4,1.3-2.5,2.3-3.3,3.2c-0.7,0.5-1.2,1.3-1.6,2.4c-0.4,1.1-0.6,2-0.4,2.7c0,0.2,0.2,0.3,0.6,0.4
	c0.4,0.1,0.7,0,0.9-0.4c1.2-1.7,2.5-2.8,4.1-3.3c1-0.3,2.4-0.5,4.1-0.5s2.5-0.4,2.5-1.3c0-0.3-0.3-0.5-0.8-0.5
	c-0.5,0-0.7-0.4-0.5-1.3c0-1.2,0.6-1.6,1.8-1.3c0.8,0.1,1.5,0.5,2,1.1c0.5,0.5,0.7,1.2,0.5,1.9c-0.2,1.2-0.6,2.1-1.4,2.7
	c-0.8,0.6-1.6,1-2.5,1.3c-0.9,0.3-1.8,0.5-2.5,0.6c-0.8,0.2-1.2,0.3-1.4,0.5c-0.2,0.2-0.2,0.6-0.1,1.1c0.1,0.6,0.1,1.3,0.1,1.9
	c0,0.5-0.1,1.1-0.4,1.5c-0.3,0.5-0.8,0.9-1.4,1c-1.2,0.3-2,0-2.5-0.9c-0.5-0.8-1-1.6-1.5-2.4c-0.3-0.3-0.8-0.5-1.3-0.5
	c-0.2,0-0.5,0.1-0.5,0.4c0,0,0,0.1,0,0.1c-0.3,4.1,0.7,7.6,3,10.5c2.4,3,5.5,4.6,9.4,5v-0.8c-1.5-0.7-2.3-1.8-2.3-3.3
	c0-0.8,0.4-1.6,1-2.2c1.3-1.2,3.3-1.2,4.6,0c0.6,0.5,1,1.3,1,2.2c0,1.7-0.8,2.7-2.3,3v1.3c3.6-0.3,6.4-1.6,8.5-3.7
	c2.1-2.1,3.1-4.4,2.9-7c-0.2-1.2-0.6-2.3-1.3-3.3c-0.7-1-1.7-1.5-3-1.5c-0.6,0.2-1.3,0.4-1.9,0.6c-0.6,0.3-0.8,0.8-0.6,1.7
	c0,0.3,0.2,0.6,0.5,0.6c0.4,0.1,0.7,0.2,1,0.4c0.5,0.3,0.8,0.9,0.8,1.5c-0.2,0.7-0.8,1-1.8,1c-0.9,0.2-1.7-0.1-2.4-0.6
	c-0.8-0.6-1.3-1.5-1.4-2.4c0-1.4,0.5-2.6,1.6-3.8c1.1-1.2,2.6-1.6,4.4-1.3c3.4,0.3,5.5,1.7,6.5,4.2c0.9,2.3,1.2,4.8,0.9,7.2
	c0.7,0.3,1,1,1,2C161.4,38.2,160.7,39,159.4,39.7L159.4,39.7L159.4,39.7z M148.7,121c-0.5,0.9-1.3,1.6-2.3,1.9
	c-1.5,0.3-2.6,0.1-3.3-0.8c-1,1.4-1.9,1.4-2.7,0.3c-0.8-1.2-1-2.8-0.6-4.8c-0.6,1.2-0.9,2.4-1.1,3.7c-0.3,1.4-0.8,2.2-1.7,2.4
	c-1.5,0.5-2.8-0.2-3.8-2c-0.4,0.4-0.9,0.9-1.4,1.3c-0.4,0.3-0.8,0.3-1.1,0c-0.3-0.3,0.1-1.1,1.3-2.3c-1.7-0.8-2.4-2.1-2-3.8
	c0.2-0.8,1-1.4,2.4-1.7c1.4-0.2,2.7-0.6,3.9-1.1c-2.2,0.2-3.9-0.1-5.1-0.9c-1.2-0.8-1.1-1.6,0.3-2.4c-0.8-0.8-1.1-2-0.8-3.6
	c0.4-0.9,1.1-1.7,1.9-2.2c0.9-0.6,1.9-0.7,2.9-0.4c0.3,0.2,0.5,0.5,0.5,1s-0.2,0.8-0.5,1c-0.5,0.2-1,0.3-1.5,0.5
	c-0.5,0.2-0.8,0.6-0.8,1.3c0,0.8,0.4,1.6,1,2c0.7,0.5,1.6,0.7,2.8,0.5c1,0,2.1-0.2,3-0.6c0.8-0.4,1.6-0.8,2.2-1.1
	c0.5-0.3,1-0.5,1.5-0.8c0.4-0.2,0.9-0.1,1.1,0.3c0.7,0.8,0.5,1.8-0.5,2.8c-1,1-1.6,2.7-1.8,5.1c0,2.5,0.9,3.8,2.8,3.8
	c0.7,0,1.1-0.3,1.3-0.8c0.2-0.5,0.3-1,0.5-1.5c0.2-0.3,0.5-0.5,1-0.5c0.5,0,0.8,0.2,0.8,0.5C149.3,119.1,149.2,120.1,148.7,121
	L148.7,121L148.7,121z M171.9,68.7c-0.4,2.6-1.3,5-2.7,7.2c-0.4,0.4-0.7,0.8-1,1.3c-0.3,0.5-0.8,0.7-1.3,0.5c-0.8,0-1.5-0.2-2-0.8
	c-2.4,0.3-4.8,0-7.2-1s-3.8-3.1-4.2-6.3c-0.2-1.9,0.3-3.3,1.5-4.4s2.5-1.6,3.8-1.7c0.9,0,1.8,0.4,2.3,1.3c0.5,0.8,0.7,1.6,0.8,2.5
	c0,1-0.3,1.5-1,1.5c-0.8,0.3-1.4,0.2-1.8-0.5c-0.3-1-0.7-1.6-1-1.8c-0.6,0-1.2,0.3-1.5,0.9c-0.3,0.6-0.5,1.2-0.5,1.9
	c0,1.4,0.5,2.4,1.4,3c0.9,0.7,2.1,1,3.4,1c2.5,0.2,4.9-0.8,7-2.9c2.1-2.1,3.3-4.9,3.4-8.3h-1c-0.4,0.5-0.8,1.1-1.3,1.5
	c-0.4,0.5-1.1,0.7-1.8,0.5c-0.8,0-1.7-0.3-2.3-0.9c-0.6-0.5-1-1.3-1-2.2c0-0.9,0.3-1.8,1-2.4c0.6-0.6,1.4-0.9,2.3-0.9
	c1.7,0,2.7,0.8,3,2.3h1c-0.3-3.9-2-7-5.1-9.4c-3.1-2.4-6.6-3.4-10.7-3c-0.3,0-0.5,0.2-0.4,0.6c0.1,0.4,0.2,0.8,0.4,1.1
	c0.8,0.6,1.6,1.1,2.5,1.5c1,0.5,1.4,1.3,1,2.3c-0.2,0.8-0.5,1.4-1,1.5c-0.6,0.2-1.2,0.3-1.8,0.3c-0.6,0-1.3,0-1.9-0.1
	c-0.6-0.1-1,0-1.1,0.1c-0.3,0.3-0.6,0.9-0.6,1.7c-0.1,0.8-0.3,1.6-0.5,2.4c-0.3,0.9-0.7,1.7-1.1,2.5c-0.5,0.8-1.4,1.4-2.5,1.5
	c-0.8,0.2-1.6,0-2.2-0.5c-0.6-0.5-0.9-1.3-0.9-2c-0.2-0.4-0.1-0.9,0.1-1.3c0.2-0.3,0.5-0.5,0.9-0.5c0.8-0.3,1.3-0.2,1.4,0.4
	c0.1,0.6,0.3,0.8,0.6,0.6c0.8,0,1.3-0.8,1.3-2.5c0-1.7,0.2-3,0.5-3.8c0.5-1.8,1.7-3.4,3.3-4.3c0.2-0.2,0.3-0.5,0.3-0.8
	c0-0.5-0.2-0.8-0.5-0.8c-0.9,0-1.7,0.2-2.5,0.5c-1,0.3-1.8,0.8-2.5,1.5c-0.7,0.8-1.7,2-2.9,3.4c-1.3,1.4-2.6,2.4-3.9,2.9
	c-1.7,0.8-2.7,0.8-3-0.3c0-0.4,0.2-0.8,0.5-1.1c0.3-0.4,0.5-1.1,0.5-1.9c-1,0.9-2,1.4-3,1.5c-2.4,0.3-3-0.8-1.8-3.3
	c-1.2-0.3-2.4-0.8-3.4-1.5c-0.9-0.7-1.3-1.7-1.1-3c2,0.7,4.5,1,7.4,1c3.2,0.2,6.5,0,9.6-0.5c3.1-0.5,6.2-0.9,9.4-1
	c4.6,0,8.4,1.4,11.4,4.2c3,2.8,4.7,6.4,4.8,10.8C172.6,63.6,172.4,66.2,171.9,68.7L171.9,68.7L171.9,68.7z M148.2,135.9
	c-0.5,0-0.8-0.2-0.8-0.5c-0.4-0.4-0.6-0.9-0.8-1.4c-0.2-0.6-0.5-0.9-1-0.9c-1.9,0-2.8,1.4-2.8,4.1c0.2,2.4,0.8,4.1,1.8,5.2
	s1.2,2,0.5,2.7c-0.7,0.7-1.5,0.5-2.5-0.5c-1-1-2.7-1.6-5.1-1.8c-1.4-0.2-2.4,0-3,0.6c-0.6,0.5-1,1.3-1,2.2c0,0.5,0.3,0.8,0.9,1
	c0.5,0.1,0.9,0.3,1.4,0.5c0.3,0.2,0.5,0.5,0.5,1s-0.2,0.9-0.5,1c-0.8,0.3-1.7,0.2-2.7-0.4c-0.9-0.5-1.5-1.3-1.9-2.2
	c-0.3-1.5-0.2-2.7,0.5-3.6c-1.4-0.8-1.4-1.6-0.3-2.4s2.9-1,5.1-0.6c-1.3-0.5-2.6-1-3.9-1.3c-1.4-0.3-2.2-0.9-2.4-1.8
	c-0.2-0.8,0-1.6,0.4-2.3c0.4-0.7,1-1.2,1.7-1.5c-1-1-1.4-1.8-1.3-2.3c0.3-0.3,1.2,0,2.5,1c1-1.5,2.3-2.2,3.8-2
	c0.8,0.3,1.4,1.2,1.6,2.5c0.2,1.3,0.6,2.6,1.1,3.8c-0.3-2.2-0.1-3.9,0.6-5.1c0.8-1.2,1.7-1.1,2.7,0.3c0.8-0.8,1.9-1,3.3-0.5
	c1,0.3,1.8,1,2.3,1.9c0.5,0.9,0.6,1.8,0.3,2.7C149.2,135.7,148.9,135.9,148.2,135.9L148.2,135.9z M137.2,114.7
	c-1.3,1.1-2.1,2.6-2.4,4.2c1.9-0.3,3.3-1.1,4.4-2.4c1-1.1,1.8-2.5,2.2-3.9C139.8,112.9,138.4,113.6,137.2,114.7z M139.4,137.3
	c-1.1-1.3-2.6-2.1-4.4-2.4c0.3,1.7,1.2,3.1,2.5,4.2c1.4,1.1,2.7,1.8,4.1,2.2C141.2,139.7,140.5,138.4,139.4,137.3L139.4,137.3z
	 M160.9,89.5c-3,3.2-5.5,6.8-7.4,10.8c3.9-1.9,7.5-4.4,10.7-7.5c3.2-3.1,5.5-6.6,6.9-10.3C167.3,83.9,163.9,86.3,160.9,89.5
	L160.9,89.5z M164.5,160.9c-3.1-3.1-6.7-5.6-10.7-7.5c1.9,4,4.4,7.6,7.5,10.8c3.1,3.3,6.5,5.6,10,7C170,167.5,167.7,164,164.5,160.9
	L164.5,160.9z M207.1,107.8c-0.5,3.2-0.8,6.5-0.8,9.8c0,2.5,0.3,5,1,7.4c-1.1,0.2-2.2-0.2-2.9-1.1c-0.8-1-1.4-2.2-1.7-3.4
	c-1.2,0.7-2,0.8-2.5,0.3c-0.5-0.5-0.7-1.2-0.5-2c0-0.8,0.4-1.9,1.3-3.3c-0.6,0.1-1.2,0.4-1.7,0.8c-0.4,0.3-0.8,0.4-1.1,0.3
	c-1-0.2-1.1-1.1-0.3-2.8c0.5-1.3,1.4-2.7,2.8-4.1c1-1.1,2.1-2.1,3.3-3c0.7-0.5,1.2-1.3,1.5-2.4c0.3-0.9,0.5-1.8,0.5-2.7
	c0-0.2-0.2-0.3-0.6-0.4c-0.4-0.1-0.7,0-0.9,0.4c-1.2,1.7-2.5,2.8-4.1,3.3c-1,0.3-2.4,0.5-4.1,0.5c-1.7,0-2.5,0.4-2.5,1.3
	c0,0.3,0.3,0.5,0.8,0.5s0.7,0.4,0.5,1.3c0,0.9-0.7,1.3-2,1.3c-1.9-0.3-2.6-1.4-2.3-3c0.2-1.2,0.6-2.1,1.4-2.7c0.7-0.6,1.5-1,2.4-1.3
	c0.8-0.2,1.6-0.4,2.4-0.5c0.8-0.1,1.3-0.3,1.7-0.6c0.2-0.2,0.2-0.5,0.1-1.1c-0.1-0.5-0.1-1.1-0.1-1.7c0-0.6,0.1-1.2,0.3-1.8
	c0.2-0.5,0.7-0.8,1.5-1c1.2-0.3,2,0,2.4,0.9c0.4,0.9,1,1.7,1.6,2.4c0.8,0.8,1.4,0.8,1.8,0c0.2-4.1-0.9-7.6-3.2-10.7
	c-2.3-3-5.5-4.7-9.5-5.1v1c1.7,0.5,2.5,1.6,2.5,3.3c-0.2,0.8-0.6,1.6-1.1,2.2c-0.6,0.6-1.3,0.9-2.2,0.9c-0.8,0-1.7-0.3-2.3-0.9
	c-0.6-0.5-1-1.3-1-2.2c0-1.7,0.8-2.7,2.3-3l-0.3-1.3c-3.4,0.3-6.1,1.6-8.3,3.7c-2.1,2.1-3.1,4.4-2.9,6.7c0,1.3,0.4,2.5,1.1,3.6
	c0.8,1,1.8,1.5,3.2,1.5c1.7,0,2.5-0.8,2.5-2.3c0-0.3-0.2-0.6-0.5-0.6c-0.4-0.1-0.7-0.2-1-0.4c-0.5-0.2-0.8-0.7-0.8-1.5
	c0.2-0.7,0.8-1,1.8-1c0.9-0.2,1.7,0.1,2.4,0.6c0.8,0.6,1.1,1.3,1.1,2.2c0.2,1.4-0.3,2.6-1.5,3.8s-2.7,1.7-4.6,1.5
	c-3.2-0.3-5.3-1.7-6.2-4.2c-0.9-2.3-1.2-4.8-0.9-7.2c-0.7-0.3-1-1-1-2c0-0.8,0.7-1.6,2-2.3c2.2-1.2,4.6-2.1,7.1-2.4
	c2.6-0.4,5.2-0.6,7.9-0.6c4.4,0.2,8,1.7,10.7,4.7c2.7,3,4.1,6.7,4.1,11.3C207.9,101.5,207.6,104.7,207.1,107.8L207.1,107.8
	L207.1,107.8z M203.8,167.7c-2.7,3-6.3,4.5-10.7,4.7c-2.6,0-5.3-0.2-7.9-0.6c-2.5-0.4-4.9-1.2-7.1-2.4c-1.4-0.7-2-1.4-2-2.3
	c0-1,0.3-1.7,1-2c-0.3-2.4,0-4.9,0.9-7.2c0.9-2.5,3-3.8,6.2-4.2c1.9-0.3,3.4,0.1,4.6,1.4c1.2,1.3,1.7,2.6,1.5,3.9
	c0,0.9-0.4,1.6-1.1,2.2c-0.7,0.6-1.6,0.8-2.4,0.6c-1,0-1.6-0.3-1.8-1c0-0.6,0.3-1.2,0.8-1.5c0.3-0.2,0.7-0.3,1-0.4
	c0.3,0,0.5-0.3,0.5-0.6c0-1.5-0.9-2.3-2.5-2.3c-1.4,0-2.4,0.5-3.2,1.5c-0.8,1-1.2,2.3-1.1,3.6c-0.2,2.4,0.8,4.6,2.9,6.7
	c2.1,2.1,4.9,3.3,8.3,3.7l0.3-1.3c-1.5-0.3-2.3-1.4-2.3-3c0-0.8,0.4-1.6,1-2.2c0.6-0.6,1.4-0.9,2.3-0.9c0.8,0,1.6,0.3,2.2,0.9
	c0.6,0.6,1,1.3,1.1,2.2c0,1.7-0.8,2.8-2.5,3.3v1c4.1-0.3,7.2-2,9.5-5.1s3.3-6.6,3.2-10.7c-0.3-0.8-0.9-0.8-1.8,0
	c-0.7,0.7-1.3,1.5-1.7,2.4c-0.4,0.9-1.2,1.2-2.4,0.9c-0.8-0.2-1.4-0.5-1.5-1c-0.2-0.5-0.3-1-0.3-1.5c0-0.6,0-1.3,0.1-1.9
	c0.1-0.6,0-1-0.1-1.1c-0.5-0.2-1.1-0.4-1.7-0.5c-0.8-0.2-1.6-0.4-2.4-0.6c-0.9-0.3-1.7-0.7-2.4-1.3c-0.8-0.6-1.2-1.5-1.4-2.7
	c-0.3-1.7,0.4-2.7,2.3-3c1.4,0,2,0.4,2,1.3c0.2,0.9,0,1.3-0.5,1.3c-0.5,0-0.8,0.2-0.8,0.5c0,0.8,0.8,1.3,2.5,1.3s3,0.2,4.1,0.5
	c1.5,0.5,2.9,1.6,4.1,3.3c0.2,0.3,0.5,0.5,0.9,0.4c0.4-0.1,0.6-0.2,0.6-0.4c0-0.9-0.2-1.8-0.5-2.7c-0.3-1.1-0.8-1.9-1.5-2.4
	c-1.2-1-2.3-2-3.3-3c-1.4-1.4-2.3-2.7-2.8-4.1c-0.9-1.7-0.8-2.6,0.3-2.8c0.3-0.2,0.7-0.1,1.1,0.3c0.5,0.4,1.1,0.6,1.6,0.8
	c-0.9-1.4-1.3-2.5-1.3-3.3c-0.2-0.8,0-1.5,0.5-2c0.5-0.5,1.4-0.4,2.5,0.3c0.3-1.3,0.9-2.4,1.7-3.4c0.7-0.9,1.8-1.3,2.9-1.2
	c-0.7,2-1,4.5-1,7.4c0,3.3,0.2,6.5,0.8,9.8c0.5,3.1,0.8,6.3,0.8,9.5C207.9,161,206.5,164.8,203.8,167.7z M252.7,133.1
	c-1,0.7-2.2,1.2-3.4,1.5c0.8,1.2,1,2.1,0.5,2.7c-0.5,0.6-1.3,0.8-2.3,0.6c-1-0.2-2-0.7-3-1.5c0,0.6,0.2,1.3,0.5,1.8
	c0.3,0.5,0.5,0.9,0.5,1.3c-0.3,0.9-1.4,0.9-3,0.3c-1.5-0.8-2.8-1.8-3.9-3c-1.3-1.4-2.2-2.5-2.9-3.3c-0.7-0.7-1.6-1.2-2.5-1.5
	c-0.8-0.3-1.7-0.5-2.5-0.5c-0.3,0-0.5,0.3-0.5,0.8c0,0.3,0.1,0.6,0.3,0.8c1.9,1.2,3,2.5,3.3,4.1c0.3,1,0.5,2.4,0.5,4.1
	c0,1.7,0.4,2.5,1.3,2.5c0.3,0,0.6-0.3,0.6-0.8c0.1-0.5,0.5-0.7,1.4-0.5c0.8,0.5,1.2,1.2,1,2c0,0.8-0.3,1.5-0.9,2
	c-0.6,0.5-1.3,0.6-2.2,0.3c-1.2-0.2-2-0.6-2.5-1.4c-0.5-0.7-0.9-1.6-1.1-2.4c-0.3-0.8-0.5-1.7-0.6-2.4c-0.1-0.6-0.3-1.1-0.5-1.6
	c-0.2-0.2-0.6-0.2-1.1-0.1c-0.6,0.1-1.3,0.1-1.9,0.1c-0.6,0-1.1-0.1-1.7-0.3c-0.6-0.2-1-0.7-1.1-1.5c-0.3-1.2,0-2,1-2.4
	c0.9-0.4,1.8-0.9,2.5-1.6c0.2-0.3,0.3-0.6,0.4-0.9c0.1-0.4,0-0.6-0.4-0.6c-4.1-0.3-7.6,0.7-10.7,3c-3,2.4-4.7,5.5-5.1,9.4h1
	c0.3-1.5,1.4-2.3,3-2.3c2.2,0,3.3,1.1,3.3,3.3c0,0.8-0.4,1.6-1,2.2c-0.6,0.6-1.4,0.9-2.3,0.9c-1.4,0-2.4-0.7-3-2h-1
	c0.2,3.4,1.4,6.1,3.6,8.3c2.2,2.1,4.5,3.1,6.9,2.9c1.3,0,2.5-0.3,3.6-1c1-0.7,1.4-1.7,1.3-3c0-1.9-0.7-2.8-2-2.8
	c-0.3,0-0.6,0.2-0.6,0.5c-0.1,0.4-0.2,0.7-0.4,1c-0.3,0.9-0.9,1.1-1.8,0.8c-0.7,0-1-0.6-1-1.8c0-0.9,0.3-1.7,0.8-2.4
	c0.5-0.8,1.3-1.1,2.3-1.1c1.4,0,2.6,0.6,3.8,1.6c1.2,1.1,1.7,2.6,1.5,4.4c-0.3,3.2-1.7,5.3-4.2,6.3c-2.5,1-4.9,1.3-7.2,0.8
	c-0.5,0.7-1.2,1-2,1c-0.9,0-1.6-0.7-2.3-2c-1.4-2.1-2.3-4.5-2.7-7c-0.4-2.6-0.5-5.2-0.4-7.7c0-4.4,1.5-8,4.6-10.8
	c3-2.8,6.9-4.2,11.4-4.2c3.2,0,6.3,0.3,9.4,0.9c3.2,0.6,6.4,0.8,9.6,0.6c2.9,0,5.3-0.3,7.4-1C254,131.4,253.6,132.4,252.7,133.1z
	 M246.5,123.7c-3.2-0.2-6.5,0-9.6,0.6c-3.1,0.6-6.2,0.9-9.4,0.9c-4.6,0-8.4-1.4-11.4-4.2c-3-2.8-4.6-6.4-4.6-10.8
	c-0.2-2.6,0-5.2,0.4-7.7c0.4-2.5,1.3-4.9,2.7-7c0.7-1.4,1.4-2,2.3-2c0.8,0,1.6,0.4,2,1c2.4-0.5,4.8-0.3,7.2,0.8
	c2.5,1,3.9,3.1,4.2,6.3c0.2,1.9-0.3,3.3-1.5,4.4c-1.2,1.1-2.5,1.7-3.8,1.7c-1,0-1.8-0.4-2.3-1.1c-0.5-0.7-0.8-1.6-0.8-2.4
	c0-1.2,0.3-1.8,1-1.8c0.8-0.3,1.4-0.1,1.8,0.8c0.2,0.3,0.3,0.7,0.4,1c0,0.3,0.3,0.5,0.6,0.5c1.4,0,2-0.9,2-2.8
	c0.2-1.4-0.3-2.4-1.3-3c-1.1-0.7-2.3-1-3.6-1c-2.4-0.2-4.7,0.8-6.9,2.9c-2.2,2.1-3.4,4.9-3.6,8.3h1c0.7-1.4,1.7-2,3-2
	c0.8,0,1.7,0.3,2.3,0.9c0.6,0.5,1,1.3,1,2.2c0,2.2-1.1,3.3-3.3,3.3c-1.7,0-2.7-0.8-3-2.3h-1c0.3,3.9,2,7,5.1,9.4
	c3,2.4,6.6,3.4,10.7,3c0.3,0,0.5-0.2,0.4-0.6c0-0.3-0.2-0.6-0.4-0.9c-0.7-0.7-1.6-1.3-2.5-1.6c-1-0.4-1.4-1.2-1-2.4
	c0.2-0.8,0.5-1.3,1.1-1.5c0.5-0.2,1.1-0.2,1.7-0.3c0.6,0,1.3,0,1.9,0.1c0.6,0.1,1,0,1.1-0.1c0.2-0.2,0.3-0.7,0.5-1.5
	c0.2-0.8,0.4-1.7,0.6-2.5c0.3-0.9,0.6-1.7,1.1-2.4c0.5-0.8,1.4-1.2,2.5-1.4c0.8-0.3,1.6-0.3,2.2,0.3c0.6,0.5,0.9,1.3,0.9,2
	c0.2,0.9-0.2,1.5-1,2c-0.8,0.2-1.3,0-1.4-0.6s-0.3-0.8-0.6-0.6c-0.8,0-1.3,0.8-1.3,2.5c0,1.7-0.2,3-0.5,4.1
	c-0.3,1.5-1.4,2.9-3.3,4.1c-0.2,0.2-0.3,0.5-0.3,1c0,0.2,0.1,0.5,0.4,0.5c0,0,0.1,0,0.1,0c0.9,0,1.7-0.2,2.5-0.5
	c1-0.3,1.8-0.8,2.5-1.5c0.7-0.8,1.6-1.9,2.9-3.3c1.1-1.2,2.5-2.3,3.9-3c1.7-0.5,2.7-0.4,3,0.3c0,0.4-0.2,0.8-0.5,1.1
	c-0.3,0.4-0.5,1.1-0.5,1.9c0.9-0.6,2-1.2,3-1.5c1-0.2,1.8,0,2.3,0.6s0.3,1.5-0.5,2.7c1.2,0.3,2.4,0.8,3.4,1.5c0.9,0.7,1.3,1.7,1.1,3
	C251.8,124,249.3,123.7,246.5,123.7L246.5,123.7z"/>
</svg>
