<?xml version="1.0" encoding="utf-8"?>
<!-- Generator: Adobe Illustrator 16.0.0, SVG Export Plug-In . SVG Version: 6.00 Build 0)  -->
<!DOCTYPE svg PUBLIC "-//W3C//DTD SVG 1.1//EN" "http://www.w3.org/Graphics/SVG/1.1/DTD/svg11.dtd">
<svg version="1.1" id="Layer_1" xmlns="http://www.w3.org/2000/svg" xmlns:xlink="http://www.w3.org/1999/xlink" x="0px" y="0px"
	 width="254px" height="254px" viewBox="0 0 254 254" enable-background="new 0 0 254 254" xml:space="preserve">
<path stroke="#eee" stroke-width="1" fill="none" d="M38.014,120.268c-3.052,2.795-6.861,4.191-11.428,4.191c-3.152,0.008-6.299-0.289-9.395-0.887
	c-3.178-0.598-6.417-0.811-9.646-0.637c-2.883,0-5.338,0.34-7.365,1.018c-0.169-1.354,0.212-2.367,1.144-3.045
	c1.034-0.723,2.198-1.24,3.428-1.525c-0.851-1.35-1.018-2.283-0.508-2.793s1.271-0.676,2.284-0.508
	c1.077,0.371,2.102,0.883,3.045,1.521c0-0.844-0.168-1.479-0.505-1.904c-0.294-0.311-0.474-0.713-0.508-1.141
	c0.168-0.674,1.183-0.76,3.046-0.256c1.48,0.777,2.813,1.809,3.937,3.049c1.27,1.355,2.243,2.455,2.92,3.299
	c0.713,0.701,1.583,1.223,2.538,1.521c0.814,0.303,1.672,0.473,2.54,0.508c0.245,0.035,0.473-0.137,0.508-0.383
	c0.006-0.041,0.006-0.082,0-0.125c0-0.504-0.089-0.844-0.257-1.014c-1.862-1.182-2.961-2.541-3.299-4.064
	c-0.342-1.014-0.511-2.367-0.508-4.061c0-1.689-0.426-2.539-1.271-2.539c-0.342,0-0.552,0.254-0.635,0.762
	c-0.084,0.508-0.553,0.678-1.397,0.508c-0.848-0.508-1.186-1.182-1.015-2.033c-0.031-0.779,0.297-1.529,0.892-2.035
	c0.596-0.506,1.399-0.695,2.158-0.506c1.181,0.34,2.032,0.887,2.54,1.65c0.498,0.744,0.882,1.557,1.141,2.412
	c0.249,0.83,0.419,1.68,0.508,2.541c0.084,0.848,0.293,1.355,0.636,1.523c0.167,0.168,0.548,0.211,1.141,0.125
	c0.631-0.086,1.268-0.129,1.904-0.125c0.603-0.01,1.203,0.076,1.779,0.254c0.505,0.172,0.845,0.676,1.015,1.521
	c0.337,1.186-0.001,1.99-1.015,2.414c-0.947,0.379-1.811,0.939-2.54,1.652c-0.209,0.254-0.341,0.561-0.382,0.887
	c-0.087,0.426,0.039,0.635,0.382,0.635c4.063,0.342,7.618-0.674,10.663-3.045c3.046-2.371,4.738-5.504,5.078-9.395h-1.018
	c-0.338,1.523-1.354,2.283-3.045,2.283c-0.846,0.002-1.662-0.314-2.284-0.887c-0.648-0.527-1.021-1.322-1.016-2.158
	c0-2.197,1.1-3.299,3.3-3.301c1.354,0,2.368,0.678,3.045,2.031h1.018c-0.172-3.385-1.357-6.135-3.556-8.25
	c-2.197-2.117-4.483-3.09-6.856-2.922c-1.261-0.027-2.499,0.328-3.556,1.018c-1.015,0.678-1.437,1.693-1.267,3.045
	c0,1.861,0.673,2.793,2.033,2.793c0.311,0.021,0.587-0.199,0.633-0.508c0.09-0.35,0.219-0.691,0.382-1.014
	c0.337-0.846,0.93-1.1,1.776-0.762c0.676,0,1.018,0.594,1.018,1.775c-0.005,0.863-0.27,1.705-0.761,2.416
	c-0.51,0.762-1.271,1.143-2.284,1.141c-1.36,0-2.627-0.547-3.812-1.65c-1.186-1.105-1.692-2.578-1.522-4.443
	c0.337-3.213,1.733-5.328,4.19-6.348c2.457-1.018,4.869-1.271,7.236-0.76c0.466-0.658,1.228-1.039,2.033-1.018
	c0.845,0,1.606,0.68,2.283,2.031c1.383,2.109,2.292,4.492,2.666,6.986c0.417,2.559,0.544,5.156,0.38,7.742
	C42.583,113.879,41.059,117.475,38.014,120.268z M42.205,151.498c-0.373,2.492-1.282,4.875-2.666,6.984
	c-0.677,1.355-1.438,2.027-2.283,2.027c-0.805,0.023-1.567-0.357-2.033-1.016c-2.373,0.51-4.785,0.256-7.236-0.76
	c-2.451-1.018-3.848-3.133-4.19-6.348c-0.17-1.863,0.338-3.344,1.522-4.441c1.185-1.1,2.455-1.65,3.812-1.652
	c1.015,0,1.776,0.381,2.284,1.141c0.49,0.711,0.755,1.553,0.761,2.416c0,1.188-0.342,1.775-1.018,1.775
	c-0.847,0.342-1.439,0.088-1.776-0.762c-0.165-0.322-0.293-0.662-0.382-1.014c-0.047-0.309-0.322-0.529-0.633-0.508
	c-0.637-0.023-1.23,0.322-1.525,0.887c-0.334,0.578-0.508,1.236-0.505,1.904c-0.173,1.357,0.25,2.371,1.267,3.045
	c1.056,0.689,2.295,1.043,3.555,1.016c2.37,0.172,4.656-0.801,6.857-2.92s3.386-4.869,3.555-8.252h-1.017
	c-0.372,0.549-0.797,1.059-1.267,1.523c-0.45,0.492-1.138,0.688-1.779,0.508c-0.846,0.002-1.661-0.314-2.284-0.887
	c-0.646-0.527-1.021-1.316-1.018-2.15c-0.043-0.916,0.33-1.803,1.016-2.414c0.624-0.57,1.438-0.887,2.284-0.887
	c1.69,0,2.705,0.762,3.045,2.285h1.018c-0.342-3.893-2.034-7.023-5.078-9.396c-3.044-2.371-6.599-3.387-10.663-3.045
	c-0.343,0-0.466,0.215-0.382,0.637c0.039,0.326,0.172,0.633,0.382,0.887c0.729,0.713,1.592,1.275,2.54,1.65
	c1.015,0.426,1.354,1.23,1.015,2.414c-0.169,0.848-0.507,1.355-1.015,1.523c-0.576,0.18-1.177,0.264-1.779,0.254
	c-0.637,0.004-1.273-0.039-1.904-0.127c-0.594-0.082-0.974-0.039-1.141,0.127c-0.343,0.342-0.552,0.887-0.636,1.65
	c-0.098,0.818-0.268,1.627-0.508,2.414c-0.258,0.857-0.643,1.67-1.141,2.412c-0.508,0.762-1.359,1.23-2.54,1.396
	c-0.848,0.344-1.567,0.254-2.158-0.254c-0.593-0.504-0.92-1.254-0.888-2.031c-0.169-0.846,0.17-1.521,1.016-2.033
	c0.845-0.168,1.311,0,1.396,0.508c0.087,0.508,0.294,0.762,0.636,0.762c0.845,0,1.269-0.848,1.271-2.541s0.172-3.047,0.508-4.061
	c0.337-1.521,1.437-2.877,3.299-4.063c0.185-0.209,0.276-0.482,0.256-0.762c0-0.508-0.172-0.762-0.507-0.762
	c-0.868,0.037-1.726,0.209-2.541,0.508c-0.953,0.303-1.822,0.824-2.537,1.523c-0.679,0.848-1.651,1.947-2.92,3.299
	c-1.12,1.242-2.454,2.275-3.938,3.049c-1.691,0.846-2.707,0.762-3.045-0.258c0-0.336,0.167-0.76,0.508-1.27
	c0.342-0.529,0.517-1.148,0.503-1.777c-1.016,0.85-2.03,1.357-3.046,1.523c-1.015,0-1.776-0.254-2.284-0.762
	s-0.338-1.354,0.508-2.539c-1.23-0.281-2.395-0.799-3.428-1.523c-0.931-0.674-1.312-1.689-1.143-3.047
	c2.031,0.68,4.486,1.018,7.364,1.018c3.225,0.18,6.458,0.008,9.646-0.508c3.109-0.514,6.246-0.854,9.395-1.018
	c4.569,0,8.378,1.398,11.425,4.191c3.047,2.795,4.57,6.391,4.57,10.793c0.163,2.584,0.035,5.18-0.382,7.736L42.205,151.498z
	 M76.859,88.912c0.327,2.449,0.021,4.939-0.887,7.236c-0.932,2.457-3.005,3.855-6.222,4.191c-1.862,0.17-3.386-0.338-4.57-1.521
	c-1.185-1.186-1.692-2.455-1.524-3.809c0-0.844,0.381-1.563,1.143-2.158c0.666-0.566,1.554-0.801,2.412-0.635
	c1.018,0,1.606,0.342,1.779,1.016c0,0.85-0.254,1.355-0.762,1.521c-0.323,0.166-0.665,0.295-1.018,0.383
	c-0.309,0.047-0.528,0.324-0.505,0.635c0,1.523,0.846,2.285,2.538,2.285c1.354,0,2.412-0.508,3.176-1.523
	c0.735-0.943,1.137-2.105,1.141-3.301c0.168-2.539-0.806-4.867-2.92-6.984c-2.114-2.119-4.864-3.348-8.251-3.684l-0.257,1.271
	c1.523,0.34,2.285,1.355,2.287,3.045c0.005,0.836-0.369,1.629-1.018,2.158c-0.622,0.574-1.438,0.893-2.284,0.891
	c-0.813,0.018-1.595-0.307-2.158-0.891c-0.593-0.586-0.992-1.34-1.144-2.158c0-1.691,0.847-2.791,2.54-3.299V82.82
	c-4.063,0.342-7.237,1.992-9.521,4.951c-2.283,2.961-3.342,6.473-3.176,10.535c0.124,0.313,0.427,0.514,0.762,0.508
	c0.394-0.023,0.761-0.207,1.018-0.508c0.69-0.697,1.25-1.514,1.65-2.412c0.419-0.93,1.228-1.227,2.412-0.887
	c0.676,0.17,1.144,0.506,1.397,1.016c0.265,0.555,0.396,1.164,0.382,1.779c-0.004,0.553-0.046,1.104-0.126,1.65
	c-0.089,0.594-0.047,0.975,0.126,1.141c0.167,0.342,0.673,0.553,1.522,0.637c0.86,0.09,1.71,0.26,2.538,0.506
	c0.877,0.271,1.695,0.701,2.414,1.271c0.762,0.594,1.225,1.484,1.397,2.664c0.337,1.695-0.425,2.711-2.284,3.047
	c-1.36,0-2.033-0.42-2.033-1.27c-0.172-0.846,0-1.271,0.506-1.271c0.505,0,0.764-0.168,0.764-0.508c0-0.846-0.85-1.268-2.54-1.268
	s-3.046-0.166-4.063-0.508c-1.522-0.508-2.876-1.609-4.061-3.301c-0.159-0.33-0.538-0.492-0.887-0.379
	c-0.426,0.086-0.636,0.213-0.636,0.379c0.039,0.908,0.209,1.807,0.505,2.666c0.339,1.104,0.847,1.908,1.523,2.412
	c1.15,0.961,2.252,1.977,3.301,3.047c1.354,1.357,2.285,2.711,2.794,4.061c0.845,1.695,0.76,2.627-0.253,2.795
	c-0.342,0.172-0.723,0.088-1.144-0.254c-0.49-0.367-1.053-0.627-1.65-0.762c0.844,1.357,1.266,2.457,1.266,3.299
	c0.168,0.852,0,1.523-0.505,2.033s-1.359,0.426-2.54-0.254c-0.289,1.25-0.854,2.42-1.65,3.426c-0.682,0.898-1.81,1.34-2.92,1.141
	c0.702-2.391,1.044-4.871,1.015-7.363c0.176-3.271-0.038-6.555-0.636-9.777c-0.594-3.139-0.891-6.326-0.887-9.521
	c0-4.568,1.354-8.334,4.063-11.297c2.709-2.961,6.264-4.527,10.664-4.697c2.637,0.01,5.269,0.221,7.872,0.635
	c2.498,0.355,4.908,1.172,7.105,2.412c1.354,0.678,2.031,1.439,2.033,2.285C77.875,87.904,77.532,88.578,76.859,88.912z
	 M75.841,168.639c-2.195,1.244-4.606,2.063-7.105,2.412c-2.604,0.416-5.235,0.629-7.872,0.635c-4.405-0.168-7.96-1.734-10.664-4.697
	c-2.703-2.965-4.058-6.73-4.063-11.297c-0.003-3.195,0.294-6.383,0.887-9.521c0.598-3.223,0.812-6.506,0.636-9.779
	c0-2.875-0.338-5.33-1.015-7.361c1.11-0.195,2.236,0.244,2.92,1.141c0.796,1.008,1.359,2.178,1.65,3.428
	c1.181-0.674,2.032-0.762,2.54-0.254s0.673,1.188,0.505,2.033c0,0.848-0.422,1.947-1.267,3.299c0.615,0.023,1.212-0.205,1.651-0.637
	c0.421-0.42,0.802-0.547,1.143-0.379c1.016,0.17,1.101,1.102,0.254,2.795c-0.509,1.355-1.44,2.709-2.794,4.061
	c-1.046,1.072-2.147,2.09-3.301,3.047c-0.678,0.506-1.186,1.313-1.523,2.412c-0.295,0.857-0.466,1.752-0.507,2.656
	c0,0.17,0.209,0.297,0.636,0.379c0.349,0.119,0.73-0.045,0.887-0.379c1.181-1.689,2.534-2.791,4.061-3.301
	c1.018-0.338,2.368-0.508,4.063-0.508c1.695,0,2.54-0.42,2.54-1.268c0-0.34-0.256-0.506-0.764-0.506
	c-0.507,0-0.677-0.42-0.505-1.271c0-0.846,0.673-1.271,2.032-1.271c1.863,0.342,2.624,1.357,2.284,3.047
	c-0.172,1.186-0.636,2.074-1.396,2.664c-0.719,0.57-1.537,1.002-2.415,1.271c-0.847,0.254-1.692,0.465-2.537,0.635
	c-0.846,0.17-1.355,0.344-1.523,0.508c-0.167,0.166-0.214,0.553-0.125,1.141c0.086,0.631,0.128,1.268,0.125,1.904
	c-0.005,0.531-0.136,1.053-0.382,1.523c-0.286,0.533-0.801,0.908-1.396,1.016c-1.186,0.342-1.991,0.047-2.412-0.887
	c-0.403-0.896-0.962-1.713-1.651-2.412c-0.85-0.846-1.438-0.846-1.778,0c-0.168,4.064,0.892,7.623,3.178,10.674
	c2.287,3.053,5.46,4.744,9.521,5.078v-1.018c-1.694-0.508-2.541-1.607-2.54-3.299c0.153-0.818,0.553-1.57,1.144-2.158
	c0.564-0.582,1.347-0.906,2.158-0.893c0.846,0.002,1.66,0.32,2.284,0.893c0.646,0.529,1.021,1.322,1.018,2.158
	c0,1.691-0.763,2.707-2.287,3.045l0.257,1.271c3.382-0.338,6.132-1.566,8.251-3.684s3.092-4.359,2.92-6.727
	c0.024-1.277-0.377-2.529-1.141-3.555c-0.763-1.016-1.821-1.521-3.176-1.521c-1.692,0-2.538,0.76-2.538,2.283
	c-0.024,0.311,0.196,0.588,0.505,0.635c0.352,0.094,0.692,0.221,1.018,0.383c0.507,0.336,0.797,0.916,0.762,1.523
	c-0.342,0.846-0.935,1.27-1.779,1.27c-0.882-0.012-1.733-0.326-2.412-0.891c-0.762-0.59-1.143-1.311-1.143-2.158
	c-0.17-1.352,0.339-2.619,1.524-3.807c1.187-1.188,2.712-1.695,4.577-1.523c3.214,0.342,5.287,1.738,6.222,4.191
	c0.908,2.297,1.213,4.787,0.887,7.236c0.673,0.342,1.016,1.016,1.016,2.033C77.876,167.201,77.197,167.961,75.841,168.639z
	 M122.433,100.213c-2.117,1.775-4.191,2.832-6.222,3.172c-4.737,1.012-8.884,1.18-12.439,0.508c0.339,2.057,0.467,4.141,0.382,6.223
	c-0.106,2.262-0.405,4.512-0.892,6.725c-0.339,1.863-1.438,3.811-3.3,5.84c-1.86,2.031-4.401,3.047-7.62,3.049
	c-1.522,0-2.92-0.547-4.191-1.652c-1.238-1.033-1.938-2.576-1.901-4.189c0-1.354,0.673-2.494,2.032-3.428s2.195-0.971,2.538-0.125
	c0.509,0.678,0.382,1.229-0.38,1.652c-0.721,0.355-1.168,1.1-1.144,1.902c0,0.678,0.339,1.355,1.016,2.033
	c0.589,0.639,1.417,1.006,2.286,1.014c1.182,0,2.112-0.633,2.794-1.902c0.682-1.268,0.937-2.41,0.764-3.426
	c-0.778,0.033-1.528-0.295-2.032-0.889c-0.479-0.52-0.751-1.197-0.762-1.904c0.337-2.197,0.929-3.721,1.776-4.57
	c0.845-0.674,1.818-0.844,2.92-0.508c1.103,0.338,2.075,0.676,2.92,1.016c0.668-1.152,0.977-2.477,0.887-3.807
	c-0.06-1.207-0.272-2.402-0.633-3.555c-2.536-0.76-4.936-1.916-7.111-3.426c-2.084-1.48-4.037-3.137-5.839-4.951
	c0.337,1.861,0.125,3.26-0.636,4.189c-0.761,0.932-1.649,0.975-2.666,0.129c0,0.17-0.042,0.594-0.126,1.268
	c-0.089,0.693-0.259,1.377-0.507,2.031c-0.228,0.625-0.525,1.223-0.888,1.779c-0.342,0.506-0.85,0.594-1.522,0.254
	c-0.508,0.85-0.508,1.65,0,2.412s1.181,1.059,2.032,0.891c1.863,0,2.371-1.1,1.523-3.301c-0.173-0.338,0.167-0.547,1.015-0.635
	c0.848-0.09,1.353,0.041,1.522,0.381c0.468,0.859,0.728,1.816,0.762,2.795c0,0.848-0.422,1.65-1.267,2.412
	c-0.752,0.721-1.751,1.129-2.794,1.141c-1.522,0-2.883-0.59-4.063-1.777c-1.181-1.188-1.693-2.793-1.523-4.824
	c-0.851-0.336-1.231-0.928-1.143-1.775c0.097-0.887,0.354-1.748,0.761-2.541c0.397-0.801,0.865-1.564,1.397-2.283
	c0.313-0.441,0.649-0.865,1.006-1.271c-1.186-0.506-1.905-1.1-2.158-1.777c-0.256-0.676-0.126-1.352,0.379-2.031
	c0.57-0.723,1.313-1.291,2.159-1.652c0.999-0.43,2.102-0.563,3.176-0.381c-1.523-1.352-2.878-3.256-4.063-5.715
	c-1.186-2.457-1.691-4.193-1.516-5.207c1.016-0.168,2.75,0.34,5.204,1.521c2.454,1.184,4.442,2.453,5.965,3.813
	c-0.339-2.371,0.297-4.105,1.904-5.207c1.608-1.1,2.835-0.465,3.682,1.904c0.404-0.359,0.829-0.699,1.271-1.014
	c0.717-0.535,1.481-1.004,2.284-1.398c0.785-0.408,1.655-0.625,2.54-0.635c0.846,0,1.435,0.342,1.776,1.016
	c2.032-0.338,3.641,0.086,4.824,1.271c1.181,1.188,1.777,2.537,1.777,4.063c0.022,1.123-0.386,2.213-1.142,3.045
	c-0.761,0.848-1.569,1.271-2.414,1.271c-0.478,0.006-0.952-0.08-1.397-0.256c-0.491-0.203-0.959-0.459-1.396-0.762
	c-0.34-0.168-0.466-0.635-0.38-1.396s0.294-1.055,0.636-0.887c1.016,0.34,1.819,0.34,2.412,0c0.593-0.342,0.889-0.934,0.888-1.777
	c0.207-0.766-0.168-1.57-0.888-1.904c-0.761-0.42-1.566-0.383-2.412,0.125c0.168,0.678,0.037,1.188-0.382,1.523
	c-0.488,0.371-1.052,0.631-1.65,0.762c-0.669,0.17-1.348,0.297-2.033,0.381c-0.677,0.086-1.104,0.127-1.271,0.127
	c0.844,1.186,0.802,2.158-0.126,2.918c-0.932,0.762-2.328,0.977-4.191,0.637c1.813,1.803,3.469,3.758,4.953,5.84
	c1.472,2.104,2.627,4.414,3.427,6.854c1.152,0.367,2.348,0.58,3.556,0.637c1.301,0.094,2.606-0.123,3.807-0.637
	c-0.342-0.844-0.68-1.818-1.016-2.92c-0.359-0.994-0.167-2.105,0.508-2.92c1.015-1.18,2.539-1.773,4.57-1.775
	c0.674-0.168,1.309,0.043,1.904,0.635c0.58,0.568,0.9,1.348,0.888,2.158c1.238-0.012,2.456-0.314,3.555-0.887
	c1.181-0.592,1.776-1.48,1.776-2.666c-0.012-0.867-0.378-1.693-1.015-2.283c-0.678-0.676-1.359-1.018-2.032-1.018
	c-0.805-0.027-1.55,0.42-1.905,1.143c-0.425,0.762-0.976,0.889-1.65,0.379c-0.85-0.504-0.806-1.396,0.126-2.662
	c0.931-1.268,2.072-1.904,3.427-1.904c1.614-0.037,3.156,0.664,4.191,1.904c1.097,1.268,1.647,2.664,1.65,4.189
	C125.517,95.943,124.547,98.436,122.433,100.213z M124.083,165.844c-1.015,1.186-2.368,1.863-4.061,2.033
	c-1.357,0-2.5-0.678-3.427-2.033s-0.969-2.285-0.126-2.793c0.674-0.338,1.224-0.125,1.65,0.635c0.355,0.723,1.101,1.168,1.905,1.141
	c0.673,0,1.309-0.338,1.902-1.014c0.601-0.707,0.917-1.611,0.887-2.539c0-1.186-0.594-2.072-1.776-2.666s-2.284-0.801-3.302-0.635
	c-0.338,1.861-1.354,2.793-3.045,2.793c-2.201-0.336-3.641-1.014-4.317-2.031c-0.678-0.676-0.89-1.607-0.636-2.795
	c0.213-1.07,0.599-2.1,1.144-3.045c-1.244-0.518-2.593-0.736-3.938-0.637c-1.438,0.09-2.58,0.301-3.425,0.637
	c-0.746,2.502-1.904,4.863-3.427,6.984c-1.547,2.074-3.202,4.064-4.957,5.965c1.862-0.508,3.217-0.34,4.063,0.508
	c0.847,0.848,0.847,1.779,0,2.795c0.168,0,0.589,0.045,1.271,0.127c0.683,0.088,1.359,0.215,2.028,0.379
	c0.62,0.143,1.191,0.449,1.652,0.889c0.421,0.424,0.548,0.977,0.38,1.652c0.778,0.344,1.675,0.297,2.412-0.129
	c0.723-0.354,1.17-1.098,1.144-1.9c0-0.846-0.299-1.438-0.888-1.779s-1.396-0.338-2.414,0c-0.34,0.172-0.55-0.127-0.634-0.887
	c-0.083-0.762,0.038-1.225,0.38-1.398c0.86-0.465,1.816-0.727,2.794-0.76c0.845,0,1.605,0.381,2.284,1.143
	c0.693,0.809,1.058,1.848,1.02,2.912c0,1.523-0.596,2.881-1.778,4.061c-1.184,1.182-2.711,1.611-4.57,1.271
	c-0.51,0.852-1.145,1.232-1.905,1.143c-0.881-0.119-1.737-0.375-2.537-0.76c-0.854-0.377-1.663-0.846-2.415-1.398
	c-0.678-0.508-1.104-0.762-1.267-0.762c-0.509,1.188-1.102,1.865-1.778,2.033c-0.66,0.174-1.363,0.033-1.905-0.381
	c-0.594-0.422-1.102-1.1-1.522-2.033c-0.433-0.998-0.564-2.102-0.379-3.174c-1.357,1.357-3.262,2.668-5.714,3.936
	c-2.453,1.266-4.188,1.732-5.204,1.396c-0.341-1.016,0.124-2.75,1.397-5.203c1.272-2.455,2.583-4.359,3.933-5.717
	c-1.072,0.184-2.175,0.053-3.174-0.379c-0.932-0.422-1.611-0.932-2.032-1.525c-0.415-0.541-0.557-1.242-0.382-1.902
	c0.167-0.676,0.845-1.268,2.032-1.779c-0.372-0.439-0.712-0.906-1.016-1.396c-0.508-0.756-0.934-1.564-1.271-2.412
	c-0.322-0.771-0.536-1.582-0.636-2.412c-0.086-0.762,0.296-1.396,1.143-1.904c-0.341-1.863,0.081-3.428,1.267-4.695
	c1.187-1.27,2.541-1.904,4.063-1.906c1.089-0.037,2.145,0.375,2.92,1.143c0.762,0.764,1.143,1.568,1.143,2.414
	c-0.035,0.977-0.296,1.934-0.761,2.793c-0.173,0.342-0.636,0.467-1.397,0.381c-0.762-0.088-1.06-0.295-0.892-0.637
	c0.509-2.195-0.083-3.295-1.776-3.299c-0.833-0.01-1.608,0.424-2.033,1.141c-0.507,0.762-0.507,1.57,0,2.414
	c0.676-0.168,1.228-0.039,1.651,0.381c0.44,0.459,0.749,1.029,0.892,1.65c0.165,0.67,0.291,1.348,0.38,2.031
	c0.083,0.678,0.125,1.105,0.125,1.271c1.017-0.844,1.948-0.844,2.794,0c0.847,0.846,1.016,2.199,0.508,4.064
	c1.782-1.797,3.738-3.414,5.84-4.824c2.226-1.453,4.611-2.646,7.11-3.557c0.337-0.844,0.549-1.986,0.636-3.428
	c0.098-1.369-0.211-2.738-0.888-3.934c-0.851,0.342-1.823,0.68-2.919,1.016c-1.097,0.334-1.983,0.168-2.662-0.5
	c-1.017-0.844-1.693-2.283-2.032-4.316c0-1.689,0.932-2.705,2.794-3.047c0.168-1.016-0.086-2.156-0.762-3.426
	c-0.675-1.268-1.521-1.902-2.54-1.904c-0.949-0.025-1.867,0.342-2.537,1.016c-0.679,0.68-1.018,1.357-1.018,2.033
	c-0.027,0.805,0.421,1.549,1.143,1.904c0.763,0.426,0.975,0.975,0.636,1.65c-0.508,0.85-1.438,0.805-2.794-0.125
	c-1.354-0.932-2.032-2.072-2.032-3.428c-0.053-1.58,0.655-3.09,1.904-4.061c1.196-0.984,2.651-1.604,4.191-1.779
	c3.382,0,5.962,1.016,7.741,3.045c1.778,2.031,2.837,4.059,3.176,6.084c0.479,2.172,0.774,4.381,0.887,6.602
	c0.084,2.039-0.044,4.08-0.382,6.094c4.063-0.846,8.296-0.76,12.696,0.256c2.032,0.506,4.063,1.646,6.093,3.424
	s3.05,4.273,3.058,7.49C125.741,163.117,125.116,164.627,124.083,165.844z M116.719,206.467c-3.225-0.178-6.458-0.008-9.646,0.506
	c-3.11,0.516-6.247,0.855-9.396,1.016c-4.57,0-8.379-1.396-11.425-4.191c-3.045-2.793-4.653-6.389-4.824-10.789
	c0.004-2.594,0.217-5.184,0.636-7.744c0.398-2.564,1.305-5.025,2.666-7.236c0.358-0.361,0.697-0.744,1.016-1.143
	c0.298-0.402,0.77-0.639,1.271-0.635c0.754-0.035,1.488,0.24,2.033,0.76c2.368-0.336,4.78,0.004,7.236,1.018
	c2.455,1.016,3.853,3.131,4.19,6.348c0.165,1.863-0.344,3.344-1.524,4.443c-1.186,1.104-2.454,1.65-3.808,1.65
	c-0.94,0.041-1.824-0.449-2.283-1.271c-0.483-0.76-0.746-1.639-0.762-2.539c0-1.016,0.338-1.521,1.015-1.521
	c0.845-0.338,1.438-0.084,1.779,0.762c0.145,0.287,0.271,0.584,0.38,0.887c0.115,0.289,0.346,0.52,0.635,0.635
	c0.637,0.023,1.229-0.322,1.523-0.887c0.335-0.578,0.51-1.236,0.507-1.904c0-1.354-0.465-2.367-1.396-3.045
	c-1.006-0.699-2.21-1.055-3.435-1.014c-2.537-0.168-4.866,0.807-6.984,2.92c-2.119,2.113-3.261,4.865-3.425,8.256h1.015
	c0.372-0.549,0.798-1.059,1.271-1.521c0.449-0.492,1.136-0.688,1.776-0.508c0.846,0,1.661,0.316,2.286,0.887
	c0.645,0.531,1.017,1.322,1.016,2.158c0.041,0.916-0.332,1.803-1.016,2.414c-0.624,0.572-1.439,0.889-2.286,0.887
	c-1.691,0-2.707-0.762-3.045-2.283h-1.016c0.337,3.895,2.029,7.025,5.078,9.395s6.603,3.383,10.663,3.045
	c0.338,0,0.466-0.209,0.38-0.635c-0.043-0.326-0.174-0.633-0.38-0.887c-0.747-0.725-1.605-1.324-2.542-1.775
	c-1.016-0.506-1.355-1.271-1.016-2.283c0.168-0.846,0.507-1.352,1.016-1.523c0.576-0.178,1.176-0.264,1.778-0.254
	c0.595-0.006,1.189,0.037,1.777,0.127c0.461,0.1,0.941-0.045,1.271-0.383c0.168-0.168,0.338-0.635,0.508-1.396
	s0.38-1.561,0.634-2.412c0.259-0.857,0.645-1.67,1.143-2.412c0.51-0.762,1.356-1.314,2.54-1.654
	c0.759-0.189,1.563-0.002,2.158,0.504c0.589,0.508,0.916,1.256,0.888,2.033c0.179,0.416,0.131,0.896-0.126,1.27
	c-0.195,0.307-0.529,0.496-0.892,0.506c-0.848,0.342-1.313,0.215-1.397-0.379c-0.083-0.596-0.295-0.891-0.633-0.887
	c-0.85,0.17-1.271,1.102-1.271,2.793c0,1.693-0.172,2.967-0.508,3.813c-0.479,1.82-1.667,3.375-3.299,4.316
	c-0.172,0.17-0.256,0.504-0.256,1.014c-0.036,0.246,0.133,0.473,0.377,0.508c0.043,0.008,0.087,0.008,0.131,0
	c0.867-0.033,1.725-0.203,2.54-0.504c0.955-0.301,1.825-0.822,2.54-1.523c0.674-0.844,1.646-1.986,2.92-3.428
	c1.272-1.439,2.584-2.412,3.935-2.92c1.69-0.844,2.706-0.758,3.048,0.258c-0.037,0.426-0.216,0.826-0.508,1.141
	c-0.34,0.418-0.503,1.047-0.503,1.893c0.944-0.639,1.968-1.15,3.045-1.523c2.37-0.338,2.964,0.762,1.779,3.299
	c1.229,0.287,2.392,0.805,3.427,1.523c0.932,0.678,1.312,1.693,1.142,3.047C122.052,206.809,119.597,206.469,116.719,206.467z
	 M123.705,49.561c-1.033,0.723-2.195,1.238-3.423,1.521c1.181,2.539,0.588,3.639-1.779,3.301c-1.015-0.168-2.03-0.676-3.045-1.523
	c0,0.85,0.168,1.486,0.508,1.904c0.29,0.314,0.469,0.715,0.507,1.141c-0.341,1.018-1.357,1.104-3.047,0.256
	c-1.357-0.508-2.669-1.482-3.936-2.918c-1.267-1.438-2.241-2.58-2.924-3.428c-0.717-0.699-1.587-1.221-2.54-1.523
	c-0.815-0.299-1.671-0.469-2.538-0.508c-0.343,0-0.552,0.215-0.636,0.637c-0.084,0.42,0.04,0.721,0.382,0.887
	c1.632,0.941,2.82,2.494,3.299,4.316c0.338,0.85,0.508,2.121,0.508,3.811c0,1.691,0.422,2.531,1.271,2.531
	c0.338,0.17,0.547-0.039,0.633-0.635c0.087-0.596,0.55-0.721,1.397-0.379c0.362,0.012,0.695,0.199,0.892,0.504
	c0.257,0.375,0.305,0.854,0.126,1.271c0.03,0.777-0.297,1.525-0.888,2.033c-0.595,0.51-1.399,0.701-2.16,0.512
	c-1.186-0.168-2.032-0.676-2.54-1.523c-0.486-0.795-0.87-1.648-1.144-2.539c-0.254-0.846-0.466-1.65-0.633-2.412
	c-0.11-0.568-0.28-1.121-0.508-1.654c-0.4-0.172-0.845-0.217-1.271-0.125c-0.587,0.092-1.182,0.135-1.776,0.125
	c-0.603,0.012-1.203-0.074-1.778-0.252c-0.506-0.168-0.848-0.676-1.016-1.523c-0.342-1.016,0-1.779,1.016-2.285
	c0.889-0.432,1.739-0.941,2.54-1.521c0.175-0.363,0.303-0.748,0.379-1.143c0.084-0.42-0.042-0.637-0.379-0.637
	c-4.063-0.336-7.618,0.678-10.664,3.045c-3.045,2.367-4.738,5.5-5.078,9.395h1.016c0.338-1.521,1.354-2.283,3.048-2.283
	c0.845,0.002,1.659,0.318,2.284,0.887c0.683,0.613,1.055,1.498,1.015,2.414c0.004,0.836-0.369,1.629-1.015,2.158
	c-0.624,0.572-1.438,0.889-2.284,0.889c-0.642,0.18-1.33-0.018-1.779-0.508c-0.474-0.465-0.899-0.975-1.271-1.523h-1.015
	c0.168,3.389,1.31,6.141,3.427,8.254s4.446,3.088,6.985,2.92c1.261,0.027,2.5-0.328,3.556-1.018
	c1.017-0.674,1.437-1.691,1.271-3.045c0.002-0.67-0.174-1.326-0.507-1.904c-0.295-0.564-0.888-0.91-1.523-0.889
	c-0.342,0.174-0.677,0.762-1.015,1.779c-0.342,0.678-0.935,0.848-1.779,0.506c-0.677,0-1.015-0.506-1.015-1.523
	c0.016-0.9,0.278-1.777,0.761-2.537c0.462-0.82,1.345-1.313,2.284-1.271c1.354,0,2.623,0.551,3.807,1.65
	c1.185,1.102,1.693,2.582,1.525,4.443c-0.342,3.217-1.738,5.332-4.19,6.346c-2.453,1.014-4.865,1.354-7.236,1.018
	c-0.545,0.521-1.28,0.797-2.033,0.762c-0.508,0.17-0.976,0-1.396-0.508c-0.422-0.508-0.806-0.932-1.144-1.271
	c-1.207-2.258-2.022-4.705-2.412-7.236c-0.419-2.559-0.632-5.148-0.636-7.744c0.169-4.404,1.779-8.004,4.829-10.797
	c3.05-2.795,6.858-4.191,11.425-4.191c3.148,0.162,6.285,0.5,9.395,1.016c3.189,0.52,6.426,0.693,9.653,0.518
	c2.876,0,5.33-0.338,7.362-1.018C125.013,47.875,124.631,48.891,123.705,49.561z M92.738,89.801
	c-3.135-3.301-6.479-5.629-10.03-6.986c1.354,3.727,3.639,7.152,6.854,10.283c3.117,3.066,6.721,5.598,10.664,7.49
	c-1.919-3.967-4.449-7.607-7.497-10.787H92.738z M89.818,161.279c-3.217,3.215-5.503,6.602-6.856,10.154
	c3.726-1.354,7.11-3.682,10.156-6.984c2.983-3.207,5.466-6.844,7.364-10.791c-3.967,1.91-7.577,4.488-10.673,7.617L89.818,161.279z
	 M123.579,236.811c-0.517,3.234-0.772,6.504-0.764,9.779c-0.007,1.273,0.079,2.545,0.256,3.807c0.17,1.201,0.424,2.389,0.762,3.555
	c-1.111,0.199-2.239-0.242-2.92-1.143c-0.786-0.982-1.271-2.172-1.396-3.426c-1.357,0.68-2.288,0.764-2.794,0.254
	c-0.508-0.508-0.678-1.18-0.508-2.033c-0.023-0.574,0.108-1.145,0.382-1.65c0.254-0.418,0.547-0.971,0.887-1.65
	c-0.599,0.131-1.162,0.391-1.65,0.762c-0.427,0.342-0.809,0.422-1.144,0.254c-1.015-0.168-1.104-1.1-0.254-2.795
	c0.508-1.352,1.435-2.666,2.794-3.934c1.36-1.27,2.452-2.328,3.3-3.176c0.675-0.506,1.226-1.311,1.652-2.412
	c0.427-1.104,0.554-1.992,0.38-2.666c0-0.168-0.214-0.293-0.636-0.381c-0.421-0.086-0.722,0.043-0.887,0.381
	c-1.187,1.695-2.54,2.795-4.063,3.301c-1.015,0.342-2.368,0.512-4.061,0.508c-1.691-0.004-2.538,0.42-2.54,1.268
	c0,0.342,0.257,0.506,0.762,0.506s0.675,0.428,0.508,1.271c0,1.188-0.594,1.609-1.776,1.271c-0.79-0.133-1.509-0.537-2.033-1.143
	c-0.485-0.506-0.677-1.225-0.508-1.904c0.168-1.182,0.676-2.07,1.523-2.664c0.772-0.559,1.63-0.986,2.54-1.271
	c0.787-0.24,1.595-0.41,2.412-0.508c0.761-0.084,1.225-0.293,1.396-0.635c0.168-0.168,0.21-0.547,0.126-1.141
	c-0.082-0.549-0.124-1.1-0.126-1.654c-0.011-0.602,0.075-1.201,0.254-1.775c0.168-0.508,0.676-0.846,1.522-1.016
	c1.186-0.34,2.033-0.039,2.54,0.887c0.449,0.84,0.958,1.646,1.523,2.412c0.255,0.301,0.621,0.484,1.015,0.508
	c0.508,0,0.762-0.168,0.762-0.508c0.338-4.063-0.677-7.576-3.046-10.537c-2.368-2.963-5.5-4.611-9.395-4.951v0.762
	c1.522,0.68,2.284,1.779,2.284,3.299c0.006,0.838-0.367,1.631-1.015,2.158c-1.294,1.186-3.277,1.186-4.571,0
	c-0.648-0.527-1.023-1.32-1.017-2.158c0-1.689,0.761-2.705,2.283-3.045v-1.271c-3.388,0.342-6.182,1.568-8.382,3.682
	c-2.199,2.113-3.214,4.441-3.045,6.984c0.164,1.184,0.598,2.313,1.267,3.303c0.675,1.014,1.691,1.521,3.048,1.521
	c0.668,0.004,1.324-0.172,1.902-0.508c0.591-0.336,0.801-0.93,0.636-1.775c0.021-0.313-0.199-0.588-0.508-0.637
	c-0.353-0.086-0.692-0.215-1.016-0.381c-0.507-0.168-0.761-0.674-0.761-1.523c0.167-0.674,0.761-1.016,1.776-1.016
	c2.198-0.338,3.468,0.678,3.812,3.047c0,1.355-0.552,2.584-1.653,3.68c-1.103,1.098-2.583,1.564-4.442,1.398
	c-3.389-0.338-5.547-1.734-6.475-4.191c-0.914-2.295-1.219-4.789-0.888-7.236c-0.678-0.338-1.017-1.014-1.015-2.033
	c0-0.844,0.673-1.605,2.027-2.283c2.199-1.24,4.611-2.059,7.111-2.412c2.604-0.414,5.235-0.627,7.871-0.637
	c4.401,0.17,7.998,1.734,10.792,4.697c2.794,2.961,4.106,6.729,3.938,11.299c0.002,3.189-0.252,6.375-0.759,9.525L123.579,236.811z
	 M121.165,38.008c-2.794,2.963-6.392,4.527-10.792,4.695c-2.637-0.006-5.269-0.219-7.872-0.635c-2.501-0.35-4.913-1.168-7.11-2.412
	c-1.355-0.676-2.028-1.438-2.028-2.285c0-1.018,0.338-1.689,1.016-2.031c-0.332-2.449-0.026-4.941,0.887-7.236
	c0.932-2.451,3.09-3.85,6.475-4.191c1.863-0.338,3.344,0.086,4.442,1.271c1.1,1.184,1.65,2.453,1.653,3.807
	c-0.134,0.955-0.635,1.82-1.396,2.412c-0.665,0.57-1.555,0.805-2.415,0.635c-1.015,0-1.608-0.338-1.776-1.016
	c-0.034-0.605,0.255-1.186,0.762-1.521c0.324-0.162,0.664-0.289,1.015-0.383c0.31-0.047,0.531-0.322,0.508-0.635
	c0.168-0.846-0.042-1.396-0.636-1.65c-0.617-0.26-1.253-0.473-1.902-0.637c-1.358,0-2.374,0.508-3.048,1.523
	c-0.668,0.99-1.101,2.119-1.267,3.301c-0.172,2.539,0.802,4.867,2.92,6.986c2.119,2.117,4.955,3.346,8.508,3.686V40.42
	c-1.522-0.338-2.284-1.352-2.284-3.047c-0.004-0.836,0.37-1.629,1.018-2.158c0.623-0.57,1.438-0.889,2.284-0.887
	c0.811-0.014,1.592,0.307,2.158,0.887c0.589,0.59,0.986,1.342,1.141,2.158c0,1.693-0.846,2.793-2.538,3.301l0.254,0.76
	c3.892-0.336,7.023-1.986,9.395-4.949c2.372-2.963,3.388-6.475,3.048-10.537c0-0.338-0.256-0.508-0.764-0.508
	c-0.393,0.025-0.759,0.209-1.015,0.508c-0.563,0.768-1.071,1.572-1.521,2.412c-0.509,0.932-1.355,1.227-2.54,0.887
	c-0.848-0.166-1.355-0.506-1.522-1.016c-0.167-0.49-0.253-1.004-0.254-1.521c-0.004-0.637,0.038-1.271,0.125-1.9
	c0.084-0.59,0.04-0.971-0.125-1.141c-0.166-0.17-0.636-0.34-1.397-0.508c-0.761-0.168-1.566-0.379-2.412-0.637
	c-0.91-0.281-1.769-0.711-2.54-1.271c-0.848-0.588-1.355-1.477-1.522-2.662c-0.169-0.68,0.022-1.398,0.508-1.904
	c0.526-0.604,1.243-1.008,2.032-1.145c1.181-0.338,1.776,0.09,1.776,1.271c0.168,0.85,0,1.271-0.508,1.271
	c-0.507,0-0.761,0.17-0.761,0.508c0,0.848,0.845,1.266,2.54,1.266c1.694,0,3.045,0.174,4.061,0.508
	c1.525,0.51,2.88,1.609,4.063,3.303c0.168,0.342,0.466,0.465,0.888,0.379c0.421-0.086,0.635-0.209,0.635-0.379
	c0.168-0.676,0.042-1.564-0.379-2.666c-0.427-1.1-0.976-1.904-1.653-2.412c-0.848-0.846-1.947-1.904-3.299-3.176
	c-1.353-1.273-2.283-2.584-2.794-3.936c-0.851-1.521-0.762-2.451,0.254-2.793c0.34-0.168,0.719-0.084,1.143,0.254
	c0.487,0.373,1.051,0.633,1.651,0.76c-0.343-0.672-0.636-1.225-0.888-1.65c-0.274-0.506-0.406-1.076-0.382-1.65
	c-0.169-0.844,0-1.521,0.508-2.033c0.508-0.508,1.437-0.418,2.794,0.254c0.127-1.252,0.612-2.441,1.396-3.424
	c0.683-0.898,1.81-1.34,2.92-1.145c-0.336,1.166-0.591,2.355-0.761,3.557c-0.176,1.26-0.261,2.533-0.254,3.807
	c-0.01,3.273,0.245,6.545,0.761,9.779c0.508,3.146,0.763,6.33,0.762,9.52C125.269,31.279,123.955,35.045,121.165,38.008z
	 M123.448,119.379c-0.396,0.652-0.968,1.182-1.65,1.525c1.015,1.014,1.438,1.775,1.271,2.283c-0.342,0.342-1.188,0.002-2.54-1.018
	c-1.016,1.523-2.284,2.201-3.807,2.033c-0.851-0.338-1.397-1.182-1.651-2.539c-0.24-1.307-0.624-2.586-1.143-3.811
	c0.336,2.205,0.124,3.896-0.636,5.078c-0.761,1.182-1.648,1.096-2.664-0.254c-0.68,0.678-1.78,0.848-3.302,0.508
	c-0.981-0.311-1.802-0.994-2.283-1.904c-0.51-0.932-0.595-1.82-0.257-2.666c0-0.338,0.257-0.506,0.764-0.506
	c0.673,0,1.016,0.17,1.016,0.506c0.366,0.395,0.628,0.875,0.761,1.396c0.168,0.596,0.508,0.893,1.016,0.893
	c1.862,0,2.794-1.355,2.794-4.064c-0.134-1.041-0.389-2.063-0.762-3.045c-0.296-0.76-0.679-1.484-1.141-2.158
	c-0.355-0.449-0.615-0.969-0.762-1.521c-0.088-0.422,0.057-0.859,0.38-1.145c0.675-0.674,1.521-0.506,2.54,0.508
	s2.711,1.605,5.078,1.777c1.351,0.172,2.365-0.041,3.046-0.637c0.646-0.529,1.02-1.322,1.015-2.158c0-0.506-0.296-0.844-0.887-1.016
	c-0.481-0.123-0.949-0.293-1.397-0.506c-0.342-0.168-0.508-0.508-0.508-1.016s0.168-0.846,0.508-1.018
	c0.937-0.348,1.985-0.205,2.794,0.381c0.792,0.529,1.41,1.281,1.776,2.158c0.34,1.523,0.168,2.711-0.505,3.557
	c1.351,0.848,1.435,1.65,0.254,2.412c-1.182,0.76-2.874,0.973-5.078,0.635c1.232,0.527,2.505,0.951,3.807,1.271
	c1.353,0.342,2.198,0.932,2.54,1.777c0.178,0.781,0.039,1.604-0.387,2.283V119.379z M121.678,138.803
	c-1.383,0.236-2.714,0.709-3.937,1.398c2.197-0.338,3.891-0.125,5.078,0.635s1.103,1.566-0.254,2.414
	c0.844,0.848,1.098,1.947,0.761,3.299c-0.329,1.004-1.003,1.857-1.901,2.412c-0.858,0.586-1.943,0.729-2.923,0.383
	c-0.34-0.168-0.505-0.508-0.505-1.016s0.168-0.846,0.505-1.018c0.51-0.168,1.018-0.336,1.525-0.508
	c0.466-0.109,0.785-0.537,0.762-1.014c0-2.199-1.271-3.131-3.812-2.795c-2.37,0.172-4.104,0.766-5.204,1.779
	c-1.099,1.014-1.988,1.182-2.668,0.506c-0.327-0.283-0.43-0.746-0.254-1.143c0.218-0.523,0.473-1.033,0.762-1.521
	c0.337-0.592,0.718-1.311,1.143-2.158c0.445-0.953,0.663-1.996,0.636-3.049c0-2.537-0.932-3.807-2.794-3.807
	c-0.678,0-1.104,0.256-1.271,0.762c-0.167,0.506-0.342,1.018-0.507,1.523c-0.17,0.342-0.506,0.508-1.016,0.508
	s-0.761-0.168-0.761-0.508c-0.345-0.965-0.253-2.031,0.253-2.92c0.484-0.908,1.304-1.592,2.284-1.902
	c1.523-0.338,2.623-0.084,3.302,0.762c1.016-1.354,1.903-1.439,2.666-0.256c0.762,1.182,0.974,2.791,0.636,4.824
	c0.555-1.166,0.938-2.406,1.141-3.682c0.253-1.438,0.804-2.242,1.65-2.412c0.846-0.34,1.606-0.293,2.287,0.125
	c0.649,0.4,1.177,0.971,1.522,1.65c1.351-1.014,2.196-1.354,2.538-1.014c0.509,0.168,0.085,0.93-1.271,2.283
	c1.69,0.848,2.368,2.117,2.032,3.807C123.914,138.002,123.108,138.549,121.678,138.803z M116.468,114.936
	c-1.358-1.098-2.713-1.816-4.063-2.158c0.396,1.467,1.135,2.816,2.158,3.938c1.098,1.27,2.578,2.074,4.442,2.412
	C118.686,117.473,117.787,115.986,116.468,114.936z M114.815,137.535c-1.022,1.121-1.762,2.471-2.158,3.934
	c1.557-0.352,2.999-1.094,4.19-2.158c1.26-1.08,2.111-2.559,2.415-4.189C117.396,135.463,115.914,136.268,114.815,137.535z
	 M173.084,108.59c-1.186,1.266-2.539,1.898-4.061,1.898c-1.089,0.039-2.146-0.373-2.922-1.141c-0.761-0.764-1.141-1.564-1.141-2.414
	c0.034-0.977,0.295-1.934,0.762-2.793c0.167-0.338,0.636-0.467,1.396-0.381c0.762,0.086,1.055,0.297,0.888,0.637
	c-0.51,2.199,0.083,3.299,1.778,3.299c0.831,0.01,1.604-0.426,2.028-1.141c0.507-0.762,0.507-1.564,0-2.414
	c-0.678,0.342-1.229,0.256-1.651-0.254c-0.429-0.516-0.732-1.125-0.887-1.777c-0.17-0.668-0.298-1.348-0.382-2.033
	c-0.086-0.674-0.126-1.1-0.126-1.27c-1.015,0.848-1.946,0.848-2.794,0s-1.016-2.203-0.505-4.064c-1.782,1.801-3.738,3.42-5.84,4.834
	c-2.227,1.453-4.612,2.646-7.11,3.555c-0.342,0.848-0.554,1.99-0.636,3.428c-0.104,1.371,0.206,2.742,0.888,3.936
	c0.844-0.338,1.817-0.676,2.919-1.016c0.995-0.355,2.103-0.164,2.92,0.506c0.845,0.85,1.438,2.289,1.779,4.316
	c0,1.695-0.932,2.711-2.794,3.047c-0.173,1.016,0.083,2.119,0.761,3.301c0.678,1.18,1.522,1.777,2.538,1.777
	c0.929,0.033,1.836-0.285,2.54-0.891c0.673-0.59,1.016-1.225,1.016-1.902c0.024-0.805-0.421-1.549-1.142-1.904
	c-0.761-0.42-0.976-0.971-0.636-1.652c0.507-0.844,1.438-0.801,2.794,0.127c1.357,0.928,2.033,2.07,2.028,3.428
	c0,1.691-0.634,3.045-1.902,4.061c-1.195,0.986-2.651,1.604-4.19,1.777c-3.389,0-5.97-1.014-7.744-3.045
	c-1.774-2.029-2.83-4.061-3.169-6.09c-0.482-2.172-0.778-4.381-0.887-6.602c-0.089-2.039,0.039-4.08,0.379-6.094
	c-4.062,0.842-8.296,0.758-12.703-0.254c-2.031-0.506-4.063-1.646-6.095-3.424c-2.032-1.777-3.044-4.275-3.036-7.492
	c-0.037-1.6,0.556-3.15,1.65-4.316c1.092-1.18,2.588-1.906,4.191-2.033c1.353,0,2.495,0.678,3.427,2.033
	c0.932,1.354,0.974,2.285,0.126,2.793c-0.678,0.342-1.229,0.125-1.651-0.635c-0.356-0.721-1.101-1.166-1.904-1.141
	c-0.678,0-1.313,0.338-1.904,1.014c-0.603,0.705-0.92,1.611-0.888,2.539c0,1.186,0.594,2.074,1.779,2.666
	c1.181,0.594,2.284,0.805,3.299,0.635c0.337-1.863,1.353-2.793,3.046-2.793c2.198,0.34,3.637,1.018,4.316,2.031
	c0.676,0.678,0.892,1.611,0.636,2.795c-0.21,1.07-0.596,2.1-1.141,3.045c1.241,0.518,2.587,0.734,3.928,0.633
	c1.438-0.084,2.579-0.295,3.427-0.635c0.796-2.443,1.951-4.754,3.428-6.855c1.52-2.135,3.173-4.17,4.95-6.096
	c-1.863,0.51-3.217,0.34-4.061-0.506c-0.845-0.848-0.845-1.779,0-2.795c-0.173,0-0.594-0.039-1.271-0.129
	c-0.685-0.084-1.363-0.211-2.033-0.379c-0.652-0.154-1.26-0.459-1.776-0.887c-0.509-0.422-0.594-0.973-0.256-1.652
	c-0.779-0.342-1.674-0.295-2.412,0.127c-0.721,0.355-1.166,1.1-1.141,1.902c0,0.85,0.293,1.439,0.887,1.779s1.397,0.34,2.412,0
	c0.338-0.168,0.547,0.125,0.636,0.887s-0.042,1.229-0.382,1.396c-0.86,0.467-1.816,0.727-2.794,0.762
	c-0.851,0-1.612-0.381-2.286-1.143s-1.013-1.736-1.016-2.92c0-1.523,0.593-2.877,1.776-4.061c1.185-1.184,2.709-1.607,4.573-1.271
	c0.505-0.676,1.099-1.018,1.776-1.018c0.924,0.021,1.832,0.238,2.666,0.637c0.851,0.379,1.659,0.848,2.412,1.396
	c0.675,0.508,1.102,0.762,1.271,0.762c0.507-1.182,1.099-1.863,1.778-2.033c0.659-0.168,1.359-0.027,1.902,0.381
	c0.592,0.426,1.099,1.104,1.522,2.033c0.43,1,0.563,2.102,0.382,3.174c1.351-1.35,3.255-2.662,5.714-3.936
	c2.459-1.271,4.193-1.738,5.204-1.396c0.337,1.016-0.129,2.75-1.397,5.203c-1.268,2.455-2.58,4.359-3.935,5.715
	c1.077-0.182,2.185-0.047,3.188,0.387c0.931,0.424,1.608,0.934,2.032,1.523c0.41,0.545,0.55,1.244,0.38,1.902
	c-0.169,0.68-0.847,1.271-2.033,1.779c0.297,0.535,0.637,1.045,1.018,1.523c0.521,0.703,0.949,1.471,1.271,2.283
	c0.324,0.811,0.535,1.662,0.629,2.531c0.08,0.848-0.301,1.439-1.144,1.777C174.691,105.754,174.268,107.322,173.084,108.59z
	 M169.658,172.955c-2.454-1.186-4.442-2.539-5.965-4.063c0.167,2.373-0.51,4.15-2.033,5.332c-1.522,1.18-2.707,0.588-3.555-1.777
	c-0.404,0.359-0.827,0.699-1.267,1.016c-0.719,0.533-1.483,1.002-2.287,1.396c-0.791,0.408-1.651,0.666-2.537,0.762
	c-0.851,0.088-1.439-0.293-1.779-1.141c-2.027,0.342-3.642-0.084-4.821-1.271c-1.181-1.188-1.779-2.539-1.779-4.063
	c-0.021-1.125,0.388-2.213,1.144-3.047c0.762-0.844,1.565-1.268,2.412-1.271c0.478-0.002,0.951,0.084,1.396,0.258
	c0.49,0.207,0.958,0.461,1.397,0.76c0.337,0.17,0.466,0.637,0.382,1.398c-0.084,0.76-0.298,1.057-0.636,0.887
	c-2.201-0.676-3.302-0.084-3.302,1.775c-0.207,0.768,0.167,1.57,0.887,1.906c0.764,0.426,1.565,0.381,2.415-0.127
	c-0.343-0.676-0.256-1.18,0.254-1.521c0.544-0.357,1.145-0.617,1.776-0.77c0.668-0.166,1.345-0.293,2.027-0.381
	c0.506-0.07,1.016-0.113,1.525-0.127c-1.018-1.18-1.06-2.158-0.128-2.92c0.932-0.76,2.328-0.971,4.19-0.635
	c-1.814-1.801-3.471-3.756-4.952-5.84c-1.476-2.104-2.631-4.416-3.427-6.861c-1.153-0.363-2.348-0.576-3.556-0.635
	c-1.302-0.094-2.607,0.125-3.809,0.635c0.34,0.848,0.675,1.818,1.018,2.92c0.342,1.102,0.167,2.074-0.508,2.92
	c-1.016,1.184-2.539,1.775-4.57,1.775c-1.523,0.342-2.454-0.59-2.794-2.793c-1.238,0.014-2.456,0.316-3.556,0.887
	c-1.186,0.598-1.778,1.486-1.778,2.666c0.008,0.869,0.376,1.697,1.017,2.285c0.673,0.676,1.354,1.016,2.033,1.016
	c0.773,0.039,1.505-0.352,1.902-1.016c0.421-0.674,0.971-0.846,1.652-0.506c0.845,0.506,0.802,1.438-0.128,2.793
	c-0.93,1.357-2.075,1.953-3.437,1.789c-1.614,0.037-3.157-0.664-4.19-1.904c-1.054-1.143-1.643-2.637-1.651-4.191
	c-0.172-3.217,0.802-5.713,2.92-7.492c2.119-1.779,4.191-2.836,6.219-3.174c4.736-1.016,8.883-1.186,12.44-0.508
	c-0.335-2.008-0.459-4.047-0.37-6.082c0.108-2.221,0.405-4.43,0.887-6.602c0.34-2.033,1.441-4.109,3.304-6.227
	c1.863-2.117,4.401-3.09,7.616-2.92c1.522,0,2.92,0.551,4.19,1.65c1.239,1.035,1.94,2.578,1.905,4.191
	c0,1.357-0.678,2.5-2.033,3.428c-1.354,0.928-2.201,0.971-2.54,0.125c-0.506-0.674-0.379-1.227,0.382-1.652
	c0.723-0.354,1.17-1.1,1.144-1.902c0-0.676-0.343-1.354-1.018-2.033c-0.59-0.637-1.416-1.004-2.284-1.014
	c-1.186,0-2.117,0.633-2.794,1.9c-0.677,1.27-0.931,2.412-0.762,3.428c0.777-0.027,1.525,0.299,2.033,0.887
	c0.479,0.521,0.749,1.199,0.761,1.906c-0.341,2.199-0.934,3.723-1.778,4.57c-0.815,0.672-1.925,0.865-2.92,0.506
	c-1.101-0.336-2.073-0.674-2.92-1.014c-0.669,1.15-0.979,2.477-0.887,3.807c0.056,1.207,0.27,2.402,0.636,3.555
	c2.534,0.764,4.933,1.918,7.11,3.422c2.081,1.486,4.034,3.143,5.84,4.953c-0.343-1.863-0.126-3.26,0.636-4.191
	c0.761-0.932,1.65-0.973,2.665-0.127c0-0.166,0.038-0.59,0.126-1.268c0.089-0.695,0.258-1.377,0.506-2.033
	c0.208-0.592,0.509-1.15,0.892-1.65c0.337-0.422,0.844-0.549,1.522-0.381c0.506-0.846,0.506-1.648,0-2.412
	c-0.508-0.762-1.188-1.055-2.032-0.893c-1.863,0-2.371,1.102-1.523,3.303c0.168,0.342-0.172,0.551-1.018,0.635
	c-0.845,0.084-1.354-0.039-1.522-0.381c-0.461-0.854-0.72-1.803-0.757-2.771c0-0.846,0.419-1.65,1.271-2.412
	c0.751-0.723,1.751-1.131,2.794-1.141c1.522,0,2.877,0.592,4.063,1.775c1.187,1.186,1.694,2.793,1.523,4.824
	c0.673,0.344,1.015,0.932,1.015,1.777c-0.011,0.885-0.229,1.754-0.636,2.541c-0.651,1.281-1.462,2.475-2.412,3.555
	c1.181,0.506,1.902,1.102,2.158,1.775c0.257,0.676,0.126,1.355-0.382,2.033c-0.552,0.711-1.304,1.24-2.158,1.523
	c-1.02,0.348-2.11,0.436-3.173,0.254c1.522,1.521,2.877,3.512,4.063,5.967s1.693,4.189,1.522,5.203
	C173.848,174.65,172.112,174.139,169.658,172.955z M159.629,218.654c0.327,2.449,0.021,4.939-0.892,7.236
	c-0.931,2.457-3.09,3.854-6.475,4.191c-1.863,0.168-3.344-0.297-4.442-1.396c-1.104-1.1-1.651-2.33-1.651-3.682
	c0.134-0.955,0.635-1.82,1.397-2.412c0.666-0.566,1.553-0.801,2.412-0.637c1.018,0,1.606,0.34,1.778,1.016
	c0,0.85-0.256,1.355-0.761,1.523c-0.324,0.164-0.665,0.293-1.018,0.381c-0.31,0.047-0.53,0.324-0.508,0.637
	c-0.17,0.848,0.04,1.438,0.636,1.775c0.578,0.336,1.235,0.512,1.904,0.508c1.354,0,2.369-0.508,3.046-1.521
	c0.667-0.992,1.102-2.119,1.271-3.303c0.167-2.537-0.806-4.865-2.92-6.984s-4.949-3.346-8.506-3.682v1.271
	c1.523,0.342,2.284,1.357,2.284,3.045c0.005,0.836-0.368,1.629-1.015,2.158c-0.623,0.572-1.438,0.889-2.284,0.889
	c-0.812,0.016-1.594-0.305-2.158-0.889c-0.593-0.584-0.992-1.338-1.144-2.158c0-1.689,0.846-2.793,2.54-3.299l-0.256-0.762
	c-3.895,0.34-7.026,1.988-9.395,4.951c-2.368,2.961-3.384,6.475-3.046,10.537c-0.035,0.244,0.133,0.473,0.377,0.508
	c0.044,0.006,0.088,0.006,0.131,0c0.476,0.014,0.937-0.17,1.271-0.508c0.69-0.697,1.25-1.516,1.65-2.412
	c0.42-0.932,1.225-1.227,2.412-0.887c0.676,0.17,1.144,0.506,1.397,1.016c0.264,0.555,0.394,1.162,0.382,1.775
	c-0.005,0.555-0.047,1.105-0.128,1.654c-0.086,0.594-0.043,0.975,0.128,1.141c0.165,0.342,0.633,0.551,1.396,0.635
	c0.817,0.098,1.625,0.268,2.412,0.508c0.873,0.27,1.688,0.701,2.403,1.27c0.762,0.594,1.313,1.482,1.653,2.664
	c0.166,0.68-0.024,1.396-0.508,1.904c-0.525,0.604-1.243,1.008-2.033,1.143c-1.187,0-1.776-0.422-1.776-1.271
	c-0.172-0.846,0-1.271,0.506-1.271c0.505,0,0.761-0.168,0.761-0.508c0-0.844-0.846-1.266-2.537-1.266
	c-1.695,0-3.046-0.168-4.063-0.508c-1.522-0.51-2.876-1.609-4.061-3.301c-0.16-0.332-0.541-0.496-0.892-0.381
	c-0.426,0.086-0.636,0.213-0.636,0.381c-0.169,0.678-0.042,1.566,0.382,2.666c0.424,1.098,0.975,1.902,1.651,2.412
	c0.844,0.85,1.944,1.908,3.301,3.176c1.357,1.266,2.288,2.578,2.794,3.934c0.845,1.523,0.76,2.455-0.256,2.795
	c-0.342,0.17-0.722,0.088-1.141-0.254c-0.49-0.369-1.054-0.629-1.653-0.762c0.34,0.678,0.636,1.229,0.892,1.65
	c0.272,0.506,0.404,1.076,0.38,1.65c0.167,0.85,0,1.523-0.508,2.033s-1.438,0.426-2.794-0.254c-0.128,1.252-0.612,2.441-1.396,3.426
	c-0.682,0.898-1.81,1.34-2.92,1.143c0.692-2.393,1.034-4.873,1.015-7.361c0.01-3.275-0.245-6.547-0.761-9.779
	c-0.51-3.148-0.765-6.332-0.762-9.521c-0.169-4.568,1.143-8.336,3.935-11.299c2.793-2.963,6.39-4.527,10.792-4.695
	c2.637,0.01,5.269,0.221,7.872,0.635c2.5,0.352,4.912,1.166,7.112,2.402c1.354,0.68,2.031,1.439,2.033,2.285
	C160.645,217.639,160.302,218.316,159.629,218.654z M166.992,203.801c-3.047,2.793-6.855,4.189-11.425,4.189
	c-3.148-0.16-6.285-0.498-9.395-1.014c-3.189-0.516-6.425-0.686-9.651-0.508c-2.879,0-5.333,0.338-7.361,1.018
	c-0.176-1.355,0.202-2.373,1.134-3.051c1.039-0.719,2.206-1.232,3.438-1.514c-1.186-2.537-0.594-3.637,1.776-3.299
	c1.078,0.371,2.102,0.883,3.046,1.523c0-0.846-0.169-1.48-0.506-1.906c-0.293-0.311-0.473-0.713-0.507-1.141
	c0.337-1.016,1.352-1.102,3.045-0.256c1.354,0.51,2.666,1.482,3.938,2.92s2.244,2.58,2.92,3.428
	c0.713,0.701,1.583,1.223,2.537,1.521c0.815,0.303,1.673,0.475,2.54,0.508c0.338,0,0.548-0.209,0.636-0.635
	c0.112-0.35-0.051-0.729-0.382-0.887c-1.635-0.938-2.824-2.494-3.301-4.316c-0.339-0.846-0.507-2.115-0.506-3.813
	c0.002-1.695-0.422-2.627-1.271-2.793c-0.342,0-0.552,0.295-0.635,0.887c-0.084,0.592-0.552,0.721-1.397,0.379
	c-0.361-0.01-0.695-0.197-0.89-0.502c-0.259-0.373-0.307-0.855-0.125-1.271c-0.032-0.777,0.295-1.527,0.887-2.033
	c0.595-0.508,1.399-0.697,2.158-0.508c1.181,0.342,2.032,0.893,2.538,1.654c0.499,0.742,0.885,1.555,1.143,2.412
	c0.239,0.787,0.409,1.594,0.508,2.412c0.084,0.76,0.294,1.229,0.636,1.396c0.168,0.342,0.548,0.469,1.141,0.381
	c0.632-0.086,1.268-0.127,1.905-0.125c0.602-0.01,1.201,0.076,1.776,0.254c0.507,0.17,0.845,0.678,1.018,1.523
	c0.337,1.014,0,1.777-1.018,2.283c-0.937,0.453-1.793,1.053-2.538,1.779c-0.209,0.252-0.342,0.561-0.382,0.887
	c-0.086,0.426,0.039,0.635,0.382,0.635c4.061,0.342,7.615-0.674,10.663-3.045c3.049-2.371,4.741-5.504,5.078-9.395h-1.018
	c-0.341,1.523-1.356,2.283-3.045,2.283c-0.846,0.004-1.662-0.313-2.284-0.887c-0.687-0.609-1.061-1.496-1.018-2.414
	c-0.004-0.836,0.37-1.629,1.018-2.158c0.624-0.57,1.438-0.887,2.284-0.887c0.641-0.18,1.327,0.018,1.776,0.508
	c0.473,0.465,0.898,0.975,1.271,1.521h1.018c-0.173-3.385-1.315-6.137-3.428-8.254s-4.44-3.09-6.984-2.918
	c-1.261-0.027-2.5,0.328-3.556,1.016c-1.015,0.68-1.438,1.695-1.267,3.047c-0.005,0.668,0.17,1.326,0.505,1.904
	c0.293,0.566,0.887,0.912,1.523,0.887c0.288-0.117,0.517-0.348,0.636-0.635c0.105-0.305,0.232-0.602,0.382-0.889
	c0.336-0.844,0.929-1.098,1.776-0.76c0.675,0,1.018,0.504,1.018,1.521c-0.017,0.9-0.28,1.777-0.762,2.539
	c-0.46,0.822-1.345,1.314-2.286,1.27c-1.355,0-2.627-0.547-3.807-1.65c-1.181-1.104-1.693-2.576-1.523-4.441
	c0.337-3.217,1.734-5.332,4.191-6.348s4.869-1.354,7.236-1.018c0.544-0.521,1.279-0.797,2.032-0.762
	c0.533,0.014,1.037,0.244,1.397,0.637c0.419,0.426,0.798,0.805,1.141,1.143c1.203,2.262,2.02,4.707,2.414,7.236
	c0.416,2.561,0.628,5.15,0.634,7.744C171.647,197.416,170.038,201.01,166.992,203.801L166.992,203.801z M159.374,39.656
	c-2.197,1.244-4.609,2.063-7.11,2.412c-2.604,0.416-5.235,0.629-7.872,0.635c-4.402-0.168-7.999-1.732-10.792-4.695
	c-2.792-2.963-4.104-6.73-3.935-11.299c-0.002-3.189,0.252-6.373,0.762-9.521c0.516-3.234,0.771-6.504,0.761-9.779
	c0.02-2.49-0.322-4.969-1.015-7.361c1.109-0.193,2.234,0.25,2.915,1.148c0.782,0.984,1.267,2.174,1.396,3.424
	c1.351-0.672,2.284-0.762,2.794-0.254s0.673,1.188,0.506,2.033c0.025,0.574-0.106,1.145-0.38,1.65
	c-0.256,0.426-0.552,0.977-0.892,1.65c0.6-0.129,1.164-0.389,1.653-0.76c0.419-0.338,0.801-0.42,1.141-0.254
	c1.017,0.168,1.102,1.1,0.256,2.793c-0.509,1.357-1.44,2.668-2.794,3.936c-1.354,1.266-2.454,2.324-3.302,3.176
	c-0.677,0.504-1.229,1.313-1.65,2.412c-0.421,1.098-0.552,1.99-0.382,2.666c0,0.17,0.212,0.295,0.636,0.379
	c0.351,0.121,0.735-0.043,0.892-0.379c1.182-1.691,2.535-2.791,4.061-3.303c1.018-0.338,2.368-0.508,4.063-0.508
	c1.695,0,2.538-0.418,2.538-1.266c0-0.34-0.254-0.508-0.761-0.508c-0.508,0-0.678-0.42-0.506-1.271c0-1.18,0.589-1.605,1.776-1.271
	c0.788,0.139,1.506,0.543,2.033,1.145c0.482,0.506,0.673,1.225,0.507,1.904c-0.172,1.188-0.635,2.074-1.396,2.662
	c-0.753,0.592-1.616,1.023-2.54,1.271c-0.932,0.256-1.777,0.469-2.538,0.637c-0.762,0.17-1.229,0.342-1.396,0.508
	c-0.168,0.164-0.215,0.551-0.129,1.141c0.087,0.631,0.13,1.268,0.129,1.904c-0.007,0.531-0.138,1.053-0.382,1.523
	c-0.286,0.533-0.801,0.908-1.397,1.014c-1.186,0.342-2.032,0.047-2.538-0.887c-0.451-0.838-0.96-1.645-1.522-2.412
	c-0.336-0.336-0.796-0.52-1.271-0.508c-0.245-0.033-0.473,0.137-0.507,0.383c-0.006,0.041-0.006,0.084,0,0.125
	c-0.342,4.064,0.673,7.576,3.045,10.537c2.372,2.963,5.503,4.613,9.395,4.951v-0.762c-1.522-0.672-2.284-1.777-2.284-3.299
	c-0.005-0.836,0.369-1.631,1.018-2.158c1.293-1.186,3.277-1.186,4.57,0c0.645,0.531,1.017,1.322,1.016,2.158
	c0,1.691-0.762,2.707-2.284,3.045v1.271c3.555-0.338,6.39-1.564,8.505-3.682c2.116-2.115,3.089-4.443,2.92-6.984
	c-0.171-1.182-0.604-2.311-1.271-3.301c-0.672-1.016-1.685-1.523-3.038-1.523c-0.65,0.162-1.287,0.375-1.904,0.635
	c-0.594,0.254-0.806,0.807-0.636,1.652c-0.024,0.313,0.197,0.59,0.508,0.635c0.351,0.094,0.691,0.221,1.017,0.383
	c0.506,0.336,0.795,0.916,0.762,1.521c-0.172,0.678-0.762,1.016-1.778,1.016c-0.859,0.17-1.749-0.064-2.412-0.635
	c-0.764-0.592-1.266-1.457-1.397-2.412c0-1.354,0.547-2.623,1.65-3.809c1.104-1.184,2.578-1.605,4.442-1.27
	c3.386,0.34,5.544,1.738,6.476,4.189c0.91,2.297,1.218,4.789,0.892,7.236c0.673,0.344,1.015,1.016,1.015,2.033
	c0,0.844-0.677,1.602-2.032,2.277V39.656z M148.71,121.029c-0.481,0.91-1.302,1.594-2.284,1.902c-1.523,0.342-2.627,0.088-3.3-0.762
	c-1.018,1.359-1.904,1.439-2.666,0.256c-0.761-1.182-0.975-2.793-0.635-4.824c-0.559,1.166-0.945,2.408-1.15,3.684
	c-0.254,1.439-0.806,2.248-1.651,2.412c-1.518,0.508-2.784-0.17-3.8-2.033c-0.442,0.447-0.909,0.871-1.396,1.268
	c-0.426,0.342-0.806,0.342-1.144,0c-0.337-0.342,0.084-1.1,1.271-2.283c-1.691-0.846-2.369-2.113-2.032-3.809
	c0.167-0.844,0.973-1.395,2.414-1.65c1.351-0.229,2.671-0.613,3.935-1.143c-2.2,0.17-3.894-0.127-5.077-0.887
	c-1.185-0.762-1.101-1.566,0.253-2.414c-0.847-0.846-1.101-2.029-0.761-3.555c0.39-0.902,1.057-1.658,1.904-2.158
	c0.858-0.582,1.94-0.723,2.92-0.381c0.337,0.17,0.508,0.508,0.508,1.016s-0.173,0.85-0.508,1.018
	c-0.508,0.17-1.016,0.342-1.522,0.506c-0.508,0.166-0.762,0.594-0.762,1.268c-0.022,0.805,0.358,1.566,1.015,2.033
	c0.676,0.508,1.606,0.678,2.794,0.508c1.048,0.027,2.087-0.188,3.036-0.633c0.845-0.42,1.564-0.801,2.158-1.143
	c0.492-0.285,1.001-0.541,1.525-0.762c0.396-0.172,0.857-0.068,1.141,0.256c0.676,0.848,0.506,1.779-0.507,2.795
	c-1.014,1.016-1.606,2.707-1.777,5.078c0,2.537,0.932,3.807,2.794,3.807c0.673,0,1.1-0.256,1.271-0.762
	c0.173-0.506,0.338-1.018,0.506-1.521c0.167-0.342,0.507-0.508,1.017-0.508c0.511,0,0.762,0.17,0.762,0.508
	c0.343,0.963,0.251,2.025-0.251,2.916V121.029z M171.944,68.727c-0.401,2.564-1.308,5.023-2.666,7.236
	c-0.38,0.389-0.721,0.814-1.018,1.271c-0.338,0.51-0.76,0.678-1.267,0.508c-0.753,0.035-1.488-0.24-2.032-0.762
	c-2.373,0.342-4.785,0.002-7.236-1.018s-3.848-3.135-4.19-6.348c-0.17-1.861,0.338-3.342,1.522-4.441s2.453-1.648,3.807-1.65
	c0.94-0.041,1.824,0.449,2.286,1.271c0.481,0.76,0.745,1.637,0.762,2.537c0,1.018-0.343,1.523-1.018,1.523
	c-0.848,0.34-1.439,0.172-1.776-0.506c-0.343-1.018-0.678-1.607-1.018-1.779c-0.636-0.021-1.229,0.322-1.522,0.887
	c-0.335,0.58-0.509,1.236-0.506,1.904c0,1.355,0.466,2.373,1.397,3.047c0.931,0.672,2.069,1.018,3.425,1.018
	c2.541,0.168,4.869-0.805,6.984-2.92c2.116-2.115,3.259-4.867,3.428-8.254h-1.018c-0.372,0.547-0.796,1.057-1.267,1.521
	c-0.449,0.492-1.138,0.689-1.778,0.508c-0.847,0.004-1.662-0.314-2.284-0.887c-0.648-0.527-1.021-1.322-1.016-2.158
	c-0.042-0.916,0.33-1.803,1.016-2.414c0.623-0.57,1.438-0.887,2.284-0.887c1.689,0,2.705,0.762,3.045,2.283h1.018
	c-0.334-3.895-2.025-7.023-5.076-9.389c-3.05-2.367-6.604-3.381-10.663-3.047c-0.343,0-0.466,0.215-0.382,0.637
	c0.074,0.396,0.202,0.781,0.382,1.143c0.8,0.582,1.648,1.092,2.538,1.523c1.018,0.504,1.353,1.271,1.018,2.283
	c-0.173,0.848-0.508,1.355-1.018,1.523c-0.575,0.18-1.175,0.264-1.776,0.254c-0.638,0.004-1.274-0.037-1.905-0.127
	c-0.594-0.084-0.973-0.037-1.141,0.127c-0.342,0.342-0.552,0.891-0.636,1.652c-0.099,0.818-0.269,1.625-0.508,2.412
	c-0.272,0.891-0.655,1.744-1.141,2.541c-0.508,0.848-1.359,1.354-2.54,1.521c-0.759,0.191-1.563,0.002-2.158-0.508
	c-0.593-0.504-0.92-1.254-0.887-2.031c-0.182-0.418-0.134-0.898,0.125-1.271c0.194-0.305,0.526-0.494,0.888-0.506
	c0.845-0.34,1.311-0.209,1.396,0.379c0.086,0.59,0.294,0.807,0.636,0.637c0.845,0,1.269-0.846,1.271-2.539
	c0.003-1.691,0.171-2.961,0.505-3.811c0.479-1.822,1.669-3.377,3.302-4.316c0.184-0.209,0.274-0.484,0.254-0.762
	c0-0.506-0.17-0.762-0.506-0.762c-0.867,0.037-1.725,0.209-2.54,0.508c-0.953,0.303-1.822,0.824-2.537,1.523
	c-0.679,0.85-1.652,1.992-2.92,3.428c-1.269,1.434-2.581,2.406-3.938,2.918c-1.691,0.848-2.707,0.764-3.045-0.256
	c0.036-0.426,0.215-0.828,0.507-1.141c0.337-0.42,0.506-1.055,0.506-1.904c-1.016,0.857-2.031,1.363-3.048,1.518
	c-2.373,0.342-2.966-0.758-1.776-3.299c-1.23-0.281-2.395-0.799-3.428-1.523c-0.931-0.674-1.313-1.689-1.143-3.047
	c2.031,0.68,4.486,1.02,7.364,1.018c3.225,0.178,6.458,0.008,9.646-0.508c3.11-0.518,6.247-0.857,9.396-1.021
	c4.569,0,8.378,1.396,11.425,4.191c3.047,2.793,4.654,6.389,4.821,10.789c-0.004,2.596-0.215,5.189-0.631,7.752V68.727z
	 M148.196,135.881c-0.508,0-0.762-0.168-0.762-0.504c-0.372-0.391-0.635-0.873-0.762-1.398c-0.172-0.59-0.507-0.891-1.017-0.891
	c-1.863,0-2.794,1.359-2.794,4.063c0.167,2.373,0.76,4.107,1.778,5.203s1.187,1.984,0.505,2.666c-0.678,0.68-1.523,0.51-2.537-0.508
	c-1.014-1.016-2.707-1.607-5.078-1.775c-1.356-0.168-2.372,0.043-3.046,0.635c-0.647,0.529-1.021,1.322-1.018,2.158
	c0,0.506,0.294,0.848,0.888,1.016c0.479,0.131,0.946,0.299,1.396,0.508c0.339,0.17,0.508,0.508,0.508,1.016s-0.17,0.85-0.508,1.018
	c-0.844,0.346-1.732,0.219-2.663-0.381c-0.851-0.494-1.519-1.252-1.904-2.158c-0.343-1.521-0.17-2.705,0.507-3.555
	c-1.356-0.844-1.441-1.648-0.256-2.412s2.879-0.977,5.078-0.635c-1.272-0.537-2.589-0.963-3.935-1.271
	c-1.439-0.338-2.243-0.93-2.412-1.777c-0.182-0.781-0.045-1.604,0.379-2.283c0.397-0.654,0.97-1.184,1.653-1.525
	c-1.017-1.016-1.44-1.777-1.271-2.285c0.337-0.336,1.183,0.004,2.538,1.018c1.017-1.521,2.287-2.199,3.812-2.031
	c0.845,0.34,1.395,1.188,1.65,2.537c0.239,1.309,0.622,2.586,1.142,3.811c-0.339-2.197-0.127-3.891,0.635-5.076
	c0.763-1.188,1.651-1.104,2.666,0.252c0.845-0.844,1.945-1.012,3.302-0.506c0.98,0.313,1.799,0.996,2.284,1.904
	c0.506,0.932,0.591,1.82,0.254,2.666c0.012,0.34-0.331,0.508-1.004,0.508L148.196,135.881z M137.157,114.68
	c-1.257,1.082-2.108,2.561-2.412,4.191c1.863-0.338,3.344-1.143,4.442-2.414c1.021-1.123,1.761-2.471,2.158-3.936
	C139.792,112.881,138.351,113.621,137.157,114.68z M139.444,137.264c-1.104-1.27-2.582-2.068-4.445-2.412
	c0.316,1.658,1.218,3.145,2.54,4.191c1.354,1.104,2.708,1.824,4.063,2.158c-0.402-1.457-1.141-2.801-2.156-3.92L139.444,137.264z
	 M160.896,89.535c-2.982,3.207-5.464,6.844-7.361,10.791c3.94-1.895,7.543-4.426,10.663-7.49c3.213-3.129,5.498-6.557,6.854-10.283
	c-3.724,1.367-7.108,3.699-10.153,6.996L160.896,89.535z M164.452,160.881c-3.121-3.064-6.724-5.594-10.664-7.49
	c1.914,3.969,4.442,7.611,7.493,10.791c3.129,3.301,6.473,5.629,10.03,6.984c-1.36-3.715-3.646-7.141-6.859-10.273V160.881z
	 M207.106,107.814c-0.515,3.234-0.77,6.504-0.762,9.779c-0.032,2.494,0.31,4.98,1.016,7.373c-1.11,0.201-2.24-0.24-2.92-1.141
	c-0.8-1.006-1.364-2.176-1.653-3.428c-1.185,0.678-2.03,0.764-2.538,0.254c-0.507-0.508-0.677-1.18-0.507-2.033
	c0-0.844,0.419-1.943,1.271-3.299c-0.599,0.133-1.162,0.393-1.651,0.762c-0.425,0.342-0.807,0.426-1.143,0.254
	c-1.016-0.168-1.104-1.1-0.254-2.795c0.506-1.35,1.437-2.703,2.794-4.061c1.046-1.072,2.147-2.09,3.299-3.047
	c0.675-0.506,1.183-1.311,1.522-2.412c0.296-0.859,0.467-1.758,0.508-2.666c0-0.166-0.214-0.293-0.636-0.379
	c-0.421-0.086-0.722,0.041-0.887,0.379c-1.187,1.695-2.54,2.795-4.063,3.301c-1.015,0.342-2.368,0.512-4.061,0.508
	c-1.694,0-2.54,0.426-2.54,1.268c0,0.342,0.254,0.508,0.762,0.508s0.675,0.426,0.508,1.27c0,0.852-0.678,1.271-2.033,1.271
	c-1.862-0.338-2.624-1.354-2.284-3.047c0.168-1.182,0.636-2.07,1.397-2.664c0.718-0.57,1.535-1.002,2.412-1.271
	c0.787-0.238,1.595-0.408,2.412-0.508c0.762-0.084,1.311-0.293,1.653-0.635c0.167-0.166,0.209-0.547,0.125-1.141
	c-0.082-0.547-0.124-1.098-0.125-1.65c-0.012-0.604,0.074-1.203,0.254-1.779c0.167-0.508,0.675-0.846,1.522-1.016
	c1.181-0.34,1.988-0.039,2.414,0.887c0.396,0.898,0.954,1.717,1.646,2.412c0.845,0.85,1.434,0.85,1.776,0
	c0.168-4.061-0.891-7.615-3.174-10.662c-2.283-3.049-5.456-4.742-9.521-5.078v1.018c1.69,0.51,2.536,1.609,2.536,3.299
	c-0.154,0.818-0.552,1.57-1.142,2.158c-0.564,0.582-1.346,0.906-2.158,0.891c-0.847,0.002-1.664-0.316-2.286-0.891
	c-0.648-0.527-1.022-1.322-1.015-2.158c0-1.691,0.761-2.705,2.283-3.045l-0.253-1.271c-3.389,0.34-6.14,1.568-8.254,3.684
	c-2.114,2.113-3.088,4.355-2.92,6.725c-0.024,1.279,0.378,2.531,1.144,3.557c0.762,1.014,1.819,1.521,3.173,1.521
	c1.69,0,2.54-0.76,2.54-2.283c0.021-0.311-0.199-0.588-0.507-0.637c-0.353-0.086-0.693-0.215-1.016-0.381
	c-0.508-0.168-0.762-0.674-0.762-1.523c0.168-0.672,0.762-1.014,1.777-1.014c0.857-0.164,1.743,0.07,2.409,0.635
	c0.763,0.594,1.143,1.314,1.141,2.158c0.168,1.357-0.34,2.625-1.522,3.807s-2.706,1.689-4.57,1.523
	c-3.218-0.338-5.291-1.734-6.221-4.191c-0.914-2.295-1.219-4.787-0.888-7.236c-0.678-0.336-1.018-1.014-1.018-2.033
	c0-0.844,0.678-1.605,2.033-2.283c2.199-1.24,4.61-2.059,7.11-2.412c2.606-0.41,5.24-0.621,7.879-0.627
	c4.4,0.17,7.955,1.736,10.663,4.699c2.709,2.963,4.063,6.729,4.061,11.297c0.003,3.188-0.252,6.369-0.761,9.516V107.814z
	 M203.806,167.746c-2.71,2.965-6.265,4.531-10.663,4.699c-2.637-0.008-5.269-0.221-7.872-0.637c-2.5-0.35-4.912-1.168-7.108-2.414
	c-1.356-0.676-2.034-1.436-2.032-2.283c0-1.018,0.34-1.691,1.018-2.033c-0.331-2.447-0.026-4.941,0.887-7.236
	c0.932-2.451,3.005-3.848,6.222-4.191c1.862-0.336,3.386,0.129,4.57,1.398c1.185,1.268,1.691,2.578,1.522,3.934
	c0,0.852-0.38,1.57-1.141,2.158c-0.665,0.572-1.555,0.807-2.415,0.637c-1.015,0-1.608-0.338-1.776-1.016
	c-0.034-0.607,0.256-1.186,0.762-1.523c0.324-0.162,0.664-0.289,1.015-0.381c0.31-0.049,0.529-0.324,0.508-0.637
	c0-1.521-0.85-2.283-2.54-2.283c-1.356,0-2.414,0.508-3.174,1.523c-0.763,1.023-1.164,2.273-1.141,3.553
	c-0.169,2.373,0.804,4.615,2.92,6.727c2.115,2.109,4.867,3.338,8.254,3.682l0.254-1.27c-1.523-0.338-2.284-1.354-2.284-3.047
	c-0.005-0.836,0.368-1.629,1.015-2.158c0.624-0.572,1.439-0.891,2.287-0.891c0.811-0.014,1.592,0.311,2.158,0.891
	c0.587,0.59,0.984,1.342,1.141,2.158c0,1.693-0.846,2.793-2.538,3.301v1.016c4.061-0.338,7.234-2.029,9.521-5.076
	s3.344-6.602,3.174-10.664c-0.343-0.846-0.932-0.846-1.776,0c-0.692,0.697-1.252,1.514-1.651,2.412
	c-0.426,0.932-1.231,1.229-2.414,0.887c-0.848-0.168-1.355-0.506-1.522-1.016c-0.167-0.49-0.253-1.004-0.254-1.521
	c-0.005-0.639,0.037-1.273,0.125-1.906c0.084-0.588,0.04-0.971-0.125-1.141c-0.531-0.229-1.086-0.398-1.653-0.508
	c-0.762-0.166-1.567-0.381-2.412-0.635c-0.874-0.264-1.69-0.688-2.407-1.252c-0.762-0.59-1.229-1.48-1.397-2.664
	c-0.342-1.689,0.42-2.707,2.284-3.047c1.354,0,2.031,0.422,2.032,1.27c0.168,0.852,0,1.271-0.507,1.271
	c-0.508,0-0.762,0.17-0.762,0.508c0,0.848,0.845,1.268,2.54,1.268s3.046,0.172,4.061,0.508c1.522,0.508,2.877,1.609,4.063,3.301
	c0.168,0.34,0.466,0.465,0.888,0.379c0.421-0.086,0.636-0.209,0.636-0.379c-0.042-0.908-0.213-1.807-0.508-2.666
	c-0.342-1.1-0.848-1.904-1.522-2.412c-1.154-0.955-2.256-1.973-3.3-3.047c-1.357-1.352-2.289-2.705-2.794-4.061
	c-0.85-1.691-0.761-2.625,0.254-2.795c0.337-0.168,0.718-0.082,1.144,0.254c0.487,0.373,1.051,0.633,1.65,0.762
	c-0.85-1.352-1.271-2.451-1.271-3.299c-0.17-0.846,0-1.523,0.507-2.033c0.508-0.508,1.353-0.42,2.538,0.254
	c0.291-1.25,0.855-2.422,1.653-3.428c0.679-0.9,1.804-1.346,2.915-1.154c-0.679,2.031-1.018,4.486-1.018,7.361
	c-0.009,3.275,0.246,6.545,0.761,9.779c0.51,3.148,0.765,6.332,0.762,9.52C207.867,161.02,206.513,164.785,203.806,167.746z
	 M252.682,133.09c-1.034,0.725-2.197,1.242-3.428,1.525c0.845,1.184,1.014,2.072,0.506,2.664c-0.508,0.59-1.27,0.803-2.284,0.635
	c-1.016-0.168-2.03-0.676-3.046-1.523c-0.015,0.631,0.162,1.25,0.508,1.777c0.338,0.508,0.506,0.932,0.506,1.271
	c-0.339,0.85-1.354,0.936-3.046,0.256c-1.483-0.773-2.815-1.805-3.935-3.047c-1.27-1.352-2.243-2.451-2.92-3.301
	c-0.717-0.697-1.586-1.219-2.54-1.521c-0.814-0.301-1.671-0.473-2.538-0.508c-0.342,0-0.508,0.254-0.508,0.762
	c-0.022,0.277,0.069,0.553,0.254,0.76c1.863,1.188,2.964,2.541,3.302,4.064c0.337,1.014,0.506,2.367,0.508,4.061
	c0,1.693,0.419,2.539,1.267,2.539c0.34,0,0.55-0.254,0.636-0.762c0.086-0.506,0.549-0.674,1.396-0.506
	c0.846,0.506,1.181,1.186,1.018,2.031c0.029,0.779-0.299,1.527-0.892,2.033c-0.594,0.506-1.313,0.594-2.158,0.254
	c-1.186-0.168-2.028-0.637-2.538-1.396c-0.499-0.744-0.884-1.557-1.144-2.412c-0.253-0.846-0.465-1.652-0.635-2.416
	c-0.108-0.566-0.278-1.119-0.506-1.65c-0.172-0.168-0.552-0.209-1.143-0.125c-0.631,0.088-1.267,0.131-1.902,0.125
	c-0.561-0.008-1.117-0.092-1.653-0.254c-0.594-0.168-0.976-0.674-1.141-1.521c-0.343-1.186,0-1.988,1.015-2.416
	c0.947-0.377,1.811-0.938,2.54-1.65c0.206-0.254,0.338-0.563,0.38-0.887c0.084-0.418-0.042-0.635-0.38-0.635
	c-4.063-0.338-7.618,0.678-10.663,3.045c-3.046,2.367-4.738,5.498-5.078,9.395h1.016c0.336-1.523,1.352-2.283,3.045-2.283
	c2.198,0,3.299,1.1,3.302,3.301c0.004,0.836-0.369,1.629-1.016,2.158c-0.624,0.57-1.439,0.887-2.286,0.887
	c-1.356,0-2.372-0.678-3.045-2.033h-1.016c0.168,3.389,1.353,6.141,3.556,8.252c2.202,2.113,4.487,3.086,6.854,2.922
	c1.261,0.027,2.5-0.326,3.555-1.018c1.018-0.672,1.437-1.689,1.271-3.045c0-1.863-0.678-2.793-2.032-2.793
	c-0.313-0.023-0.589,0.197-0.636,0.506c-0.091,0.352-0.218,0.691-0.38,1.016c-0.342,0.852-0.935,1.105-1.778,0.762
	c-0.678,0-1.016-0.59-1.016-1.777c0.007-0.857,0.272-1.695,0.762-2.402c0.509-0.762,1.271-1.143,2.284-1.141
	c1.354,0,2.622,0.551,3.807,1.65c1.184,1.102,1.691,2.582,1.522,4.443c-0.339,3.217-1.735,5.332-4.191,6.346
	c-2.455,1.014-4.867,1.268-7.236,0.762c-0.465,0.656-1.228,1.039-2.032,1.018c-0.851,0-1.612-0.678-2.284-2.033
	c-1.387-2.105-2.297-4.488-2.666-6.984c-0.421-2.559-0.549-5.156-0.382-7.744c0-4.4,1.524-7.996,4.573-10.791
	c3.048-2.793,6.856-4.191,11.425-4.191c3.152-0.006,6.299,0.291,9.395,0.887c3.178,0.604,6.417,0.816,9.646,0.637
	c2.876,0,5.33-0.34,7.361-1.018C253.989,131.402,253.61,132.416,252.682,133.09z M246.46,123.695
	c-3.229-0.176-6.468,0.037-9.646,0.635c-3.096,0.602-6.242,0.9-9.395,0.893c-4.571,0-8.38-1.396-11.425-4.191
	c-3.046-2.793-4.57-6.391-4.573-10.791c-0.167-2.588-0.039-5.186,0.382-7.744c0.37-2.494,1.279-4.879,2.666-6.984
	c0.674-1.352,1.435-2.027,2.284-2.029c0.804-0.02,1.565,0.361,2.032,1.016c2.369-0.508,4.781-0.254,7.236,0.762
	c2.456,1.018,3.853,3.133,4.191,6.348c0.167,1.861-0.34,3.342-1.523,4.441c-1.187,1.104-2.453,1.65-3.807,1.65
	c-1.015,0-1.776-0.379-2.283-1.141c-0.492-0.709-0.758-1.551-0.762-2.414c0-1.18,0.338-1.777,1.015-1.777
	c0.845-0.336,1.438-0.082,1.779,0.762c0.16,0.326,0.287,0.666,0.38,1.016c0.045,0.311,0.323,0.531,0.635,0.508
	c1.354,0,2.031-0.932,2.033-2.795c0.167-1.352-0.254-2.367-1.271-3.045c-1.056-0.688-2.295-1.041-3.556-1.016
	c-2.37-0.166-4.654,0.807-6.854,2.92c-2.199,2.115-3.384,4.865-3.555,8.252h1.015c0.676-1.354,1.69-2.031,3.046-2.033
	c0.846,0.002,1.66,0.318,2.286,0.889c0.644,0.531,1.017,1.322,1.015,2.158c0,2.203-1.1,3.305-3.301,3.301
	c-1.692,0-2.707-0.762-3.046-2.283h-1.015c0.337,3.895,2.029,7.027,5.078,9.395c3.048,2.367,6.603,3.381,10.663,3.045
	c0.338,0,0.466-0.209,0.38-0.637c-0.044-0.324-0.176-0.631-0.38-0.887c-0.732-0.709-1.597-1.27-2.545-1.648
	c-1.015-0.422-1.354-1.227-1.015-2.414c0.165-0.846,0.547-1.35,1.141-1.523c0.537-0.158,1.093-0.244,1.653-0.254
	c0.636-0.002,1.271,0.041,1.902,0.127c0.591,0.088,0.971,0.041,1.143-0.127c0.173-0.166,0.338-0.674,0.506-1.521
	c0.167-0.848,0.382-1.691,0.635-2.541c0.26-0.855,0.646-1.668,1.144-2.412c0.509-0.762,1.355-1.227,2.538-1.396
	c0.844-0.336,1.563-0.252,2.158,0.254c0.587,0.508,0.911,1.254,0.88,2.029c0.165,0.852-0.172,1.523-1.018,2.033
	c-0.848,0.17-1.313-0.039-1.396-0.635s-0.296-0.801-0.636-0.637c-0.848,0-1.267,0.85-1.267,2.541c0,1.689-0.173,3.045-0.508,4.061
	c-0.342,1.521-1.438,2.883-3.302,4.063c-0.17,0.17-0.253,0.508-0.253,1.016c-0.036,0.244,0.132,0.471,0.376,0.508
	c0.044,0.006,0.088,0.006,0.131,0c0.867-0.035,1.724-0.207,2.538-0.508c0.955-0.301,1.825-0.822,2.54-1.523
	c0.674-0.844,1.647-1.943,2.92-3.299c1.122-1.24,2.454-2.271,3.935-3.047c1.69-0.508,2.706-0.422,3.046,0.256
	c-0.036,0.426-0.214,0.828-0.506,1.141c-0.342,0.426-0.508,1.059-0.508,1.904c0.944-0.639,1.969-1.15,3.046-1.523
	c1.017-0.168,1.778,0.045,2.284,0.637s0.338,1.479-0.506,2.662c1.229,0.287,2.393,0.805,3.428,1.525
	c0.932,0.68,1.312,1.693,1.141,3.047C251.789,124.035,249.338,123.699,246.46,123.695L246.46,123.695z"/>
</svg>
