<svg version="1.1" xmlns="http://www.w3.org/2000/svg" x="0" y="0" width="254" height="254" viewBox="0 0 254 254" xml:space="preserve"><path stroke="#eee" stroke-width="1" fill="none" d="M38.014 120.268c-3.052 2.795-6.861 4.191-11.428 4.191a48.89 48.89 0 0 1-9.395-.887 40.408 40.408 0 0 0-9.646-.637c-2.883 0-5.338.34-7.365 1.018-.169-1.354.212-2.367 1.144-3.045a9.869 9.869 0 0 1 3.428-1.525c-.851-1.35-1.018-2.283-.508-2.793s1.271-.676 2.284-.508c1.077.371 2.102.883 3.045 1.521 0-.844-.168-1.479-.505-1.904a1.877 1.877 0 0 1-.508-1.141c.168-.674 1.183-.76 3.046-.256a14.262 14.262 0 0 1 3.937 3.049c1.27 1.355 2.243 2.455 2.92 3.299a6.296 6.296 0 0 0 2.538 1.521 8.232 8.232 0 0 0 2.54.508.45.45 0 0 0 .508-.508c0-.504-.089-.844-.257-1.014-1.862-1.182-2.961-2.541-3.299-4.064-.342-1.014-.511-2.367-.508-4.061 0-1.689-.426-2.539-1.271-2.539-.342 0-.552.254-.635.762-.084.508-.553.678-1.397.508-.848-.508-1.186-1.182-1.015-2.033a2.538 2.538 0 0 1 .892-2.035c.596-.506 1.399-.695 2.158-.506 1.181.34 2.032.887 2.54 1.65a9.055 9.055 0 0 1 1.141 2.412c.249.83.419 1.68.508 2.541.084.848.293 1.355.636 1.523.167.168.548.211 1.141.125a13.481 13.481 0 0 1 1.904-.125 5.703 5.703 0 0 1 1.779.254c.505.172.845.676 1.015 1.521.337 1.186-.001 1.99-1.015 2.414a7.747 7.747 0 0 0-2.54 1.652 1.735 1.735 0 0 0-.382.887c-.087.426.039.635.382.635 4.063.342 7.618-.674 10.663-3.045 3.046-2.371 4.738-5.504 5.078-9.395h-1.018c-.338 1.523-1.354 2.283-3.045 2.283a3.359 3.359 0 0 1-2.284-.887 2.76 2.76 0 0 1-1.016-2.158c0-2.197 1.1-3.299 3.3-3.301 1.354 0 2.368.678 3.045 2.031h1.018c-.172-3.385-1.357-6.135-3.556-8.25-2.197-2.117-4.483-3.09-6.856-2.922a6.257 6.257 0 0 0-3.556 1.018c-1.015.678-1.437 1.693-1.267 3.045 0 1.861.673 2.793 2.033 2.793a.598.598 0 0 0 .633-.508c.09-.35.219-.691.382-1.014.337-.846.93-1.1 1.776-.762.676 0 1.018.594 1.018 1.775a4.296 4.296 0 0 1-.761 2.416c-.51.762-1.271 1.143-2.284 1.141-1.36 0-2.627-.547-3.812-1.65-1.186-1.105-1.692-2.578-1.522-4.443.337-3.213 1.733-5.328 4.19-6.348 2.457-1.018 4.869-1.271 7.236-.76a2.413 2.413 0 0 1 2.033-1.018c.845 0 1.606.68 2.283 2.031a17.46 17.46 0 0 1 2.666 6.986c.417 2.559.544 5.156.38 7.742 0 4.401-1.524 7.997-4.569 10.79zm4.191 31.23a17.433 17.433 0 0 1-2.666 6.984c-.677 1.355-1.438 2.027-2.283 2.027a2.404 2.404 0 0 1-2.033-1.016c-2.373.51-4.785.256-7.236-.76-2.451-1.018-3.848-3.133-4.19-6.348-.17-1.863.338-3.344 1.522-4.441 1.185-1.1 2.455-1.65 3.812-1.652 1.015 0 1.776.381 2.284 1.141.49.711.755 1.553.761 2.416 0 1.188-.342 1.775-1.018 1.775-.847.342-1.439.088-1.776-.762a4.806 4.806 0 0 1-.382-1.014.599.599 0 0 0-.633-.508 1.653 1.653 0 0 0-1.525.887 3.773 3.773 0 0 0-.505 1.904c-.173 1.357.25 2.371 1.267 3.045a6.26 6.26 0 0 0 3.555 1.016c2.37.172 4.656-.801 6.857-2.92s3.386-4.869 3.555-8.252h-1.017a10.111 10.111 0 0 1-1.267 1.523 1.764 1.764 0 0 1-1.779.508 3.36 3.36 0 0 1-2.284-.887 2.762 2.762 0 0 1-1.018-2.15 3.042 3.042 0 0 1 1.016-2.414 3.386 3.386 0 0 1 2.284-.887c1.69 0 2.705.762 3.045 2.285h1.018c-.342-3.893-2.034-7.023-5.078-9.396-3.044-2.371-6.599-3.387-10.663-3.045-.343 0-.466.215-.382.637.039.326.172.633.382.887a7.668 7.668 0 0 0 2.54 1.65c1.015.426 1.354 1.23 1.015 2.414-.169.848-.507 1.355-1.015 1.523a5.65 5.65 0 0 1-1.779.254 13.183 13.183 0 0 1-1.904-.127c-.594-.082-.974-.039-1.141.127-.343.342-.552.887-.636 1.65a13.984 13.984 0 0 1-.508 2.414 8.967 8.967 0 0 1-1.141 2.412c-.508.762-1.359 1.23-2.54 1.396-.848.344-1.567.254-2.158-.254a2.53 2.53 0 0 1-.888-2.031c-.169-.846.17-1.521 1.016-2.033.845-.168 1.311 0 1.396.508.087.508.294.762.636.762.845 0 1.269-.848 1.271-2.541s.172-3.047.508-4.061c.337-1.521 1.437-2.877 3.299-4.063.185-.209.276-.482.256-.762 0-.508-.172-.762-.507-.762a8.423 8.423 0 0 0-2.541.508 6.404 6.404 0 0 0-2.537 1.523c-.679.848-1.651 1.947-2.92 3.299a14.057 14.057 0 0 1-3.938 3.049c-1.691.846-2.707.762-3.045-.258 0-.336.167-.76.508-1.27a3.144 3.144 0 0 0 .503-1.777c-1.016.85-2.03 1.357-3.046 1.523-1.015 0-1.776-.254-2.284-.762s-.338-1.354.508-2.539a9.765 9.765 0 0 1-3.428-1.523c-.931-.674-1.312-1.689-1.143-3.047 2.031.68 4.486 1.018 7.364 1.018 3.225.18 6.458.008 9.646-.508a84.567 84.567 0 0 1 9.395-1.018c4.569 0 8.378 1.398 11.425 4.191 3.047 2.795 4.57 6.391 4.57 10.793.163 2.584.035 5.18-.382 7.736l.002.003zm34.654-62.586a14.47 14.47 0 0 1-.887 7.236c-.932 2.457-3.005 3.855-6.222 4.191-1.862.17-3.386-.338-4.57-1.521-1.185-1.186-1.692-2.455-1.524-3.809 0-.844.381-1.563 1.143-2.158a2.882 2.882 0 0 1 2.412-.635c1.018 0 1.606.342 1.779 1.016 0 .85-.254 1.355-.762 1.521a4.734 4.734 0 0 1-1.018.383.597.597 0 0 0-.505.635c0 1.523.846 2.285 2.538 2.285 1.354 0 2.412-.508 3.176-1.523a5.402 5.402 0 0 0 1.141-3.301c.168-2.539-.806-4.867-2.92-6.984-2.114-2.119-4.864-3.348-8.251-3.684l-.257 1.271c1.523.34 2.285 1.355 2.287 3.045a2.762 2.762 0 0 1-1.018 2.158 3.358 3.358 0 0 1-2.284.891 2.91 2.91 0 0 1-2.158-.891 4.084 4.084 0 0 1-1.144-2.158c0-1.691.847-2.791 2.54-3.299v-.761c-4.063.342-7.237 1.992-9.521 4.951-2.283 2.961-3.342 6.473-3.176 10.535a.803.803 0 0 0 .762.508 1.45 1.45 0 0 0 1.018-.508 8.134 8.134 0 0 0 1.65-2.412c.419-.93 1.228-1.227 2.412-.887.676.17 1.144.506 1.397 1.016a3.92 3.92 0 0 1 .382 1.779 11.976 11.976 0 0 1-.126 1.65c-.089.594-.047.975.126 1.141.167.342.673.553 1.522.637.86.09 1.71.26 2.538.506a7.4 7.4 0 0 1 2.414 1.271c.762.594 1.225 1.484 1.397 2.664.337 1.695-.425 2.711-2.284 3.047-1.36 0-2.033-.42-2.033-1.27-.172-.846 0-1.271.506-1.271.505 0 .764-.168.764-.508 0-.846-.85-1.268-2.54-1.268s-3.046-.166-4.063-.508c-1.522-.508-2.876-1.609-4.061-3.301a.734.734 0 0 0-.887-.379c-.426.086-.636.213-.636.379a9.43 9.43 0 0 0 .505 2.666c.339 1.104.847 1.908 1.523 2.412a45.297 45.297 0 0 1 3.301 3.047c1.354 1.357 2.285 2.711 2.794 4.061.845 1.695.76 2.627-.253 2.795-.342.172-.723.088-1.144-.254a4.358 4.358 0 0 0-1.65-.762c.844 1.357 1.266 2.457 1.266 3.299.168.852 0 1.523-.505 2.033s-1.359.426-2.54-.254a8.672 8.672 0 0 1-1.65 3.426 3.003 3.003 0 0 1-2.92 1.141 25.092 25.092 0 0 0 1.015-7.363 41.404 41.404 0 0 0-.636-9.777 50.858 50.858 0 0 1-.887-9.521c0-4.568 1.354-8.334 4.063-11.297 2.709-2.961 6.264-4.527 10.664-4.697 2.637.01 5.269.221 7.872.635a20.25 20.25 0 0 1 7.105 2.412c1.354.678 2.031 1.439 2.033 2.285.003 1.025-.34 1.699-1.013 2.033zm-1.018 79.727a20.031 20.031 0 0 1-7.105 2.412 50.622 50.622 0 0 1-7.872.635c-4.405-.168-7.96-1.734-10.664-4.697-2.703-2.965-4.058-6.73-4.063-11.297a51.019 51.019 0 0 1 .887-9.521c.598-3.223.812-6.506.636-9.779 0-2.875-.338-5.33-1.015-7.361a3.015 3.015 0 0 1 2.92 1.141 8.72 8.72 0 0 1 1.65 3.428c1.181-.674 2.032-.762 2.54-.254s.673 1.188.505 2.033c0 .848-.422 1.947-1.267 3.299a2.231 2.231 0 0 0 1.651-.637c.421-.42.802-.547 1.143-.379 1.016.17 1.101 1.102.254 2.795-.509 1.355-1.44 2.709-2.794 4.061a42.67 42.67 0 0 1-3.301 3.047c-.678.506-1.186 1.313-1.523 2.412a9.483 9.483 0 0 0-.507 2.656c0 .17.209.297.636.379a.723.723 0 0 0 .887-.379c1.181-1.689 2.534-2.791 4.061-3.301 1.018-.338 2.368-.508 4.063-.508 1.695 0 2.54-.42 2.54-1.268 0-.34-.256-.506-.764-.506-.507 0-.677-.42-.505-1.271 0-.846.673-1.271 2.032-1.271 1.863.342 2.624 1.357 2.284 3.047-.172 1.186-.636 2.074-1.396 2.664a7.357 7.357 0 0 1-2.415 1.271 28.16 28.16 0 0 1-2.537.635c-.846.17-1.355.344-1.523.508-.167.166-.214.553-.125 1.141.086.631.128 1.268.125 1.904a3.352 3.352 0 0 1-.382 1.523 1.99 1.99 0 0 1-1.396 1.016c-1.186.342-1.991.047-2.412-.887a8.266 8.266 0 0 0-1.651-2.412c-.85-.846-1.438-.846-1.778 0-.168 4.064.892 7.623 3.178 10.674 2.287 3.053 5.46 4.744 9.521 5.078v-1.018c-1.694-.508-2.541-1.607-2.54-3.299a4.112 4.112 0 0 1 1.144-2.158 2.943 2.943 0 0 1 2.158-.893c.846.002 1.66.32 2.284.893a2.778 2.778 0 0 1 1.018 2.158c0 1.691-.763 2.707-2.287 3.045l.257 1.271c3.382-.338 6.132-1.566 8.251-3.684s3.092-4.359 2.92-6.727a5.774 5.774 0 0 0-1.141-3.555c-.763-1.016-1.821-1.521-3.176-1.521-1.692 0-2.538.76-2.538 2.283a.596.596 0 0 0 .505.635 5.43 5.43 0 0 1 1.018.383c.507.336.797.916.762 1.523-.342.846-.935 1.27-1.779 1.27a3.852 3.852 0 0 1-2.412-.891c-.762-.59-1.143-1.311-1.143-2.158-.17-1.352.339-2.619 1.524-3.807 1.187-1.188 2.712-1.695 4.577-1.523 3.214.342 5.287 1.738 6.222 4.191a14.482 14.482 0 0 1 .887 7.236c.673.342 1.016 1.016 1.016 2.033-.01.844-.689 1.604-2.045 2.282zm46.592-68.426c-2.117 1.775-4.191 2.832-6.222 3.172-4.737 1.012-8.884 1.18-12.439.508.339 2.057.467 4.141.382 6.223a40.007 40.007 0 0 1-.892 6.725c-.339 1.863-1.438 3.811-3.3 5.84-1.86 2.031-4.401 3.047-7.62 3.049-1.522 0-2.92-.547-4.191-1.652a5.298 5.298 0 0 1-1.901-4.189c0-1.354.673-2.494 2.032-3.428s2.195-.971 2.538-.125c.509.678.382 1.229-.38 1.652a2.053 2.053 0 0 0-1.144 1.902c0 .678.339 1.355 1.016 2.033a3.15 3.15 0 0 0 2.286 1.014c1.182 0 2.112-.633 2.794-1.902.682-1.268.937-2.41.764-3.426a2.525 2.525 0 0 1-2.032-.889 2.876 2.876 0 0 1-.762-1.904c.337-2.197.929-3.721 1.776-4.57.845-.674 1.818-.844 2.92-.508a36.65 36.65 0 0 1 2.92 1.016 6.688 6.688 0 0 0 .887-3.807 14.27 14.27 0 0 0-.633-3.555 25.107 25.107 0 0 1-7.111-3.426 44.773 44.773 0 0 1-5.839-4.951c.337 1.861.125 3.26-.636 4.189-.761.932-1.649.975-2.666.129 0 .17-.042.594-.126 1.268a8.953 8.953 0 0 1-.507 2.031 8.72 8.72 0 0 1-.888 1.779c-.342.506-.85.594-1.522.254-.508.85-.508 1.65 0 2.412s1.181 1.059 2.032.891c1.863 0 2.371-1.1 1.523-3.301-.173-.338.167-.547 1.015-.635.848-.09 1.353.041 1.522.381.468.859.728 1.816.762 2.795 0 .848-.422 1.65-1.267 2.412a4.105 4.105 0 0 1-2.794 1.141c-1.522 0-2.883-.59-4.063-1.777-1.181-1.188-1.693-2.793-1.523-4.824-.851-.336-1.231-.928-1.143-1.775a7.3 7.3 0 0 1 .761-2.541c.397-.801.865-1.564 1.397-2.283.313-.441.649-.865 1.006-1.271-1.186-.506-1.905-1.1-2.158-1.777-.256-.676-.126-1.352.379-2.031a5.497 5.497 0 0 1 2.159-1.652 5.647 5.647 0 0 1 3.176-.381c-1.523-1.352-2.878-3.256-4.063-5.715-1.186-2.457-1.691-4.193-1.516-5.207 1.016-.168 2.75.34 5.204 1.521 2.454 1.184 4.442 2.453 5.965 3.813-.339-2.371.297-4.105 1.904-5.207 1.608-1.1 2.835-.465 3.682 1.904a15.18 15.18 0 0 1 1.271-1.014 14.504 14.504 0 0 1 2.284-1.398 5.645 5.645 0 0 1 2.54-.635c.846 0 1.435.342 1.776 1.016 2.032-.338 3.641.086 4.824 1.271 1.181 1.188 1.777 2.537 1.777 4.063a4.4 4.4 0 0 1-1.142 3.045c-.761.848-1.569 1.271-2.414 1.271a3.67 3.67 0 0 1-1.397-.256 7.44 7.44 0 0 1-1.396-.762c-.34-.168-.466-.635-.38-1.396s.294-1.055.636-.887c1.016.34 1.819.34 2.412 0 .593-.342.889-.934.888-1.777a1.63 1.63 0 0 0-.888-1.904c-.761-.42-1.566-.383-2.412.125.168.678.037 1.188-.382 1.523a4.22 4.22 0 0 1-1.65.762c-.669.17-1.348.297-2.033.381-.677.086-1.104.127-1.271.127.844 1.186.802 2.158-.126 2.918-.932.762-2.328.977-4.191.637a45.392 45.392 0 0 1 4.953 5.84 26.194 26.194 0 0 1 3.427 6.854c1.152.367 2.348.58 3.556.637a8.176 8.176 0 0 0 3.807-.637 35.122 35.122 0 0 1-1.016-2.92 2.987 2.987 0 0 1 .508-2.92c1.015-1.18 2.539-1.773 4.57-1.775.674-.168 1.309.043 1.904.635.58.568.9 1.348.888 2.158a7.851 7.851 0 0 0 3.555-.887c1.181-.592 1.776-1.48 1.776-2.666a3.172 3.172 0 0 0-1.015-2.283c-.678-.676-1.359-1.018-2.032-1.018a2.045 2.045 0 0 0-1.905 1.143c-.425.762-.976.889-1.65.379-.85-.504-.806-1.396.126-2.662.931-1.268 2.072-1.904 3.427-1.904a5.3 5.3 0 0 1 4.191 1.904c1.097 1.268 1.647 2.664 1.65 4.189.174 3.208-.796 5.701-2.91 7.478zm1.65 65.631c-1.015 1.186-2.368 1.863-4.061 2.033-1.357 0-2.5-.678-3.427-2.033s-.969-2.285-.126-2.793c.674-.338 1.224-.125 1.65.635a2.044 2.044 0 0 0 1.905 1.141c.673 0 1.309-.338 1.902-1.014a3.732 3.732 0 0 0 .887-2.539c0-1.186-.594-2.072-1.776-2.666s-2.284-.801-3.302-.635c-.338 1.861-1.354 2.793-3.045 2.793-2.201-.336-3.641-1.014-4.317-2.031-.678-.676-.89-1.607-.636-2.795.213-1.07.599-2.1 1.144-3.045a8.602 8.602 0 0 0-3.938-.637c-1.438.09-2.58.301-3.425.637a23.474 23.474 0 0 1-3.427 6.984 74.165 74.165 0 0 1-4.957 5.965c1.862-.508 3.217-.34 4.063.508.847.848.847 1.779 0 2.795.168 0 .589.045 1.271.127.683.088 1.359.215 2.028.379.62.143 1.191.449 1.652.889.421.424.548.977.38 1.652a2.667 2.667 0 0 0 2.412-.129 2.042 2.042 0 0 0 1.144-1.9c0-.846-.299-1.438-.888-1.779s-1.396-.338-2.414 0c-.34.172-.55-.127-.634-.887-.083-.762.038-1.225.38-1.398a6.325 6.325 0 0 1 2.794-.76c.845 0 1.605.381 2.284 1.143a4.244 4.244 0 0 1 1.02 2.912c0 1.523-.596 2.881-1.778 4.061-1.184 1.182-2.711 1.611-4.57 1.271-.51.852-1.145 1.232-1.905 1.143a8.46 8.46 0 0 1-2.537-.76 12.852 12.852 0 0 1-2.415-1.398c-.678-.508-1.104-.762-1.267-.762-.509 1.188-1.102 1.865-1.778 2.033a2.21 2.21 0 0 1-1.905-.381c-.594-.422-1.102-1.1-1.522-2.033a5.589 5.589 0 0 1-.379-3.174c-1.357 1.357-3.262 2.668-5.714 3.936-2.453 1.266-4.188 1.732-5.204 1.396-.341-1.016.124-2.75 1.397-5.203 1.272-2.455 2.583-4.359 3.933-5.717a5.607 5.607 0 0 1-3.174-.379c-.932-.422-1.611-.932-2.032-1.525a2.197 2.197 0 0 1-.382-1.902c.167-.676.845-1.268 2.032-1.779a11.708 11.708 0 0 1-1.016-1.396 12.797 12.797 0 0 1-1.271-2.412 9.072 9.072 0 0 1-.636-2.412c-.086-.762.296-1.396 1.143-1.904-.341-1.863.081-3.428 1.267-4.695 1.187-1.27 2.541-1.904 4.063-1.906a3.955 3.955 0 0 1 2.92 1.143c.762.764 1.143 1.568 1.143 2.414a6.348 6.348 0 0 1-.761 2.793c-.173.342-.636.467-1.397.381-.762-.088-1.06-.295-.892-.637.509-2.195-.083-3.295-1.776-3.299a2.33 2.33 0 0 0-2.033 1.141c-.507.762-.507 1.57 0 2.414.676-.168 1.228-.039 1.651.381a3.53 3.53 0 0 1 .892 1.65c.165.67.291 1.348.38 2.031.083.678.125 1.105.125 1.271 1.017-.844 1.948-.844 2.794 0 .847.846 1.016 2.199.508 4.064a38.18 38.18 0 0 1 5.84-4.824 34.83 34.83 0 0 1 7.11-3.557c.337-.844.549-1.986.636-3.428a6.977 6.977 0 0 0-.888-3.934 36.84 36.84 0 0 1-2.919 1.016c-1.097.334-1.983.168-2.662-.5-1.017-.844-1.693-2.283-2.032-4.316 0-1.689.932-2.705 2.794-3.047.168-1.016-.086-2.156-.762-3.426-.675-1.268-1.521-1.902-2.54-1.904a3.449 3.449 0 0 0-2.537 1.016c-.679.68-1.018 1.357-1.018 2.033a2.045 2.045 0 0 0 1.143 1.904c.763.426.975.975.636 1.65-.508.85-1.438.805-2.794-.125-1.354-.932-2.032-2.072-2.032-3.428a4.935 4.935 0 0 1 1.904-4.061 8.025 8.025 0 0 1 4.191-1.779c3.382 0 5.962 1.016 7.741 3.045 1.778 2.031 2.837 4.059 3.176 6.084.479 2.172.774 4.381.887 6.602a29.477 29.477 0 0 1-.382 6.094c4.063-.846 8.296-.76 12.696.256 2.032.506 4.063 1.646 6.093 3.424s3.05 4.273 3.058 7.49a7.616 7.616 0 0 1-1.786 4.314zm-7.364 40.623a45.009 45.009 0 0 0-9.646.506c-3.11.516-6.247.855-9.396 1.016-4.57 0-8.379-1.396-11.425-4.191-3.045-2.793-4.653-6.389-4.824-10.789a48.41 48.41 0 0 1 .636-7.744 19.519 19.519 0 0 1 2.666-7.236c.358-.361.697-.744 1.016-1.143.298-.402.77-.639 1.271-.635a2.759 2.759 0 0 1 2.033.76c2.368-.336 4.78.004 7.236 1.018 2.455 1.016 3.853 3.131 4.19 6.348.165 1.863-.344 3.344-1.524 4.443-1.186 1.104-2.454 1.65-3.808 1.65a2.489 2.489 0 0 1-2.283-1.271 4.896 4.896 0 0 1-.762-2.539c0-1.016.338-1.521 1.015-1.521.845-.338 1.438-.084 1.779.762.145.287.271.584.38.887.115.289.346.52.635.635a1.649 1.649 0 0 0 1.523-.887c.335-.578.51-1.236.507-1.904 0-1.354-.465-2.367-1.396-3.045a5.685 5.685 0 0 0-3.435-1.014c-2.537-.168-4.866.807-6.984 2.92-2.119 2.113-3.261 4.865-3.425 8.256h1.015a9.85 9.85 0 0 1 1.271-1.521 1.76 1.76 0 0 1 1.776-.508c.846 0 1.661.316 2.286.887a2.789 2.789 0 0 1 1.016 2.158 3.055 3.055 0 0 1-1.016 2.414 3.37 3.37 0 0 1-2.286.887c-1.691 0-2.707-.762-3.045-2.283h-1.016c.337 3.895 2.029 7.025 5.078 9.395s6.603 3.383 10.663 3.045c.338 0 .466-.209.38-.635a1.775 1.775 0 0 0-.38-.887 9.672 9.672 0 0 0-2.542-1.775c-1.016-.506-1.355-1.271-1.016-2.283.168-.846.507-1.352 1.016-1.523a5.701 5.701 0 0 1 1.778-.254 11.01 11.01 0 0 1 1.777.127c.461.1.941-.045 1.271-.383.168-.168.338-.635.508-1.396s.38-1.561.634-2.412a9.003 9.003 0 0 1 1.143-2.412c.51-.762 1.356-1.314 2.54-1.654a2.426 2.426 0 0 1 2.158.504c.589.508.916 1.256.888 2.033.179.416.131.896-.126 1.27a1.091 1.091 0 0 1-.892.506c-.848.342-1.313.215-1.397-.379-.083-.596-.295-.891-.633-.887-.85.17-1.271 1.102-1.271 2.793 0 1.693-.172 2.967-.508 3.813a7.057 7.057 0 0 1-3.299 4.316c-.172.17-.256.504-.256 1.014a.446.446 0 0 0 .508.508 8.239 8.239 0 0 0 2.54-.504 6.355 6.355 0 0 0 2.54-1.523c.674-.844 1.646-1.986 2.92-3.428 1.272-1.439 2.584-2.412 3.935-2.92 1.69-.844 2.706-.758 3.048.258a1.922 1.922 0 0 1-.508 1.141c-.34.418-.503 1.047-.503 1.893a13.048 13.048 0 0 1 3.045-1.523c2.37-.338 2.964.762 1.779 3.299 1.229.287 2.392.805 3.427 1.523.932.678 1.312 1.693 1.142 3.047-2.034-.681-4.489-1.021-7.367-1.023zm6.986-156.906a9.808 9.808 0 0 1-3.423 1.521c1.181 2.539.588 3.639-1.779 3.301-1.015-.168-2.03-.676-3.045-1.523 0 .85.168 1.486.508 1.904.29.314.469.715.507 1.141-.341 1.018-1.357 1.104-3.047.256-1.357-.508-2.669-1.482-3.936-2.918-1.267-1.438-2.241-2.58-2.924-3.428a6.417 6.417 0 0 0-2.54-1.523 8.472 8.472 0 0 0-2.538-.508c-.343 0-.552.215-.636.637-.084.42.04.721.382.887a7.051 7.051 0 0 1 3.299 4.316c.338.85.508 2.121.508 3.811 0 1.691.422 2.531 1.271 2.531.338.17.547-.039.633-.635.087-.596.55-.721 1.397-.379.362.012.695.199.892.504.257.375.305.854.126 1.271a2.551 2.551 0 0 1-.888 2.033 2.421 2.421 0 0 1-2.16.512c-1.186-.168-2.032-.676-2.54-1.523a11.152 11.152 0 0 1-1.144-2.539 32.972 32.972 0 0 1-.633-2.412 8.131 8.131 0 0 0-.508-1.654 2.1 2.1 0 0 0-1.271-.125c-.587.092-1.182.135-1.776.125a5.633 5.633 0 0 1-1.778-.252c-.506-.168-.848-.676-1.016-1.523-.342-1.016 0-1.779 1.016-2.285a17 17 0 0 0 2.54-1.521c.175-.363.303-.748.379-1.143.084-.42-.042-.637-.379-.637-4.063-.336-7.618.678-10.664 3.045-3.045 2.367-4.738 5.5-5.078 9.395h1.016c.338-1.521 1.354-2.283 3.048-2.283a3.404 3.404 0 0 1 2.284.887 3.063 3.063 0 0 1 1.015 2.414 2.772 2.772 0 0 1-1.015 2.158 3.378 3.378 0 0 1-2.284.889 1.767 1.767 0 0 1-1.779-.508 10 10 0 0 1-1.271-1.523h-1.015c.168 3.389 1.31 6.141 3.427 8.254s4.446 3.088 6.985 2.92a6.255 6.255 0 0 0 3.556-1.018c1.017-.674 1.437-1.691 1.271-3.045a3.79 3.79 0 0 0-.507-1.904 1.659 1.659 0 0 0-1.523-.889c-.342.174-.677.762-1.015 1.779-.342.678-.935.848-1.779.506-.677 0-1.015-.506-1.015-1.523.016-.9.278-1.777.761-2.537a2.496 2.496 0 0 1 2.284-1.271c1.354 0 2.623.551 3.807 1.65 1.185 1.102 1.693 2.582 1.525 4.443-.342 3.217-1.738 5.332-4.19 6.346-2.453 1.014-4.865 1.354-7.236 1.018a2.758 2.758 0 0 1-2.033.762c-.508.17-.976 0-1.396-.508a19.14 19.14 0 0 0-1.144-1.271 22.674 22.674 0 0 1-2.412-7.236 48.38 48.38 0 0 1-.636-7.744c.169-4.404 1.779-8.004 4.829-10.797 3.05-2.795 6.858-4.191 11.425-4.191 3.148.162 6.285.5 9.395 1.016 3.189.52 6.426.693 9.653.518 2.876 0 5.33-.338 7.362-1.018.16 1.358-.222 2.374-1.148 3.044zm-30.967 40.24c-3.135-3.301-6.479-5.629-10.03-6.986 1.354 3.727 3.639 7.152 6.854 10.283a39.704 39.704 0 0 0 10.664 7.49 42.054 42.054 0 0 0-7.497-10.787h.009zm-2.92 71.478c-3.217 3.215-5.503 6.602-6.856 10.154 3.726-1.354 7.11-3.682 10.156-6.984a43.565 43.565 0 0 0 7.364-10.791 38.534 38.534 0 0 0-10.673 7.617l.009.004zm33.761 75.532a61 61 0 0 0-.764 9.779 26.363 26.363 0 0 0 .256 3.807c.17 1.201.424 2.389.762 3.555a2.997 2.997 0 0 1-2.92-1.143 6.517 6.517 0 0 1-1.396-3.426c-1.357.68-2.288.764-2.794.254-.508-.508-.678-1.18-.508-2.033a3.193 3.193 0 0 1 .382-1.65c.254-.418.547-.971.887-1.65a4.214 4.214 0 0 0-1.65.762c-.427.342-.809.422-1.144.254-1.015-.168-1.104-1.1-.254-2.795.508-1.352 1.435-2.666 2.794-3.934 1.36-1.27 2.452-2.328 3.3-3.176.675-.506 1.226-1.311 1.652-2.412.427-1.104.554-1.992.38-2.666 0-.168-.214-.293-.636-.381-.421-.086-.722.043-.887.381-1.187 1.695-2.54 2.795-4.063 3.301-1.015.342-2.368.512-4.061.508-1.691-.004-2.538.42-2.54 1.268 0 .342.257.506.762.506s.675.428.508 1.271c0 1.188-.594 1.609-1.776 1.271a3.443 3.443 0 0 1-2.033-1.143 2.04 2.04 0 0 1-.508-1.904c.168-1.182.676-2.07 1.523-2.664a8.823 8.823 0 0 1 2.54-1.271c.787-.24 1.595-.41 2.412-.508.761-.084 1.225-.293 1.396-.635.168-.168.21-.547.126-1.141-.082-.549-.124-1.1-.126-1.654a5.616 5.616 0 0 1 .254-1.775c.168-.508.676-.846 1.522-1.016 1.186-.34 2.033-.039 2.54.887.449.84.958 1.646 1.523 2.412.255.301.621.484 1.015.508.508 0 .762-.168.762-.508.338-4.063-.677-7.576-3.046-10.537-2.368-2.963-5.5-4.611-9.395-4.951v.762c1.522.68 2.284 1.779 2.284 3.299a2.754 2.754 0 0 1-1.015 2.158 3.381 3.381 0 0 1-4.571 0 2.755 2.755 0 0 1-1.017-2.158c0-1.689.761-2.705 2.283-3.045v-1.271c-3.388.342-6.182 1.568-8.382 3.682-2.199 2.113-3.214 4.441-3.045 6.984a7.813 7.813 0 0 0 1.267 3.303c.675 1.014 1.691 1.521 3.048 1.521a3.74 3.74 0 0 0 1.902-.508c.591-.336.801-.93.636-1.775a.603.603 0 0 0-.508-.637 4.628 4.628 0 0 1-1.016-.381c-.507-.168-.761-.674-.761-1.523.167-.674.761-1.016 1.776-1.016 2.198-.338 3.468.678 3.812 3.047 0 1.355-.552 2.584-1.653 3.68-1.103 1.098-2.583 1.564-4.442 1.398-3.389-.338-5.547-1.734-6.475-4.191a14.36 14.36 0 0 1-.888-7.236c-.678-.338-1.017-1.014-1.015-2.033 0-.844.673-1.605 2.027-2.283a20.24 20.24 0 0 1 7.111-2.412 51.366 51.366 0 0 1 7.871-.637c4.401.17 7.998 1.734 10.792 4.697 2.794 2.961 4.106 6.729 3.938 11.299a59.713 59.713 0 0 1-.759 9.525h.005zm-2.414-198.803c-2.794 2.963-6.392 4.527-10.792 4.695a50.612 50.612 0 0 1-7.872-.635 20.076 20.076 0 0 1-7.11-2.412c-1.355-.676-2.028-1.438-2.028-2.285 0-1.018.338-1.689 1.016-2.031a14.357 14.357 0 0 1 .887-7.236c.932-2.451 3.09-3.85 6.475-4.191 1.863-.338 3.344.086 4.442 1.271 1.1 1.184 1.65 2.453 1.653 3.807a3.71 3.71 0 0 1-1.396 2.412 2.86 2.86 0 0 1-2.415.635c-1.015 0-1.608-.338-1.776-1.016a1.709 1.709 0 0 1 .762-1.521 5.376 5.376 0 0 1 1.015-.383.597.597 0 0 0 .508-.635c.168-.846-.042-1.396-.636-1.65a13.272 13.272 0 0 0-1.902-.637c-1.358 0-2.374.508-3.048 1.523a7.854 7.854 0 0 0-1.267 3.301c-.172 2.539.802 4.867 2.92 6.986 2.119 2.117 4.955 3.346 8.508 3.686V40.42c-1.522-.338-2.284-1.352-2.284-3.047a2.768 2.768 0 0 1 1.018-2.158 3.375 3.375 0 0 1 2.284-.887 2.945 2.945 0 0 1 2.158.887c.589.59.986 1.342 1.141 2.158 0 1.693-.846 2.793-2.538 3.301l.254.76c3.892-.336 7.023-1.986 9.395-4.949s3.388-6.475 3.048-10.537c0-.338-.256-.508-.764-.508a1.46 1.46 0 0 0-1.015.508 20.254 20.254 0 0 0-1.521 2.412c-.509.932-1.355 1.227-2.54.887-.848-.166-1.355-.506-1.522-1.016a4.745 4.745 0 0 1-.254-1.521 13.25 13.25 0 0 1 .125-1.9c.084-.59.04-.971-.125-1.141-.166-.17-.636-.34-1.397-.508a31.743 31.743 0 0 1-2.412-.637 8.685 8.685 0 0 1-2.54-1.271c-.848-.588-1.355-1.477-1.522-2.662a2.037 2.037 0 0 1 .508-1.904 3.484 3.484 0 0 1 2.032-1.145c1.181-.338 1.776.09 1.776 1.271.168.85 0 1.271-.508 1.271-.507 0-.761.17-.761.508 0 .848.845 1.266 2.54 1.266 1.694 0 3.045.174 4.061.508 1.525.51 2.88 1.609 4.063 3.303.168.342.466.465.888.379.421-.086.635-.209.635-.379.168-.676.042-1.564-.379-2.666-.427-1.1-.976-1.904-1.653-2.412a161.98 161.98 0 0 0-3.299-3.176c-1.353-1.273-2.283-2.584-2.794-3.936-.851-1.521-.762-2.451.254-2.793.34-.168.719-.084 1.143.254a4.118 4.118 0 0 0 1.651.76 31.359 31.359 0 0 0-.888-1.65 3.185 3.185 0 0 1-.382-1.65c-.169-.844 0-1.521.508-2.033.508-.508 1.437-.418 2.794.254a6.553 6.553 0 0 1 1.396-3.424 3.014 3.014 0 0 1 2.92-1.145 25.997 25.997 0 0 0-.761 3.557 26.475 26.475 0 0 0-.254 3.807 60.9 60.9 0 0 0 .761 9.779c.508 3.146.763 6.33.762 9.52.158 4.564-1.156 8.33-3.946 11.293zm2.283 81.371a4.075 4.075 0 0 1-1.65 1.525c1.015 1.014 1.438 1.775 1.271 2.283-.342.342-1.188.002-2.54-1.018-1.016 1.523-2.284 2.201-3.807 2.033-.851-.338-1.397-1.182-1.651-2.539a18.2 18.2 0 0 0-1.143-3.811c.336 2.205.124 3.896-.636 5.078-.761 1.182-1.648 1.096-2.664-.254-.68.678-1.78.848-3.302.508a3.922 3.922 0 0 1-2.283-1.904c-.51-.932-.595-1.82-.257-2.666 0-.338.257-.506.764-.506.673 0 1.016.17 1.016.506.366.395.628.875.761 1.396.168.596.508.893 1.016.893 1.862 0 2.794-1.355 2.794-4.064a13.387 13.387 0 0 0-.762-3.045 10.66 10.66 0 0 0-1.141-2.158 4.2 4.2 0 0 1-.762-1.521 1.202 1.202 0 0 1 .38-1.145c.675-.674 1.521-.506 2.54.508s2.711 1.605 5.078 1.777c1.351.172 2.365-.041 3.046-.637a2.769 2.769 0 0 0 1.015-2.158c0-.506-.296-.844-.887-1.016a7.695 7.695 0 0 1-1.397-.506c-.342-.168-.508-.508-.508-1.016s.168-.846.508-1.018a2.988 2.988 0 0 1 2.794.381 4.837 4.837 0 0 1 1.776 2.158c.34 1.523.168 2.711-.505 3.557 1.351.848 1.435 1.65.254 2.412-1.182.76-2.874.973-5.078.635 1.232.527 2.505.951 3.807 1.271 1.353.342 2.198.932 2.54 1.777a3.033 3.033 0 0 1-.387 2.283v.001zm-1.77 19.424a12.2 12.2 0 0 0-3.937 1.398c2.197-.338 3.891-.125 5.078.635s1.103 1.566-.254 2.414c.844.848 1.098 1.947.761 3.299a4.473 4.473 0 0 1-1.901 2.412 3.258 3.258 0 0 1-2.923.383c-.34-.168-.505-.508-.505-1.016s.168-.846.505-1.018c.51-.168 1.018-.336 1.525-.508a.991.991 0 0 0 .762-1.014c0-2.199-1.271-3.131-3.812-2.795-2.37.172-4.104.766-5.204 1.779-1.099 1.014-1.988 1.182-2.668.506a.983.983 0 0 1-.254-1.143c.218-.523.473-1.033.762-1.521.337-.592.718-1.311 1.143-2.158a6.793 6.793 0 0 0 .636-3.049c0-2.537-.932-3.807-2.794-3.807-.678 0-1.104.256-1.271.762-.167.506-.342 1.018-.507 1.523-.17.342-.506.508-1.016.508s-.761-.168-.761-.508a3.512 3.512 0 0 1 .253-2.92 3.936 3.936 0 0 1 2.284-1.902c1.523-.338 2.623-.084 3.302.762 1.016-1.354 1.903-1.439 2.666-.256.762 1.182.974 2.791.636 4.824a13.5 13.5 0 0 0 1.141-3.682c.253-1.438.804-2.242 1.65-2.412.846-.34 1.606-.293 2.287.125.649.4 1.177.971 1.522 1.65 1.351-1.014 2.196-1.354 2.538-1.014.509.168.085.93-1.271 2.283 1.69.848 2.368 2.117 2.032 3.807-.169.852-.975 1.399-2.405 1.653zm-5.21-23.867c-1.358-1.098-2.713-1.816-4.063-2.158a9.527 9.527 0 0 0 2.158 3.938c1.098 1.27 2.578 2.074 4.442 2.412a7.067 7.067 0 0 0-2.537-4.192zm-1.653 22.599a9.542 9.542 0 0 0-2.158 3.934 9.4 9.4 0 0 0 4.19-2.158 7.273 7.273 0 0 0 2.415-4.189c-1.866.341-3.348 1.146-4.447 2.413zm58.269-28.945c-1.186 1.266-2.539 1.898-4.061 1.898a3.952 3.952 0 0 1-2.922-1.141c-.761-.764-1.141-1.564-1.141-2.414a6.31 6.31 0 0 1 .762-2.793c.167-.338.636-.467 1.396-.381.762.086 1.055.297.888.637-.51 2.199.083 3.299 1.778 3.299a2.327 2.327 0 0 0 2.028-1.141c.507-.762.507-1.564 0-2.414-.678.342-1.229.256-1.651-.254a4.356 4.356 0 0 1-.887-1.777 16.288 16.288 0 0 1-.382-2.033c-.086-.674-.126-1.1-.126-1.27-1.015.848-1.946.848-2.794 0s-1.016-2.203-.505-4.064a38.244 38.244 0 0 1-5.84 4.834 34.771 34.771 0 0 1-7.11 3.555c-.342.848-.554 1.99-.636 3.428a6.887 6.887 0 0 0 .888 3.936 38.282 38.282 0 0 1 2.919-1.016 3.009 3.009 0 0 1 2.92.506c.845.85 1.438 2.289 1.779 4.316 0 1.695-.932 2.711-2.794 3.047-.173 1.016.083 2.119.761 3.301.678 1.18 1.522 1.777 2.538 1.777a3.692 3.692 0 0 0 2.54-.891c.673-.59 1.016-1.225 1.016-1.902a2.051 2.051 0 0 0-1.142-1.904c-.761-.42-.976-.971-.636-1.652.507-.844 1.438-.801 2.794.127 1.357.928 2.033 2.07 2.028 3.428 0 1.691-.634 3.045-1.902 4.061a7.987 7.987 0 0 1-4.19 1.777c-3.389 0-5.97-1.014-7.744-3.045-1.774-2.029-2.83-4.061-3.169-6.09a39.387 39.387 0 0 1-.887-6.602c-.089-2.039.039-4.08.379-6.094-4.062.842-8.296.758-12.703-.254-2.031-.506-4.063-1.646-6.095-3.424-2.032-1.777-3.044-4.275-3.036-7.492a6.102 6.102 0 0 1 1.65-4.316 6.399 6.399 0 0 1 4.191-2.033c1.353 0 2.495.678 3.427 2.033.932 1.354.974 2.285.126 2.793-.678.342-1.229.125-1.651-.635a2.052 2.052 0 0 0-1.904-1.141c-.678 0-1.313.338-1.904 1.014a3.71 3.71 0 0 0-.888 2.539c0 1.186.594 2.074 1.779 2.666 1.181.594 2.284.805 3.299.635.337-1.863 1.353-2.793 3.046-2.793 2.198.34 3.637 1.018 4.316 2.031.676.678.892 1.611.636 2.795a9.924 9.924 0 0 1-1.141 3.045 8.533 8.533 0 0 0 3.928.633c1.438-.084 2.579-.295 3.427-.635a25.838 25.838 0 0 1 3.428-6.855 62.113 62.113 0 0 1 4.95-6.096c-1.863.51-3.217.34-4.061-.506-.845-.848-.845-1.779 0-2.795-.173 0-.594-.039-1.271-.129a16.723 16.723 0 0 1-2.033-.379 4.352 4.352 0 0 1-1.776-.887c-.509-.422-.594-.973-.256-1.652a2.685 2.685 0 0 0-2.412.127 2.049 2.049 0 0 0-1.141 1.902c0 .85.293 1.439.887 1.779s1.397.34 2.412 0c.338-.168.547.125.636.887s-.042 1.229-.382 1.396a6.327 6.327 0 0 1-2.794.762c-.851 0-1.612-.381-2.286-1.143s-1.013-1.736-1.016-2.92c0-1.523.593-2.877 1.776-4.061 1.185-1.184 2.709-1.607 4.573-1.271.505-.676 1.099-1.018 1.776-1.018a6.518 6.518 0 0 1 2.666.637c.851.379 1.659.848 2.412 1.396.675.508 1.102.762 1.271.762.507-1.182 1.099-1.863 1.778-2.033a2.245 2.245 0 0 1 1.902.381c.592.426 1.099 1.104 1.522 2.033.43 1 .563 2.102.382 3.174 1.351-1.35 3.255-2.662 5.714-3.936 2.459-1.271 4.193-1.738 5.204-1.396.337 1.016-.129 2.75-1.397 5.203-1.268 2.455-2.58 4.359-3.935 5.715a5.657 5.657 0 0 1 3.188.387c.931.424 1.608.934 2.032 1.523.41.545.55 1.244.38 1.902-.169.68-.847 1.271-2.033 1.779.297.535.637 1.045 1.018 1.523.521.703.949 1.471 1.271 2.283.324.811.535 1.662.629 2.531.08.848-.301 1.439-1.144 1.777.339 1.872-.084 3.44-1.268 4.708zm-3.426 64.365c-2.454-1.186-4.442-2.539-5.965-4.063.167 2.373-.51 4.15-2.033 5.332-1.522 1.18-2.707.588-3.555-1.777-.404.359-.827.699-1.267 1.016a14.718 14.718 0 0 1-2.287 1.396 7.233 7.233 0 0 1-2.537.762c-.851.088-1.439-.293-1.779-1.141-2.027.342-3.642-.084-4.821-1.271-1.181-1.188-1.779-2.539-1.779-4.063a4.411 4.411 0 0 1 1.144-3.047c.762-.844 1.565-1.268 2.412-1.271.478-.002.951.084 1.396.258.49.207.958.461 1.397.76.337.17.466.637.382 1.398-.084.76-.298 1.057-.636.887-2.201-.676-3.302-.084-3.302 1.775-.207.768.167 1.57.887 1.906.764.426 1.565.381 2.415-.127-.343-.676-.256-1.18.254-1.521a5.674 5.674 0 0 1 1.776-.77 17.909 17.909 0 0 1 2.027-.381c.506-.07 1.016-.113 1.525-.127-1.018-1.18-1.06-2.158-.128-2.92.932-.76 2.328-.971 4.19-.635a44.8 44.8 0 0 1-4.952-5.84 25.916 25.916 0 0 1-3.427-6.861 14.137 14.137 0 0 0-3.556-.635 8.234 8.234 0 0 0-3.809.635c.34.848.675 1.818 1.018 2.92.342 1.102.167 2.074-.508 2.92-1.016 1.184-2.539 1.775-4.57 1.775-1.523.342-2.454-.59-2.794-2.793a7.91 7.91 0 0 0-3.556.887c-1.186.598-1.778 1.486-1.778 2.666a3.14 3.14 0 0 0 1.017 2.285c.673.676 1.354 1.016 2.033 1.016a2.094 2.094 0 0 0 1.902-1.016c.421-.674.971-.846 1.652-.506.845.506.802 1.438-.128 2.793-.93 1.357-2.075 1.953-3.437 1.789a5.296 5.296 0 0 1-4.19-1.904 6.229 6.229 0 0 1-1.651-4.191c-.172-3.217.802-5.713 2.92-7.492 2.119-1.779 4.191-2.836 6.219-3.174 4.736-1.016 8.883-1.186 12.44-.508a29.21 29.21 0 0 1-.37-6.082c.108-2.221.405-4.43.887-6.602.34-2.033 1.441-4.109 3.304-6.227 1.863-2.117 4.401-3.09 7.616-2.92 1.522 0 2.92.551 4.19 1.65a5.312 5.312 0 0 1 1.905 4.191c0 1.357-.678 2.5-2.033 3.428-1.354.928-2.201.971-2.54.125-.506-.674-.379-1.227.382-1.652a2.045 2.045 0 0 0 1.144-1.902c0-.676-.343-1.354-1.018-2.033a3.164 3.164 0 0 0-2.284-1.014c-1.186 0-2.117.633-2.794 1.9-.677 1.27-.931 2.412-.762 3.428a2.569 2.569 0 0 1 2.033.887c.479.521.749 1.199.761 1.906-.341 2.199-.934 3.723-1.778 4.57a2.993 2.993 0 0 1-2.92.506 36.459 36.459 0 0 1-2.92-1.014 6.66 6.66 0 0 0-.887 3.807c.056 1.207.27 2.402.636 3.555a25.414 25.414 0 0 1 7.11 3.422 46.073 46.073 0 0 1 5.84 4.953c-.343-1.863-.126-3.26.636-4.191.761-.932 1.65-.973 2.665-.127 0-.166.038-.59.126-1.268a8.967 8.967 0 0 1 .506-2.033c.208-.592.509-1.15.892-1.65.337-.422.844-.549 1.522-.381.506-.846.506-1.648 0-2.412-.508-.762-1.188-1.055-2.032-.893-1.863 0-2.371 1.102-1.523 3.303.168.342-.172.551-1.018.635-.845.084-1.354-.039-1.522-.381a6.347 6.347 0 0 1-.757-2.771c0-.846.419-1.65 1.271-2.412a4.085 4.085 0 0 1 2.794-1.141c1.522 0 2.877.592 4.063 1.775 1.187 1.186 1.694 2.793 1.523 4.824.673.344 1.015.932 1.015 1.777a5.683 5.683 0 0 1-.636 2.541 17.143 17.143 0 0 1-2.412 3.555c1.181.506 1.902 1.102 2.158 1.775.257.676.126 1.355-.382 2.033a4.538 4.538 0 0 1-2.158 1.523 6.451 6.451 0 0 1-3.173.254c1.522 1.521 2.877 3.512 4.063 5.967s1.693 4.189 1.522 5.203c-1.016.166-2.752-.345-5.206-1.529zm-10.029 45.699a14.417 14.417 0 0 1-.892 7.236c-.931 2.457-3.09 3.854-6.475 4.191-1.863.168-3.344-.297-4.442-1.396-1.104-1.1-1.651-2.33-1.651-3.682a3.706 3.706 0 0 1 1.397-2.412 2.889 2.889 0 0 1 2.412-.637c1.018 0 1.606.34 1.778 1.016 0 .85-.256 1.355-.761 1.523a4.857 4.857 0 0 1-1.018.381.6.6 0 0 0-.508.637c-.17.848.04 1.438.636 1.775a3.744 3.744 0 0 0 1.904.508c1.354 0 2.369-.508 3.046-1.521a7.923 7.923 0 0 0 1.271-3.303c.167-2.537-.806-4.865-2.92-6.984s-4.949-3.346-8.506-3.682v1.271c1.523.342 2.284 1.357 2.284 3.045a2.766 2.766 0 0 1-1.015 2.158 3.377 3.377 0 0 1-2.284.889 2.919 2.919 0 0 1-2.158-.889 4.07 4.07 0 0 1-1.144-2.158c0-1.689.846-2.793 2.54-3.299l-.256-.762c-3.895.34-7.026 1.988-9.395 4.951-2.368 2.961-3.384 6.475-3.046 10.537a.448.448 0 0 0 .508.508c.476.014.937-.17 1.271-.508a8.16 8.16 0 0 0 1.65-2.412c.42-.932 1.225-1.227 2.412-.887.676.17 1.144.506 1.397 1.016a3.95 3.95 0 0 1 .382 1.775 12.047 12.047 0 0 1-.128 1.654c-.086.594-.043.975.128 1.141.165.342.633.551 1.396.635.817.098 1.625.268 2.412.508.873.27 1.688.701 2.403 1.27.762.594 1.313 1.482 1.653 2.664a2.051 2.051 0 0 1-.508 1.904 3.467 3.467 0 0 1-2.033 1.143c-1.187 0-1.776-.422-1.776-1.271-.172-.846 0-1.271.506-1.271.505 0 .761-.168.761-.508 0-.844-.846-1.266-2.537-1.266-1.695 0-3.046-.168-4.063-.508-1.522-.51-2.876-1.609-4.061-3.301a.736.736 0 0 0-.892-.381c-.426.086-.636.213-.636.381-.169.678-.042 1.566.382 2.666.424 1.098.975 1.902 1.651 2.412.844.85 1.944 1.908 3.301 3.176 1.357 1.266 2.288 2.578 2.794 3.934.845 1.523.76 2.455-.256 2.795-.342.17-.722.088-1.141-.254a4.297 4.297 0 0 0-1.653-.762c.34.678.636 1.229.892 1.65.272.506.404 1.076.38 1.65.167.85 0 1.523-.508 2.033s-1.438.426-2.794-.254a6.574 6.574 0 0 1-1.396 3.426 3.008 3.008 0 0 1-2.92 1.143 25.793 25.793 0 0 0 1.015-7.361 60.865 60.865 0 0 0-.761-9.779 59.187 59.187 0 0 1-.762-9.521c-.169-4.568 1.143-8.336 3.935-11.299 2.793-2.963 6.39-4.527 10.792-4.695 2.637.01 5.269.221 7.872.635 2.5.352 4.912 1.166 7.112 2.402 1.354.68 2.031 1.439 2.033 2.285.006 1.024-.337 1.701-1.01 2.039zm7.363-14.853c-3.047 2.793-6.855 4.189-11.425 4.189a83.204 83.204 0 0 1-9.395-1.014 44.927 44.927 0 0 0-9.651-.508c-2.879 0-5.333.338-7.361 1.018-.176-1.355.202-2.373 1.134-3.051a9.936 9.936 0 0 1 3.438-1.514c-1.186-2.537-.594-3.637 1.776-3.299a12.92 12.92 0 0 1 3.046 1.523c0-.846-.169-1.48-.506-1.906a1.882 1.882 0 0 1-.507-1.141c.337-1.016 1.352-1.102 3.045-.256 1.354.51 2.666 1.482 3.938 2.92s2.244 2.58 2.92 3.428a6.3 6.3 0 0 0 2.537 1.521 8.186 8.186 0 0 0 2.54.508c.338 0 .548-.209.636-.635a.734.734 0 0 0-.382-.887 7.028 7.028 0 0 1-3.301-4.316c-.339-.846-.507-2.115-.506-3.813.002-1.695-.422-2.627-1.271-2.793-.342 0-.552.295-.635.887-.084.592-.552.721-1.397.379a1.092 1.092 0 0 1-.89-.502 1.31 1.31 0 0 1-.125-1.271 2.538 2.538 0 0 1 .887-2.033 2.422 2.422 0 0 1 2.158-.508c1.181.342 2.032.893 2.538 1.654a8.943 8.943 0 0 1 1.143 2.412c.239.787.409 1.594.508 2.412.084.76.294 1.229.636 1.396.168.342.548.469 1.141.381a13.8 13.8 0 0 1 1.905-.125 5.685 5.685 0 0 1 1.776.254c.507.17.845.678 1.018 1.523.337 1.014 0 1.777-1.018 2.283a9.657 9.657 0 0 0-2.538 1.779 1.72 1.72 0 0 0-.382.887c-.086.426.039.635.382.635 4.061.342 7.615-.674 10.663-3.045 3.049-2.371 4.741-5.504 5.078-9.395h-1.018c-.341 1.523-1.356 2.283-3.045 2.283a3.344 3.344 0 0 1-2.284-.887 3.035 3.035 0 0 1-1.018-2.414 2.768 2.768 0 0 1 1.018-2.158 3.386 3.386 0 0 1 2.284-.887 1.763 1.763 0 0 1 1.776.508c.473.465.898.975 1.271 1.521h1.018c-.173-3.385-1.315-6.137-3.428-8.254s-4.44-3.09-6.984-2.918a6.269 6.269 0 0 0-3.556 1.016c-1.015.68-1.438 1.695-1.267 3.047-.005.668.17 1.326.505 1.904.293.566.887.912 1.523.887.288-.117.517-.348.636-.635a6.45 6.45 0 0 1 .382-.889c.336-.844.929-1.098 1.776-.76.675 0 1.018.504 1.018 1.521a4.92 4.92 0 0 1-.762 2.539 2.487 2.487 0 0 1-2.286 1.27c-1.355 0-2.627-.547-3.807-1.65-1.181-1.104-1.693-2.576-1.523-4.441.337-3.217 1.734-5.332 4.191-6.348s4.869-1.354 7.236-1.018a2.754 2.754 0 0 1 2.032-.762 1.964 1.964 0 0 1 1.397.637c.419.426.798.805 1.141 1.143a22.927 22.927 0 0 1 2.414 7.236c.416 2.561.628 5.15.634 7.744-.172 4.403-1.781 7.997-4.827 10.788zm-7.618-164.145a20.056 20.056 0 0 1-7.11 2.412 50.622 50.622 0 0 1-7.872.635c-4.402-.168-7.999-1.732-10.792-4.695-2.792-2.963-4.104-6.73-3.935-11.299a59.301 59.301 0 0 1 .762-9.521c.516-3.234.771-6.504.761-9.779.02-2.49-.322-4.969-1.015-7.361a3.011 3.011 0 0 1 2.915 1.148 6.596 6.596 0 0 1 1.396 3.424c1.351-.672 2.284-.762 2.794-.254s.673 1.188.506 2.033a3.172 3.172 0 0 1-.38 1.65 26.64 26.64 0 0 0-.892 1.65 4.194 4.194 0 0 0 1.653-.76c.419-.338.801-.42 1.141-.254 1.017.168 1.102 1.1.256 2.793-.509 1.357-1.44 2.668-2.794 3.936a132.04 132.04 0 0 0-3.302 3.176c-.677.504-1.229 1.313-1.65 2.412-.421 1.098-.552 1.99-.382 2.666 0 .17.212.295.636.379a.724.724 0 0 0 .892-.379c1.182-1.691 2.535-2.791 4.061-3.303 1.018-.338 2.368-.508 4.063-.508 1.695 0 2.538-.418 2.538-1.266 0-.34-.254-.508-.761-.508-.508 0-.678-.42-.506-1.271 0-1.18.589-1.605 1.776-1.271a3.514 3.514 0 0 1 2.033 1.145c.482.506.673 1.225.507 1.904-.172 1.188-.635 2.074-1.396 2.662a7.072 7.072 0 0 1-2.54 1.271c-.932.256-1.777.469-2.538.637-.762.17-1.229.342-1.396.508-.168.164-.215.551-.129 1.141.087.631.13 1.268.129 1.904a3.404 3.404 0 0 1-.382 1.523 1.981 1.981 0 0 1-1.397 1.014c-1.186.342-2.032.047-2.538-.887a20.603 20.603 0 0 0-1.522-2.412 1.737 1.737 0 0 0-1.271-.508.45.45 0 0 0-.507.508c-.342 4.064.673 7.576 3.045 10.537 2.372 2.963 5.503 4.613 9.395 4.951v-.762c-1.522-.672-2.284-1.777-2.284-3.299a2.76 2.76 0 0 1 1.018-2.158 3.38 3.38 0 0 1 4.57 0 2.789 2.789 0 0 1 1.016 2.158c0 1.691-.762 2.707-2.284 3.045v1.271c3.555-.338 6.39-1.564 8.505-3.682 2.116-2.115 3.089-4.443 2.92-6.984a7.941 7.941 0 0 0-1.271-3.301c-.672-1.016-1.685-1.523-3.038-1.523-.65.162-1.287.375-1.904.635-.594.254-.806.807-.636 1.652a.594.594 0 0 0 .508.635c.351.094.691.221 1.017.383.506.336.795.916.762 1.521-.172.678-.762 1.016-1.778 1.016a2.85 2.85 0 0 1-2.412-.635 3.686 3.686 0 0 1-1.397-2.412c0-1.354.547-2.623 1.65-3.809 1.104-1.184 2.578-1.605 4.442-1.27 3.386.34 5.544 1.738 6.476 4.189a14.464 14.464 0 0 1 .892 7.236c.673.344 1.015 1.016 1.015 2.033 0 .844-.677 1.602-2.032 2.277v.001zm-10.664 81.373a3.907 3.907 0 0 1-2.284 1.902c-1.523.342-2.627.088-3.3-.762-1.018 1.359-1.904 1.439-2.666.256-.761-1.182-.975-2.793-.635-4.824a13.463 13.463 0 0 0-1.15 3.684c-.254 1.439-.806 2.248-1.651 2.412-1.518.508-2.784-.17-3.8-2.033-.442.447-.909.871-1.396 1.268-.426.342-.806.342-1.144 0-.337-.342.084-1.1 1.271-2.283-1.691-.846-2.369-2.113-2.032-3.809.167-.844.973-1.395 2.414-1.65a17.922 17.922 0 0 0 3.935-1.143c-2.2.17-3.894-.127-5.077-.887-1.185-.762-1.101-1.566.253-2.414-.847-.846-1.101-2.029-.761-3.555a4.65 4.65 0 0 1 1.904-2.158 3.276 3.276 0 0 1 2.92-.381c.337.17.508.508.508 1.016s-.173.85-.508 1.018c-.508.17-1.016.342-1.522.506-.508.166-.762.594-.762 1.268a2.411 2.411 0 0 0 1.015 2.033c.676.508 1.606.678 2.794.508a6.738 6.738 0 0 0 3.036-.633c.845-.42 1.564-.801 2.158-1.143a13.552 13.552 0 0 1 1.525-.762.992.992 0 0 1 1.141.256c.676.848.506 1.779-.507 2.795-1.014 1.016-1.606 2.707-1.777 5.078 0 2.537.932 3.807 2.794 3.807.673 0 1.1-.256 1.271-.762.173-.506.338-1.018.506-1.521.167-.342.507-.508 1.017-.508.511 0 .762.17.762.508a3.526 3.526 0 0 1-.251 2.916v-.003zm23.234-52.302a19.638 19.638 0 0 1-2.666 7.236c-.38.389-.721.814-1.018 1.271-.338.51-.76.678-1.267.508a2.75 2.75 0 0 1-2.032-.762c-2.373.342-4.785.002-7.236-1.018s-3.848-3.135-4.19-6.348c-.17-1.861.338-3.342 1.522-4.441s2.453-1.648 3.807-1.65a2.497 2.497 0 0 1 2.286 1.271c.481.76.745 1.637.762 2.537 0 1.018-.343 1.523-1.018 1.523-.848.34-1.439.172-1.776-.506-.343-1.018-.678-1.607-1.018-1.779a1.65 1.65 0 0 0-1.522.887 3.77 3.77 0 0 0-.506 1.904c0 1.355.466 2.373 1.397 3.047.931.672 2.069 1.018 3.425 1.018 2.541.168 4.869-.805 6.984-2.92 2.116-2.115 3.259-4.867 3.428-8.254h-1.018a10.135 10.135 0 0 1-1.267 1.521 1.76 1.76 0 0 1-1.778.508 3.347 3.347 0 0 1-2.284-.887 2.76 2.76 0 0 1-1.016-2.158 3.045 3.045 0 0 1 1.016-2.414 3.384 3.384 0 0 1 2.284-.887c1.689 0 2.705.762 3.045 2.283h1.018c-.334-3.895-2.025-7.023-5.076-9.389-3.05-2.367-6.604-3.381-10.663-3.047-.343 0-.466.215-.382.637.074.396.202.781.382 1.143.8.582 1.648 1.092 2.538 1.523 1.018.504 1.353 1.271 1.018 2.283-.173.848-.508 1.355-1.018 1.523a5.63 5.63 0 0 1-1.776.254 12.908 12.908 0 0 1-1.905-.127c-.594-.084-.973-.037-1.141.127-.342.342-.552.891-.636 1.652a14.152 14.152 0 0 1-.508 2.412 11.109 11.109 0 0 1-1.141 2.541c-.508.848-1.359 1.354-2.54 1.521a2.41 2.41 0 0 1-2.158-.508 2.525 2.525 0 0 1-.887-2.031 1.31 1.31 0 0 1 .125-1.271c.194-.305.526-.494.888-.506.845-.34 1.311-.209 1.396.379.086.59.294.807.636.637.845 0 1.269-.846 1.271-2.539.003-1.691.171-2.961.505-3.811a7.047 7.047 0 0 1 3.302-4.316c.184-.209.274-.484.254-.762 0-.506-.17-.762-.506-.762a8.423 8.423 0 0 0-2.54.508 6.404 6.404 0 0 0-2.537 1.523c-.679.85-1.652 1.992-2.92 3.428-1.269 1.434-2.581 2.406-3.938 2.918-1.691.848-2.707.764-3.045-.256a1.91 1.91 0 0 1 .507-1.141c.337-.42.506-1.055.506-1.904-1.016.857-2.031 1.363-3.048 1.518-2.373.342-2.966-.758-1.776-3.299a9.765 9.765 0 0 1-3.428-1.523c-.931-.674-1.313-1.689-1.143-3.047 2.031.68 4.486 1.02 7.364 1.018 3.225.178 6.458.008 9.646-.508a83.673 83.673 0 0 1 9.396-1.021c4.569 0 8.378 1.396 11.425 4.191 3.047 2.793 4.654 6.389 4.821 10.789a48.863 48.863 0 0 1-.631 7.752v.001zm-23.748 67.154c-.508 0-.762-.168-.762-.504a3.078 3.078 0 0 1-.762-1.398c-.172-.59-.507-.891-1.017-.891-1.863 0-2.794 1.359-2.794 4.063.167 2.373.76 4.107 1.778 5.203s1.187 1.984.505 2.666c-.678.68-1.523.51-2.537-.508-1.014-1.016-2.707-1.607-5.078-1.775-1.356-.168-2.372.043-3.046.635a2.775 2.775 0 0 0-1.018 2.158c0 .506.294.848.888 1.016.479.131.946.299 1.396.508.339.17.508.508.508 1.016s-.17.85-.508 1.018c-.844.346-1.732.219-2.663-.381a4.555 4.555 0 0 1-1.904-2.158c-.343-1.521-.17-2.705.507-3.555-1.356-.844-1.441-1.648-.256-2.412s2.879-.977 5.078-.635a23.73 23.73 0 0 0-3.935-1.271c-1.439-.338-2.243-.93-2.412-1.777a3.02 3.02 0 0 1 .379-2.283 4.056 4.056 0 0 1 1.653-1.525c-1.017-1.016-1.44-1.777-1.271-2.285.337-.336 1.183.004 2.538 1.018 1.017-1.521 2.287-2.199 3.812-2.031.845.34 1.395 1.188 1.65 2.537a18.044 18.044 0 0 0 1.142 3.811c-.339-2.197-.127-3.891.635-5.076.763-1.188 1.651-1.104 2.666.252.845-.844 1.945-1.012 3.302-.506.98.313 1.799.996 2.284 1.904.506.932.591 1.82.254 2.666.012.34-.331.508-1.004.508l-.008-.008zm-11.039-21.201a7.296 7.296 0 0 0-2.412 4.191c1.863-.338 3.344-1.143 4.442-2.414a9.572 9.572 0 0 0 2.158-3.936 9.565 9.565 0 0 0-4.188 2.159zm2.287 22.584c-1.104-1.27-2.582-2.068-4.445-2.412a7.02 7.02 0 0 0 2.54 4.191c1.354 1.104 2.708 1.824 4.063 2.158a9.662 9.662 0 0 0-2.156-3.92l-.002-.017zm21.452-47.729a43.554 43.554 0 0 0-7.361 10.791 39.906 39.906 0 0 0 10.663-7.49c3.213-3.129 5.498-6.557 6.854-10.283-3.724 1.367-7.108 3.699-10.153 6.996l-.003-.014zm3.556 71.346a39.95 39.95 0 0 0-10.664-7.49 41.83 41.83 0 0 0 7.493 10.791c3.129 3.301 6.473 5.629 10.03 6.984-1.36-3.715-3.646-7.141-6.859-10.273v-.012zm42.654-53.067a61.23 61.23 0 0 0-.762 9.779c-.032 2.494.31 4.98 1.016 7.373a2.991 2.991 0 0 1-2.92-1.141 8.62 8.62 0 0 1-1.653-3.428c-1.185.678-2.03.764-2.538.254-.507-.508-.677-1.18-.507-2.033 0-.844.419-1.943 1.271-3.299a4.282 4.282 0 0 0-1.651.762c-.425.342-.807.426-1.143.254-1.016-.168-1.104-1.1-.254-2.795.506-1.35 1.437-2.703 2.794-4.061a43.012 43.012 0 0 1 3.299-3.047c.675-.506 1.183-1.311 1.522-2.412a9.504 9.504 0 0 0 .508-2.666c0-.166-.214-.293-.636-.379-.421-.086-.722.041-.887.379-1.187 1.695-2.54 2.795-4.063 3.301-1.015.342-2.368.512-4.061.508-1.694 0-2.54.426-2.54 1.268 0 .342.254.508.762.508s.675.426.508 1.27c0 .852-.678 1.271-2.033 1.271-1.862-.338-2.624-1.354-2.284-3.047.168-1.182.636-2.07 1.397-2.664a7.342 7.342 0 0 1 2.412-1.271 14.368 14.368 0 0 1 2.412-.508c.762-.084 1.311-.293 1.653-.635.167-.166.209-.547.125-1.141a11.263 11.263 0 0 1-.125-1.65 5.584 5.584 0 0 1 .254-1.779c.167-.508.675-.846 1.522-1.016 1.181-.34 1.988-.039 2.414.887a7.986 7.986 0 0 0 1.646 2.412c.845.85 1.434.85 1.776 0 .168-4.061-.891-7.615-3.174-10.662-2.283-3.049-5.456-4.742-9.521-5.078v1.018c1.69.51 2.536 1.609 2.536 3.299a4.123 4.123 0 0 1-1.142 2.158 2.932 2.932 0 0 1-2.158.891 3.356 3.356 0 0 1-2.286-.891 2.753 2.753 0 0 1-1.015-2.158c0-1.691.761-2.705 2.283-3.045l-.253-1.271c-3.389.34-6.14 1.568-8.254 3.684-2.114 2.113-3.088 4.355-2.92 6.725a5.766 5.766 0 0 0 1.144 3.557c.762 1.014 1.819 1.521 3.173 1.521 1.69 0 2.54-.76 2.54-2.283a.604.604 0 0 0-.507-.637 4.61 4.61 0 0 1-1.016-.381c-.508-.168-.762-.674-.762-1.523.168-.672.762-1.014 1.777-1.014a2.887 2.887 0 0 1 2.409.635c.763.594 1.143 1.314 1.141 2.158.168 1.357-.34 2.625-1.522 3.807s-2.706 1.689-4.57 1.523c-3.218-.338-5.291-1.734-6.221-4.191a14.357 14.357 0 0 1-.888-7.236c-.678-.336-1.018-1.014-1.018-2.033 0-.844.678-1.605 2.033-2.283a20.236 20.236 0 0 1 7.11-2.412 51.45 51.45 0 0 1 7.879-.627c4.4.17 7.955 1.736 10.663 4.699 2.709 2.963 4.063 6.729 4.061 11.297a59.239 59.239 0 0 1-.761 9.516v-.017zm-3.3 59.932c-2.71 2.965-6.265 4.531-10.663 4.699a50.86 50.86 0 0 1-7.872-.637 20.03 20.03 0 0 1-7.108-2.414c-1.356-.676-2.034-1.436-2.032-2.283 0-1.018.34-1.691 1.018-2.033a14.37 14.37 0 0 1 .887-7.236c.932-2.451 3.005-3.848 6.222-4.191 1.862-.336 3.386.129 4.57 1.398 1.185 1.268 1.691 2.578 1.522 3.934 0 .852-.38 1.57-1.141 2.158a2.854 2.854 0 0 1-2.415.637c-1.015 0-1.608-.338-1.776-1.016a1.714 1.714 0 0 1 .762-1.523 5.236 5.236 0 0 1 1.015-.381.602.602 0 0 0 .508-.637c0-1.521-.85-2.283-2.54-2.283-1.356 0-2.414.508-3.174 1.523a5.768 5.768 0 0 0-1.141 3.553c-.169 2.373.804 4.615 2.92 6.727 2.115 2.109 4.867 3.338 8.254 3.682l.254-1.27c-1.523-.338-2.284-1.354-2.284-3.047a2.766 2.766 0 0 1 1.015-2.158 3.384 3.384 0 0 1 2.287-.891 2.948 2.948 0 0 1 2.158.891 4.18 4.18 0 0 1 1.141 2.158c0 1.693-.846 2.793-2.538 3.301v1.016c4.061-.338 7.234-2.029 9.521-5.076s3.344-6.602 3.174-10.664c-.343-.846-.932-.846-1.776 0a8.082 8.082 0 0 0-1.651 2.412c-.426.932-1.231 1.229-2.414.887-.848-.168-1.355-.506-1.522-1.016a4.745 4.745 0 0 1-.254-1.521c-.005-.639.037-1.273.125-1.906.084-.588.04-.971-.125-1.141a8.041 8.041 0 0 0-1.653-.508 32.398 32.398 0 0 1-2.412-.635 7.31 7.31 0 0 1-2.407-1.252c-.762-.59-1.229-1.48-1.397-2.664-.342-1.689.42-2.707 2.284-3.047 1.354 0 2.031.422 2.032 1.27.168.852 0 1.271-.507 1.271-.508 0-.762.17-.762.508 0 .848.845 1.268 2.54 1.268s3.046.172 4.061.508c1.522.508 2.877 1.609 4.063 3.301.168.34.466.465.888.379.421-.086.636-.209.636-.379a9.576 9.576 0 0 0-.508-2.666c-.342-1.1-.848-1.904-1.522-2.412a41.528 41.528 0 0 1-3.3-3.047c-1.357-1.352-2.289-2.705-2.794-4.061-.85-1.691-.761-2.625.254-2.795.337-.168.718-.082 1.144.254a4.151 4.151 0 0 0 1.65.762c-.85-1.352-1.271-2.451-1.271-3.299-.17-.846 0-1.523.507-2.033.508-.508 1.353-.42 2.538.254a8.686 8.686 0 0 1 1.653-3.428 3.01 3.01 0 0 1 2.915-1.154c-.679 2.031-1.018 4.486-1.018 7.361a61.113 61.113 0 0 0 .761 9.779c.51 3.148.765 6.332.762 9.52-.003 4.567-1.357 8.332-4.064 11.293zm48.876-34.656a9.787 9.787 0 0 1-3.428 1.525c.845 1.184 1.014 2.072.506 2.664-.508.59-1.27.803-2.284.635-1.016-.168-2.03-.676-3.046-1.523-.015.631.162 1.25.508 1.777.338.508.506.932.506 1.271-.339.85-1.354.936-3.046.256a14.032 14.032 0 0 1-3.935-3.047c-1.27-1.352-2.243-2.451-2.92-3.301a6.429 6.429 0 0 0-2.54-1.521 8.284 8.284 0 0 0-2.538-.508c-.342 0-.508.254-.508.762a1.02 1.02 0 0 0 .254.76c1.863 1.188 2.964 2.541 3.302 4.064.337 1.014.506 2.367.508 4.061 0 1.693.419 2.539 1.267 2.539.34 0 .55-.254.636-.762.086-.506.549-.674 1.396-.506.846.506 1.181 1.186 1.018 2.031a2.546 2.546 0 0 1-.892 2.033c-.594.506-1.313.594-2.158.254-1.186-.168-2.028-.637-2.538-1.396a9.064 9.064 0 0 1-1.144-2.412 34.98 34.98 0 0 1-.635-2.416 7.967 7.967 0 0 0-.506-1.65c-.172-.168-.552-.209-1.143-.125-.631.088-1.267.131-1.902.125a6.005 6.005 0 0 1-1.653-.254c-.594-.168-.976-.674-1.141-1.521-.343-1.186 0-1.988 1.015-2.416a7.726 7.726 0 0 0 2.54-1.65c.206-.254.338-.563.38-.887.084-.418-.042-.635-.38-.635-4.063-.338-7.618.678-10.663 3.045-3.046 2.367-4.738 5.498-5.078 9.395h1.016c.336-1.523 1.352-2.283 3.045-2.283 2.198 0 3.299 1.1 3.302 3.301a2.77 2.77 0 0 1-1.016 2.158 3.39 3.39 0 0 1-2.286.887c-1.356 0-2.372-.678-3.045-2.033h-1.016c.168 3.389 1.353 6.141 3.556 8.252 2.202 2.113 4.487 3.086 6.854 2.922a6.235 6.235 0 0 0 3.555-1.018c1.018-.672 1.437-1.689 1.271-3.045 0-1.863-.678-2.793-2.032-2.793a.597.597 0 0 0-.636.506 5.178 5.178 0 0 1-.38 1.016c-.342.852-.935 1.105-1.778.762-.678 0-1.016-.59-1.016-1.777a4.28 4.28 0 0 1 .762-2.402c.509-.762 1.271-1.143 2.284-1.141 1.354 0 2.622.551 3.807 1.65 1.184 1.102 1.691 2.582 1.522 4.443-.339 3.217-1.735 5.332-4.191 6.346-2.455 1.014-4.867 1.268-7.236.762a2.416 2.416 0 0 1-2.032 1.018c-.851 0-1.612-.678-2.284-2.033a17.286 17.286 0 0 1-2.666-6.984 34.148 34.148 0 0 1-.382-7.744c0-4.4 1.524-7.996 4.573-10.791 3.048-2.793 6.856-4.191 11.425-4.191a49.21 49.21 0 0 1 9.395.887c3.178.604 6.417.816 9.646.637 2.876 0 5.33-.34 7.361-1.018.171 1.351-.208 2.365-1.136 3.039zm-6.222-9.395a40.303 40.303 0 0 0-9.646.635c-3.096.602-6.242.9-9.395.893-4.571 0-8.38-1.396-11.425-4.191-3.046-2.793-4.57-6.391-4.573-10.791a34.145 34.145 0 0 1 .382-7.744 17.312 17.312 0 0 1 2.666-6.984c.674-1.352 1.435-2.027 2.284-2.029a2.422 2.422 0 0 1 2.032 1.016c2.369-.508 4.781-.254 7.236.762 2.456 1.018 3.853 3.133 4.191 6.348.167 1.861-.34 3.342-1.523 4.441-1.187 1.104-2.453 1.65-3.807 1.65-1.015 0-1.776-.379-2.283-1.141a4.27 4.27 0 0 1-.762-2.414c0-1.18.338-1.777 1.015-1.777.845-.336 1.438-.082 1.779.762.16.326.287.666.38 1.016a.596.596 0 0 0 .635.508c1.354 0 2.031-.932 2.033-2.795.167-1.352-.254-2.367-1.271-3.045a6.284 6.284 0 0 0-3.556-1.016c-2.37-.166-4.654.807-6.854 2.92-2.199 2.115-3.384 4.865-3.555 8.252h1.015c.676-1.354 1.69-2.031 3.046-2.033.846.002 1.66.318 2.286.889a2.788 2.788 0 0 1 1.015 2.158c0 2.203-1.1 3.305-3.301 3.301-1.692 0-2.707-.762-3.046-2.283h-1.015c.337 3.895 2.029 7.027 5.078 9.395 3.048 2.367 6.603 3.381 10.663 3.045.338 0 .466-.209.38-.637a1.818 1.818 0 0 0-.38-.887 7.827 7.827 0 0 0-2.545-1.648c-1.015-.422-1.354-1.227-1.015-2.414.165-.846.547-1.35 1.141-1.523a6.253 6.253 0 0 1 1.653-.254 13.76 13.76 0 0 1 1.902.127c.591.088.971.041 1.143-.127.173-.166.338-.674.506-1.521.167-.848.382-1.691.635-2.541a9.095 9.095 0 0 1 1.144-2.412c.509-.762 1.355-1.227 2.538-1.396.844-.336 1.563-.252 2.158.254.587.508.911 1.254.88 2.029.165.852-.172 1.523-1.018 2.033-.848.17-1.313-.039-1.396-.635s-.296-.801-.636-.637c-.848 0-1.267.85-1.267 2.541 0 1.689-.173 3.045-.508 4.061-.342 1.521-1.438 2.883-3.302 4.063-.17.17-.253.508-.253 1.016a.448.448 0 0 0 .507.508 8.284 8.284 0 0 0 2.538-.508 6.355 6.355 0 0 0 2.54-1.523c.674-.844 1.647-1.943 2.92-3.299a14.183 14.183 0 0 1 3.935-3.047c1.69-.508 2.706-.422 3.046.256a1.908 1.908 0 0 1-.506 1.141c-.342.426-.508 1.059-.508 1.904a13.055 13.055 0 0 1 3.046-1.523c1.017-.168 1.778.045 2.284.637s.338 1.479-.506 2.662a9.978 9.978 0 0 1 3.428 1.525c.932.68 1.312 1.693 1.141 3.047-2.02-.68-4.471-1.016-7.349-1.02z"/></svg>